# Bastion Fabrication Hub — generated original low-poly asset
# Coordinates: meters, +Y up, +Z forward
mtllib Bastion_FabricationHub.mtl
o Bastion_FabricationHub_LOD1
g Bastion_FabricationHub_LOD1
usemtl BastionPalette
s off
vt 0.04545455 0.50000000
vt 0.13636364 0.50000000
vt 0.22727273 0.50000000
vt 0.31818182 0.50000000
vt 0.40909091 0.50000000
vt 0.50000000 0.50000000
vt 0.59090909 0.50000000
vt 0.68181818 0.50000000
vt 0.77272727 0.50000000
vt 0.86363636 0.50000000
vt 0.95454545 0.50000000
# piece Hub_LOD1_Pad palette=Concrete
v -6.00000000 0.00000000 -5.20000000
v -6.00000000 0.00000000 5.20000000
v -6.00000000 0.28000000 -5.20000000
v -6.00000000 0.28000000 5.20000000
v 6.00000000 0.00000000 -5.20000000
v 6.00000000 0.00000000 5.20000000
v 6.00000000 0.28000000 -5.20000000
v 6.00000000 0.28000000 5.20000000
vn -1.00000000 0.00000000 -0.00000000
vn -0.00000000 -1.00000000 -0.00000000
vn -1.00000000 0.00000000 0.00000000
vn -0.00000000 -0.00000000 -1.00000000
vn 0.00000000 -0.00000000 1.00000000
vn -0.00000000 -1.00000000 -0.00000000
vn 0.00000000 -0.00000000 1.00000000
vn -0.00000000 1.00000000 0.00000000
vn -0.00000000 -0.00000000 -1.00000000
vn -0.00000000 1.00000000 0.00000000
vn 1.00000000 0.00000000 0.00000000
vn 1.00000000 0.00000000 0.00000000
# piece Hub_LOD1_Main palette=Armor
v -4.00000000 0.14500000 -3.72000000
v -4.00000000 0.14500000 2.08000000
v -4.00000000 3.59500000 -3.72000000
v -4.00000000 3.59500000 2.08000000
v 4.00000000 0.14500000 -3.72000000
v 4.00000000 0.14500000 2.08000000
v 4.00000000 3.59500000 -3.72000000
v 4.00000000 3.59500000 2.08000000
vn -1.00000000 0.00000000 -0.00000000
vn -0.00000000 -1.00000000 -0.00000000
vn -1.00000000 0.00000000 0.00000000
vn -0.00000000 -0.00000000 -1.00000000
vn 0.00000000 -0.00000000 1.00000000
vn -0.00000000 -1.00000000 -0.00000000
vn 0.00000000 -0.00000000 1.00000000
vn -0.00000000 1.00000000 0.00000000
vn -0.00000000 -0.00000000 -1.00000000
vn -0.00000000 1.00000000 0.00000000
vn 1.00000000 0.00000000 0.00000000
vn 1.00000000 0.00000000 0.00000000
# piece Hub_LOD1_Wings palette=Armor
v -5.13000000 0.16000000 -3.45500000
v -5.13000000 0.16000000 3.09500000
v -5.13000000 3.06000000 -3.45500000
v -5.13000000 3.06000000 3.09500000
v -3.83000000 0.16000000 -3.45500000
v -3.83000000 0.16000000 3.09500000
v -3.83000000 3.06000000 -3.45500000
v -3.83000000 3.06000000 3.09500000
v 3.83000000 0.16000000 -3.45500000
v 3.83000000 0.16000000 3.09500000
v 3.83000000 3.06000000 -3.45500000
v 3.83000000 3.06000000 3.09500000
v 5.13000000 0.16000000 -3.45500000
v 5.13000000 0.16000000 3.09500000
v 5.13000000 3.06000000 -3.45500000
v 5.13000000 3.06000000 3.09500000
vn -1.00000000 0.00000000 -0.00000000
vn -0.00000000 -1.00000000 -0.00000000
vn -1.00000000 0.00000000 0.00000000
vn -0.00000000 -0.00000000 -1.00000000
vn 0.00000000 -0.00000000 1.00000000
vn -0.00000000 -1.00000000 -0.00000000
vn 0.00000000 -0.00000000 1.00000000
vn -0.00000000 1.00000000 0.00000000
vn -0.00000000 -0.00000000 -1.00000000
vn -0.00000000 1.00000000 0.00000000
vn 1.00000000 0.00000000 0.00000000
vn 1.00000000 0.00000000 0.00000000
vn -1.00000000 0.00000000 -0.00000000
vn -0.00000000 -1.00000000 -0.00000000
vn -1.00000000 0.00000000 0.00000000
vn -0.00000000 -0.00000000 -1.00000000
vn 0.00000000 -0.00000000 1.00000000
vn -0.00000000 -1.00000000 -0.00000000
vn 0.00000000 -0.00000000 1.00000000
vn -0.00000000 1.00000000 0.00000000
vn -0.00000000 -0.00000000 -1.00000000
vn -0.00000000 1.00000000 0.00000000
vn 1.00000000 0.00000000 0.00000000
vn 1.00000000 0.00000000 0.00000000
# piece Hub_LOD1_Tower palette=Armor
v -4.69000000 0.28000000 -2.95000000
v -4.69000000 0.28000000 -0.35000000
v -4.69000000 5.08000000 -2.95000000
v -4.69000000 5.08000000 -0.35000000
v -1.99000000 0.28000000 -2.95000000
v -1.99000000 0.28000000 -0.35000000
v -1.99000000 5.08000000 -2.95000000
v -1.99000000 5.08000000 -0.35000000
vn -1.00000000 0.00000000 -0.00000000
vn -0.00000000 -1.00000000 -0.00000000
vn -1.00000000 0.00000000 0.00000000
vn -0.00000000 -0.00000000 -1.00000000
vn 0.00000000 -0.00000000 1.00000000
vn -0.00000000 -1.00000000 -0.00000000
vn 0.00000000 -0.00000000 1.00000000
vn -0.00000000 1.00000000 0.00000000
vn -0.00000000 -0.00000000 -1.00000000
vn -0.00000000 1.00000000 0.00000000
vn 1.00000000 0.00000000 0.00000000
vn 1.00000000 0.00000000 0.00000000
# piece Hub_LOD1_Core palette=Armor
v 2.55000000 3.07500000 -1.72000000
v 3.93000000 3.07500000 -1.72000000
v 3.93000000 5.12500000 -1.72000000
v 2.55000000 5.12500000 -1.72000000
v 3.52580736 3.07500000 -2.69580736
v 3.52580736 5.12500000 -2.69580736
v 2.55000000 3.07500000 -3.10000000
v 2.55000000 5.12500000 -3.10000000
v 1.57419264 3.07500000 -2.69580736
v 1.57419264 5.12500000 -2.69580736
v 1.17000000 3.07500000 -1.72000000
v 1.17000000 5.12500000 -1.72000000
v 1.57419264 3.07500000 -0.74419264
v 1.57419264 5.12500000 -0.74419264
v 2.55000000 3.07500000 -0.34000000
v 2.55000000 5.12500000 -0.34000000
v 3.52580736 3.07500000 -0.74419264
v 3.52580736 5.12500000 -0.74419264
vn -0.00000000 -1.00000000 -0.00000000
vn 0.92387953 0.00000000 -0.38268343
vn 0.92387953 0.00000000 -0.38268343
vn 0.00000000 1.00000000 0.00000000
vn -0.00000000 -1.00000000 -0.00000000
vn 0.38268343 0.00000000 -0.92387953
vn 0.38268343 0.00000000 -0.92387953
vn 0.00000000 1.00000000 -0.00000000
vn -0.00000000 -1.00000000 0.00000000
vn -0.38268343 0.00000000 -0.92387953
vn -0.38268343 0.00000000 -0.92387953
vn 0.00000000 1.00000000 -0.00000000
vn -0.00000000 -1.00000000 0.00000000
vn -0.92387953 0.00000000 -0.38268343
vn -0.92387953 0.00000000 -0.38268343
vn 0.00000000 1.00000000 -0.00000000
vn 0.00000000 -1.00000000 0.00000000
vn -0.92387953 -0.00000000 0.38268343
vn -0.92387953 -0.00000000 0.38268343
vn -0.00000000 1.00000000 0.00000000
vn 0.00000000 -1.00000000 0.00000000
vn -0.38268343 -0.00000000 0.92387953
vn -0.38268343 0.00000000 0.92387953
vn -0.00000000 1.00000000 0.00000000
vn 0.00000000 -1.00000000 0.00000000
vn 0.38268343 0.00000000 0.92387953
vn 0.38268343 -0.00000000 0.92387953
vn 0.00000000 1.00000000 0.00000000
vn 0.00000000 -1.00000000 -0.00000000
vn 0.92387953 -0.00000000 0.38268343
vn 0.92387953 -0.00000000 0.38268343
vn 0.00000000 1.00000000 0.00000000
# piece Hub_LOD1_Door palette=Secondary
v -2.35000000 0.30000000 2.08000000
v -2.35000000 0.30000000 2.28000000
v -2.35000000 3.00000000 2.08000000
v -2.35000000 3.00000000 2.28000000
v 2.35000000 0.30000000 2.08000000
v 2.35000000 0.30000000 2.28000000
v 2.35000000 3.00000000 2.08000000
v 2.35000000 3.00000000 2.28000000
vn -1.00000000 0.00000000 -0.00000000
vn -0.00000000 -1.00000000 -0.00000000
vn -1.00000000 0.00000000 0.00000000
vn -0.00000000 -0.00000000 -1.00000000
vn 0.00000000 -0.00000000 1.00000000
vn -0.00000000 -1.00000000 -0.00000000
vn 0.00000000 -0.00000000 1.00000000
vn -0.00000000 1.00000000 0.00000000
vn -0.00000000 -0.00000000 -1.00000000
vn -0.00000000 1.00000000 0.00000000
vn 1.00000000 0.00000000 0.00000000
vn 1.00000000 0.00000000 0.00000000
# piece Hub_LOD1_CraneMast palette=Armor
v 3.50000000 0.28500000 -3.09000000
v 3.50000000 0.28500000 -2.19000000
v 3.50000000 6.33500000 -3.09000000
v 3.50000000 6.33500000 -2.19000000
v 4.40000000 0.28500000 -3.09000000
v 4.40000000 0.28500000 -2.19000000
v 4.40000000 6.33500000 -3.09000000
v 4.40000000 6.33500000 -2.19000000
vn -1.00000000 0.00000000 -0.00000000
vn -0.00000000 -1.00000000 -0.00000000
vn -1.00000000 0.00000000 0.00000000
vn -0.00000000 -0.00000000 -1.00000000
vn 0.00000000 -0.00000000 1.00000000
vn -0.00000000 -1.00000000 -0.00000000
vn 0.00000000 -0.00000000 1.00000000
vn -0.00000000 1.00000000 0.00000000
vn -0.00000000 -0.00000000 -1.00000000
vn -0.00000000 1.00000000 0.00000000
vn 1.00000000 0.00000000 0.00000000
vn 1.00000000 0.00000000 0.00000000
# piece Hub_LOD1_CraneBoom palette=Armor
v 3.44000000 5.33878751 -4.12151554
v 3.44000000 6.15531211 2.52854368
v 3.44000000 5.88468789 -4.18854368
v 3.44000000 6.70121249 2.46151554
v 4.46000000 5.33878751 -4.12151554
v 4.46000000 6.15531211 2.52854368
v 4.46000000 5.88468789 -4.18854368
v 4.46000000 6.70121249 2.46151554
vn -1.00000000 0.00000000 -0.00000000
vn 0.00000000 -0.99254615 0.12186934
vn -1.00000000 0.00000000 -0.00000000
vn -0.00000000 -0.12186934 -0.99254615
vn 0.00000000 0.12186934 0.99254615
vn 0.00000000 -0.99254615 0.12186934
vn 0.00000000 0.12186934 0.99254615
vn 0.00000000 0.99254615 -0.12186934
vn 0.00000000 -0.12186934 -0.99254615
vn 0.00000000 0.99254615 -0.12186934
vn 1.00000000 0.00000000 -0.00000000
vn 1.00000000 0.00000000 0.00000000
# piece Hub_LOD1_Apron palette=Concrete
v -2.87500000 0.29000000 1.17000000
v -2.87500000 0.29000000 4.87000000
v -2.87500000 0.37000000 1.17000000
v -2.87500000 0.37000000 4.87000000
v 2.87500000 0.29000000 1.17000000
v 2.87500000 0.29000000 4.87000000
v 2.87500000 0.37000000 1.17000000
v 2.87500000 0.37000000 4.87000000
vn -1.00000000 0.00000000 -0.00000000
vn -0.00000000 -1.00000000 -0.00000000
vn -1.00000000 0.00000000 0.00000000
vn -0.00000000 -0.00000000 -1.00000000
vn 0.00000000 -0.00000000 1.00000000
vn -0.00000000 -1.00000000 -0.00000000
vn 0.00000000 -0.00000000 1.00000000
vn -0.00000000 1.00000000 0.00000000
vn -0.00000000 -0.00000000 -1.00000000
vn -0.00000000 1.00000000 0.00000000
vn 1.00000000 0.00000000 0.00000000
vn 1.00000000 0.00000000 0.00000000
f 2/3/1 4/3/1 1/3/1
f 5/3/2 2/3/2 1/3/2
f 1/3/3 4/3/3 3/3/3
f 3/3/4 5/3/4 1/3/4
f 2/3/5 8/3/5 4/3/5
f 6/3/6 2/3/6 5/3/6
f 6/3/7 8/3/7 2/3/7
f 4/3/8 8/3/8 3/3/8
f 7/3/9 5/3/9 3/3/9
f 3/3/10 8/3/10 7/3/10
f 7/3/11 6/3/11 5/3/11
f 8/3/12 6/3/12 7/3/12
f 10/1/13 12/1/13 9/1/13
f 13/1/14 10/1/14 9/1/14
f 9/1/15 12/1/15 11/1/15
f 11/1/16 13/1/16 9/1/16
f 10/1/17 16/1/17 12/1/17
f 14/1/18 10/1/18 13/1/18
f 14/1/19 16/1/19 10/1/19
f 12/1/20 16/1/20 11/1/20
f 15/1/21 13/1/21 11/1/21
f 11/1/22 16/1/22 15/1/22
f 15/1/23 14/1/23 13/1/23
f 16/1/24 14/1/24 15/1/24
f 18/1/25 20/1/25 17/1/25
f 21/1/26 18/1/26 17/1/26
f 17/1/27 20/1/27 19/1/27
f 19/1/28 21/1/28 17/1/28
f 18/1/29 24/1/29 20/1/29
f 22/1/30 18/1/30 21/1/30
f 22/1/31 24/1/31 18/1/31
f 20/1/32 24/1/32 19/1/32
f 23/1/33 21/1/33 19/1/33
f 19/1/34 24/1/34 23/1/34
f 23/1/35 22/1/35 21/1/35
f 24/1/36 22/1/36 23/1/36
f 26/1/37 28/1/37 25/1/37
f 29/1/38 26/1/38 25/1/38
f 25/1/39 28/1/39 27/1/39
f 27/1/40 29/1/40 25/1/40
f 26/1/41 32/1/41 28/1/41
f 30/1/42 26/1/42 29/1/42
f 30/1/43 32/1/43 26/1/43
f 28/1/44 32/1/44 27/1/44
f 31/1/45 29/1/45 27/1/45
f 27/1/46 32/1/46 31/1/46
f 31/1/47 30/1/47 29/1/47
f 32/1/48 30/1/48 31/1/48
f 34/1/49 36/1/49 33/1/49
f 37/1/50 34/1/50 33/1/50
f 33/1/51 36/1/51 35/1/51
f 35/1/52 37/1/52 33/1/52
f 34/1/53 40/1/53 36/1/53
f 38/1/54 34/1/54 37/1/54
f 38/1/55 40/1/55 34/1/55
f 36/1/56 40/1/56 35/1/56
f 39/1/57 37/1/57 35/1/57
f 35/1/58 40/1/58 39/1/58
f 39/1/59 38/1/59 37/1/59
f 40/1/60 38/1/60 39/1/60
f 42/1/61 41/1/61 45/1/61
f 42/1/62 45/1/62 43/1/62
f 43/1/63 45/1/63 46/1/63
f 43/1/64 46/1/64 44/1/64
f 45/1/65 41/1/65 47/1/65
f 45/1/66 47/1/66 46/1/66
f 46/1/67 47/1/67 48/1/67
f 46/1/68 48/1/68 44/1/68
f 47/1/69 41/1/69 49/1/69
f 47/1/70 49/1/70 48/1/70
f 48/1/71 49/1/71 50/1/71
f 48/1/72 50/1/72 44/1/72
f 49/1/73 41/1/73 51/1/73
f 49/1/74 51/1/74 50/1/74
f 50/1/75 51/1/75 52/1/75
f 50/1/76 52/1/76 44/1/76
f 51/1/77 41/1/77 53/1/77
f 51/1/78 53/1/78 52/1/78
f 52/1/79 53/1/79 54/1/79
f 52/1/80 54/1/80 44/1/80
f 53/1/81 41/1/81 55/1/81
f 53/1/82 55/1/82 54/1/82
f 54/1/83 55/1/83 56/1/83
f 54/1/84 56/1/84 44/1/84
f 55/1/85 41/1/85 57/1/85
f 55/1/86 57/1/86 56/1/86
f 56/1/87 57/1/87 58/1/87
f 56/1/88 58/1/88 44/1/88
f 57/1/89 41/1/89 42/1/89
f 57/1/90 42/1/90 58/1/90
f 58/1/91 42/1/91 43/1/91
f 58/1/92 43/1/92 44/1/92
f 60/2/93 62/2/93 59/2/93
f 63/2/94 60/2/94 59/2/94
f 59/2/95 62/2/95 61/2/95
f 61/2/96 63/2/96 59/2/96
f 60/2/97 66/2/97 62/2/97
f 64/2/98 60/2/98 63/2/98
f 64/2/99 66/2/99 60/2/99
f 62/2/100 66/2/100 61/2/100
f 65/2/101 63/2/101 61/2/101
f 61/2/102 66/2/102 65/2/102
f 65/2/103 64/2/103 63/2/103
f 66/2/104 64/2/104 65/2/104
f 68/1/105 70/1/105 67/1/105
f 71/1/106 68/1/106 67/1/106
f 67/1/107 70/1/107 69/1/107
f 69/1/108 71/1/108 67/1/108
f 68/1/109 74/1/109 70/1/109
f 72/1/110 68/1/110 71/1/110
f 72/1/111 74/1/111 68/1/111
f 70/1/112 74/1/112 69/1/112
f 73/1/113 71/1/113 69/1/113
f 69/1/114 74/1/114 73/1/114
f 73/1/115 72/1/115 71/1/115
f 74/1/116 72/1/116 73/1/116
f 76/1/117 78/1/117 75/1/117
f 79/1/118 76/1/118 75/1/118
f 75/1/119 78/1/119 77/1/119
f 77/1/120 79/1/120 75/1/120
f 76/1/121 82/1/121 78/1/121
f 80/1/122 76/1/122 79/1/122
f 80/1/123 82/1/123 76/1/123
f 78/1/124 82/1/124 77/1/124
f 81/1/125 79/1/125 77/1/125
f 77/1/126 82/1/126 81/1/126
f 81/1/127 80/1/127 79/1/127
f 82/1/128 80/1/128 81/1/128
f 84/3/129 86/3/129 83/3/129
f 87/3/130 84/3/130 83/3/130
f 83/3/131 86/3/131 85/3/131
f 85/3/132 87/3/132 83/3/132
f 84/3/133 90/3/133 86/3/133
f 88/3/134 84/3/134 87/3/134
f 88/3/135 90/3/135 84/3/135
f 86/3/136 90/3/136 85/3/136
f 89/3/137 87/3/137 85/3/137
f 85/3/138 90/3/138 89/3/138
f 89/3/139 88/3/139 87/3/139
f 90/3/140 88/3/140 89/3/140
