# Bastion Fabrication Hub — generated original low-poly asset
# Coordinates: meters, +Y up, +Z forward
mtllib Bastion_FabricationHub.mtl
o Bastion_FabricationHub_CraneTrolley
g Bastion_FabricationHub_CraneTrolley
usemtl BastionPalette
s off
vt 0.04545455 0.50000000
vt 0.13636364 0.50000000
vt 0.22727273 0.50000000
vt 0.31818182 0.50000000
vt 0.40909091 0.50000000
vt 0.50000000 0.50000000
vt 0.59090909 0.50000000
vt 0.68181818 0.50000000
vt 0.77272727 0.50000000
vt 0.86363636 0.50000000
vt 0.95454545 0.50000000
# piece CraneTrolley_Armor palette=Armor
v -0.61000000 -0.37000000 -0.44000000
v -0.61000000 -0.37000000 0.44000000
v -0.61000000 0.05000000 -0.44000000
v -0.61000000 0.05000000 0.44000000
v 0.61000000 -0.37000000 -0.44000000
v 0.61000000 -0.37000000 0.44000000
v 0.61000000 0.05000000 -0.44000000
v 0.61000000 0.05000000 0.44000000
v -0.42000000 -0.69000000 -0.28000000
v -0.42000000 -0.69000000 0.28000000
v -0.42000000 -0.35000000 -0.28000000
v -0.42000000 -0.35000000 0.28000000
v 0.42000000 -0.69000000 -0.28000000
v 0.42000000 -0.69000000 0.28000000
v 0.42000000 -0.35000000 -0.28000000
v 0.42000000 -0.35000000 0.28000000
v -0.41000000 -0.30000000 -0.00000000
v -0.41000000 -0.30000000 -0.18000000
v 0.41000000 -0.30000000 -0.18000000
v 0.41000000 -0.30000000 0.00000000
v -0.41000000 -0.21000000 -0.15588457
v 0.41000000 -0.21000000 -0.15588457
v -0.41000000 -0.14411543 -0.09000000
v 0.41000000 -0.14411543 -0.09000000
v -0.41000000 -0.12000000 -0.00000000
v 0.41000000 -0.12000000 0.00000000
v -0.41000000 -0.14411543 0.09000000
v 0.41000000 -0.14411543 0.09000000
v -0.41000000 -0.21000000 0.15588457
v 0.41000000 -0.21000000 0.15588457
v -0.41000000 -0.30000000 0.18000000
v 0.41000000 -0.30000000 0.18000000
v -0.41000000 -0.39000000 0.15588457
v 0.41000000 -0.39000000 0.15588457
v -0.41000000 -0.45588457 0.09000000
v 0.41000000 -0.45588457 0.09000000
v -0.41000000 -0.48000000 0.00000000
v 0.41000000 -0.48000000 0.00000000
v -0.41000000 -0.45588457 -0.09000000
v 0.41000000 -0.45588457 -0.09000000
v -0.41000000 -0.39000000 -0.15588457
v 0.41000000 -0.39000000 -0.15588457
vn -1.00000000 0.00000000 -0.00000000
vn -0.00000000 -1.00000000 -0.00000000
vn -1.00000000 0.00000000 0.00000000
vn -0.00000000 -0.00000000 -1.00000000
vn 0.00000000 -0.00000000 1.00000000
vn -0.00000000 -1.00000000 -0.00000000
vn 0.00000000 -0.00000000 1.00000000
vn -0.00000000 1.00000000 0.00000000
vn -0.00000000 -0.00000000 -1.00000000
vn -0.00000000 1.00000000 0.00000000
vn 1.00000000 0.00000000 0.00000000
vn 1.00000000 0.00000000 0.00000000
vn -1.00000000 0.00000000 -0.00000000
vn -0.00000000 -1.00000000 -0.00000000
vn -1.00000000 0.00000000 0.00000000
vn -0.00000000 -0.00000000 -1.00000000
vn 0.00000000 -0.00000000 1.00000000
vn -0.00000000 -1.00000000 -0.00000000
vn 0.00000000 -0.00000000 1.00000000
vn -0.00000000 1.00000000 0.00000000
vn -0.00000000 -0.00000000 -1.00000000
vn -0.00000000 1.00000000 0.00000000
vn 1.00000000 0.00000000 0.00000000
vn 1.00000000 0.00000000 0.00000000
vn -1.00000000 0.00000000 0.00000000
vn 0.00000000 0.25881905 -0.96592583
vn 0.00000000 0.25881905 -0.96592583
vn 1.00000000 0.00000000 -0.00000000
vn -1.00000000 0.00000000 0.00000000
vn 0.00000000 0.70710678 -0.70710678
vn 0.00000000 0.70710678 -0.70710678
vn 1.00000000 0.00000000 -0.00000000
vn -1.00000000 0.00000000 0.00000000
vn 0.00000000 0.96592583 -0.25881905
vn 0.00000000 0.96592583 -0.25881905
vn 1.00000000 0.00000000 -0.00000000
vn -1.00000000 0.00000000 0.00000000
vn -0.00000000 0.96592583 0.25881905
vn -0.00000000 0.96592583 0.25881905
vn 1.00000000 0.00000000 0.00000000
vn -1.00000000 -0.00000000 0.00000000
vn -0.00000000 0.70710678 0.70710678
vn -0.00000000 0.70710678 0.70710678
vn 1.00000000 0.00000000 0.00000000
vn -1.00000000 -0.00000000 0.00000000
vn -0.00000000 0.25881905 0.96592583
vn -0.00000000 0.25881905 0.96592583
vn 1.00000000 0.00000000 0.00000000
vn -1.00000000 -0.00000000 -0.00000000
vn -0.00000000 -0.25881905 0.96592583
vn -0.00000000 -0.25881905 0.96592583
vn 1.00000000 0.00000000 0.00000000
vn -1.00000000 -0.00000000 -0.00000000
vn -0.00000000 -0.70710678 0.70710678
vn -0.00000000 -0.70710678 0.70710678
vn 1.00000000 0.00000000 0.00000000
vn -1.00000000 -0.00000000 -0.00000000
vn -0.00000000 -0.96592583 0.25881905
vn -0.00000000 -0.96592583 0.25881905
vn 1.00000000 0.00000000 0.00000000
vn -1.00000000 0.00000000 -0.00000000
vn 0.00000000 -0.96592583 -0.25881905
vn 0.00000000 -0.96592583 -0.25881905
vn 1.00000000 -0.00000000 0.00000000
vn -1.00000000 0.00000000 -0.00000000
vn 0.00000000 -0.70710678 -0.70710678
vn 0.00000000 -0.70710678 -0.70710678
vn 1.00000000 -0.00000000 0.00000000
vn -1.00000000 0.00000000 0.00000000
vn 0.00000000 -0.25881905 -0.96592583
vn 0.00000000 -0.25881905 -0.96592583
vn 1.00000000 -0.00000000 0.00000000
# piece CraneTrolley_Secondary palette=Secondary
v 0.00000000 -3.02500000 -0.00000000
v 0.05500000 -3.02500000 -0.00000000
v 0.05500000 -0.57500000 0.00000000
v 0.00000000 -0.57500000 0.00000000
v 0.03889087 -3.02500000 -0.03889087
v 0.03889087 -0.57500000 -0.03889087
v 0.00000000 -3.02500000 -0.05500000
v 0.00000000 -0.57500000 -0.05500000
v -0.03889087 -3.02500000 -0.03889087
v -0.03889087 -0.57500000 -0.03889087
v -0.05500000 -3.02500000 -0.00000000
v -0.05500000 -0.57500000 0.00000000
v -0.03889087 -3.02500000 0.03889087
v -0.03889087 -0.57500000 0.03889087
v -0.00000000 -3.02500000 0.05500000
v -0.00000000 -0.57500000 0.05500000
v 0.03889087 -3.02500000 0.03889087
v 0.03889087 -0.57500000 0.03889087
v 0.27500000 -3.05000000 0.00000000
v 0.23699593 -3.10230811 0.00000000
v 0.17550407 -3.08232819 0.00000000
v 0.17550407 -3.01767181 -0.00000000
v 0.23699593 -2.99769189 -0.00000000
v 0.23815699 -3.05000000 0.13750000
v 0.20524450 -3.10230811 0.11849797
v 0.15199098 -3.08232819 0.08775203
v 0.15199098 -3.01767181 0.08775203
v 0.20524450 -2.99769189 0.11849797
v 0.13750000 -3.05000000 0.23815699
v 0.11849797 -3.10230811 0.20524450
v 0.08775203 -3.08232819 0.15199098
v 0.08775203 -3.01767181 0.15199098
v 0.11849797 -2.99769189 0.20524450
v 0.00000000 -3.05000000 0.27500000
v 0.00000000 -3.10230811 0.23699593
v 0.00000000 -3.08232819 0.17550407
v 0.00000000 -3.01767181 0.17550407
v 0.00000000 -2.99769189 0.23699593
v -0.13750000 -3.05000000 0.23815699
v -0.11849797 -3.10230811 0.20524450
v -0.08775203 -3.08232819 0.15199098
v -0.08775203 -3.01767181 0.15199098
v -0.11849797 -2.99769189 0.20524450
v -0.23815699 -3.05000000 0.13750000
v -0.20524450 -3.10230811 0.11849797
v -0.15199098 -3.08232819 0.08775203
v -0.15199098 -3.01767181 0.08775203
v -0.20524450 -2.99769189 0.11849797
v -0.27500000 -3.05000000 0.00000000
v -0.23699593 -3.10230811 0.00000000
v -0.17550407 -3.08232819 0.00000000
v -0.17550407 -3.01767181 0.00000000
v -0.23699593 -2.99769189 0.00000000
v -0.23815699 -3.05000000 -0.13750000
v -0.20524450 -3.10230811 -0.11849797
v -0.15199098 -3.08232819 -0.08775203
v -0.15199098 -3.01767181 -0.08775203
v -0.20524450 -2.99769189 -0.11849797
v -0.13750000 -3.05000000 -0.23815699
v -0.11849797 -3.10230811 -0.20524450
v -0.08775203 -3.08232819 -0.15199098
v -0.08775203 -3.01767181 -0.15199098
v -0.11849797 -2.99769189 -0.20524450
v -0.00000000 -3.05000000 -0.27500000
v -0.00000000 -3.10230811 -0.23699593
v -0.00000000 -3.08232819 -0.17550407
v -0.00000000 -3.01767181 -0.17550407
v -0.00000000 -2.99769189 -0.23699593
v 0.13750000 -3.05000000 -0.23815699
v 0.11849797 -3.10230811 -0.20524450
v 0.08775203 -3.08232819 -0.15199098
v 0.08775203 -3.01767181 -0.15199098
v 0.11849797 -2.99769189 -0.20524450
v 0.23815699 -3.05000000 -0.13750000
v 0.20524450 -3.10230811 -0.11849797
v 0.15199098 -3.08232819 -0.08775203
v 0.15199098 -3.01767181 -0.08775203
v 0.20524450 -2.99769189 -0.11849797
v -0.07000000 -3.53000000 -0.07000000
v -0.07000000 -3.53000000 0.07000000
v -0.07000000 -2.97000000 -0.07000000
v -0.07000000 -2.97000000 0.07000000
v 0.07000000 -3.53000000 -0.07000000
v 0.07000000 -3.53000000 0.07000000
v 0.07000000 -2.97000000 -0.07000000
v 0.07000000 -2.97000000 0.07000000
vn -0.00000000 -1.00000000 -0.00000000
vn 0.92387953 0.00000000 -0.38268343
vn 0.92387953 0.00000000 -0.38268343
vn 0.00000000 1.00000000 0.00000000
vn -0.00000000 -1.00000000 -0.00000000
vn 0.38268343 0.00000000 -0.92387953
vn 0.38268343 0.00000000 -0.92387953
vn 0.00000000 1.00000000 0.00000000
vn -0.00000000 -1.00000000 0.00000000
vn -0.38268343 0.00000000 -0.92387953
vn -0.38268343 0.00000000 -0.92387953
vn 0.00000000 1.00000000 -0.00000000
vn -0.00000000 -1.00000000 0.00000000
vn -0.92387953 0.00000000 -0.38268343
vn -0.92387953 0.00000000 -0.38268343
vn 0.00000000 1.00000000 -0.00000000
vn 0.00000000 -1.00000000 0.00000000
vn -0.92387953 -0.00000000 0.38268343
vn -0.92387953 -0.00000000 0.38268343
vn -0.00000000 1.00000000 0.00000000
vn 0.00000000 -1.00000000 0.00000000
vn -0.38268343 -0.00000000 0.92387953
vn -0.38268343 -0.00000000 0.92387953
vn -0.00000000 1.00000000 0.00000000
vn 0.00000000 -1.00000000 0.00000000
vn 0.38268343 -0.00000000 0.92387953
vn 0.38268343 -0.00000000 0.92387953
vn 0.00000000 1.00000000 0.00000000
vn 0.00000000 -1.00000000 -0.00000000
vn 0.92387953 -0.00000000 0.38268343
vn 0.92387953 -0.00000000 0.38268343
vn 0.00000000 1.00000000 0.00000000
vn 0.79065323 -0.57444319 0.21185489
vn 0.79065323 -0.57444319 0.21185489
vn -0.30796310 -0.94781297 -0.08251846
vn -0.30796310 -0.94781297 -0.08251846
vn -0.96592583 0.00000000 -0.25881905
vn -0.96592583 0.00000000 -0.25881905
vn -0.30796310 0.94781297 -0.08251846
vn -0.30796310 0.94781297 -0.08251846
vn 0.79065323 0.57444319 0.21185489
vn 0.79065323 0.57444319 0.21185489
vn 0.57879833 -0.57444319 0.57879833
vn 0.57879833 -0.57444319 0.57879833
vn -0.22544464 -0.94781297 -0.22544464
vn -0.22544464 -0.94781297 -0.22544464
vn -0.70710678 0.00000000 -0.70710678
vn -0.70710678 0.00000000 -0.70710678
vn -0.22544464 0.94781297 -0.22544464
vn -0.22544464 0.94781297 -0.22544464
vn 0.57879833 0.57444319 0.57879833
vn 0.57879833 0.57444319 0.57879833
vn 0.21185489 -0.57444319 0.79065323
vn 0.21185489 -0.57444319 0.79065323
vn -0.08251846 -0.94781297 -0.30796310
vn -0.08251846 -0.94781297 -0.30796310
vn -0.25881905 0.00000000 -0.96592583
vn -0.25881905 0.00000000 -0.96592583
vn -0.08251846 0.94781297 -0.30796310
vn -0.08251846 0.94781297 -0.30796310
vn 0.21185489 0.57444319 0.79065323
vn 0.21185489 0.57444319 0.79065323
vn -0.21185489 -0.57444319 0.79065323
vn -0.21185489 -0.57444319 0.79065323
vn 0.08251846 -0.94781297 -0.30796310
vn 0.08251846 -0.94781297 -0.30796310
vn 0.25881905 0.00000000 -0.96592583
vn 0.25881905 0.00000000 -0.96592583
vn 0.08251846 0.94781297 -0.30796310
vn 0.08251846 0.94781297 -0.30796310
vn -0.21185489 0.57444319 0.79065323
vn -0.21185489 0.57444319 0.79065323
vn -0.57879833 -0.57444319 0.57879833
vn -0.57879833 -0.57444319 0.57879833
vn 0.22544464 -0.94781297 -0.22544464
vn 0.22544464 -0.94781297 -0.22544464
vn 0.70710678 0.00000000 -0.70710678
vn 0.70710678 0.00000000 -0.70710678
vn 0.22544464 0.94781297 -0.22544464
vn 0.22544464 0.94781297 -0.22544464
vn -0.57879833 0.57444319 0.57879833
vn -0.57879833 0.57444319 0.57879833
vn -0.79065323 -0.57444319 0.21185489
vn -0.79065323 -0.57444319 0.21185489
vn 0.30796310 -0.94781297 -0.08251846
vn 0.30796310 -0.94781297 -0.08251846
vn 0.96592583 0.00000000 -0.25881905
vn 0.96592583 -0.00000000 -0.25881905
vn 0.30796310 0.94781297 -0.08251846
vn 0.30796310 0.94781297 -0.08251846
vn -0.79065323 0.57444319 0.21185489
vn -0.79065323 0.57444319 0.21185489
vn -0.79065323 -0.57444319 -0.21185489
vn -0.79065323 -0.57444319 -0.21185489
vn 0.30796310 -0.94781297 0.08251846
vn 0.30796310 -0.94781297 0.08251846
vn 0.96592583 0.00000000 0.25881905
vn 0.96592583 -0.00000000 0.25881905
vn 0.30796310 0.94781297 0.08251846
vn 0.30796310 0.94781297 0.08251846
vn -0.79065323 0.57444319 -0.21185489
vn -0.79065323 0.57444319 -0.21185489
vn -0.57879833 -0.57444319 -0.57879833
vn -0.57879833 -0.57444319 -0.57879833
vn 0.22544464 -0.94781297 0.22544464
vn 0.22544464 -0.94781297 0.22544464
vn 0.70710678 0.00000000 0.70710678
vn 0.70710678 -0.00000000 0.70710678
vn 0.22544464 0.94781297 0.22544464
vn 0.22544464 0.94781297 0.22544464
vn -0.57879833 0.57444319 -0.57879833
vn -0.57879833 0.57444319 -0.57879833
vn -0.21185489 -0.57444319 -0.79065323
vn -0.21185489 -0.57444319 -0.79065323
vn 0.08251846 -0.94781297 0.30796310
vn 0.08251846 -0.94781297 0.30796310
vn 0.25881905 0.00000000 0.96592583
vn 0.25881905 -0.00000000 0.96592583
vn 0.08251846 0.94781297 0.30796310
vn 0.08251846 0.94781297 0.30796310
vn -0.21185489 0.57444319 -0.79065323
vn -0.21185489 0.57444319 -0.79065323
vn 0.21185489 -0.57444319 -0.79065323
vn 0.21185489 -0.57444319 -0.79065323
vn -0.08251846 -0.94781297 0.30796310
vn -0.08251846 -0.94781297 0.30796310
vn -0.25881905 0.00000000 0.96592583
vn -0.25881905 0.00000000 0.96592583
vn -0.08251846 0.94781297 0.30796310
vn -0.08251846 0.94781297 0.30796310
vn 0.21185489 0.57444319 -0.79065323
vn 0.21185489 0.57444319 -0.79065323
vn 0.57879833 -0.57444319 -0.57879833
vn 0.57879833 -0.57444319 -0.57879833
vn -0.22544464 -0.94781297 0.22544464
vn -0.22544464 -0.94781297 0.22544464
vn -0.70710678 0.00000000 0.70710678
vn -0.70710678 0.00000000 0.70710678
vn -0.22544464 0.94781297 0.22544464
vn -0.22544464 0.94781297 0.22544464
vn 0.57879833 0.57444319 -0.57879833
vn 0.57879833 0.57444319 -0.57879833
vn 0.79065323 -0.57444319 -0.21185489
vn 0.79065323 -0.57444319 -0.21185489
vn -0.30796310 -0.94781297 0.08251846
vn -0.30796310 -0.94781297 0.08251846
vn -0.96592583 0.00000000 0.25881905
vn -0.96592583 0.00000000 0.25881905
vn -0.30796310 0.94781297 0.08251846
vn -0.30796310 0.94781297 0.08251846
vn 0.79065323 0.57444319 -0.21185489
vn 0.79065323 0.57444319 -0.21185489
vn -1.00000000 0.00000000 -0.00000000
vn -0.00000000 -1.00000000 -0.00000000
vn -1.00000000 0.00000000 0.00000000
vn -0.00000000 -0.00000000 -1.00000000
vn 0.00000000 -0.00000000 1.00000000
vn -0.00000000 -1.00000000 -0.00000000
vn 0.00000000 -0.00000000 1.00000000
vn -0.00000000 1.00000000 0.00000000
vn -0.00000000 -0.00000000 -1.00000000
vn -0.00000000 1.00000000 0.00000000
vn 1.00000000 0.00000000 0.00000000
vn 1.00000000 0.00000000 0.00000000
# piece CraneTrolley_Accent palette=Accent
v -0.48000000 -0.06000000 0.42000000
v -0.48000000 -0.06000000 0.54000000
v -0.48000000 0.02000000 0.42000000
v -0.48000000 0.02000000 0.54000000
v 0.48000000 -0.06000000 0.42000000
v 0.48000000 -0.06000000 0.54000000
v 0.48000000 0.02000000 0.42000000
v 0.48000000 0.02000000 0.54000000
vn -1.00000000 0.00000000 -0.00000000
vn -0.00000000 -1.00000000 -0.00000000
vn -1.00000000 0.00000000 0.00000000
vn -0.00000000 -0.00000000 -1.00000000
vn 0.00000000 -0.00000000 1.00000000
vn -0.00000000 -1.00000000 -0.00000000
vn 0.00000000 -0.00000000 1.00000000
vn -0.00000000 1.00000000 0.00000000
vn -0.00000000 -0.00000000 -1.00000000
vn -0.00000000 1.00000000 0.00000000
vn 1.00000000 0.00000000 0.00000000
vn 1.00000000 0.00000000 0.00000000
f 2/1/1 4/1/1 1/1/1
f 5/1/2 2/1/2 1/1/2
f 1/1/3 4/1/3 3/1/3
f 3/1/4 5/1/4 1/1/4
f 2/1/5 8/1/5 4/1/5
f 6/1/6 2/1/6 5/1/6
f 6/1/7 8/1/7 2/1/7
f 4/1/8 8/1/8 3/1/8
f 7/1/9 5/1/9 3/1/9
f 3/1/10 8/1/10 7/1/10
f 7/1/11 6/1/11 5/1/11
f 8/1/12 6/1/12 7/1/12
f 10/1/13 12/1/13 9/1/13
f 13/1/14 10/1/14 9/1/14
f 9/1/15 12/1/15 11/1/15
f 11/1/16 13/1/16 9/1/16
f 10/1/17 16/1/17 12/1/17
f 14/1/18 10/1/18 13/1/18
f 14/1/19 16/1/19 10/1/19
f 12/1/20 16/1/20 11/1/20
f 15/1/21 13/1/21 11/1/21
f 11/1/22 16/1/22 15/1/22
f 15/1/23 14/1/23 13/1/23
f 16/1/24 14/1/24 15/1/24
f 18/1/25 17/1/25 21/1/25
f 18/1/26 21/1/26 19/1/26
f 19/1/27 21/1/27 22/1/27
f 19/1/28 22/1/28 20/1/28
f 21/1/29 17/1/29 23/1/29
f 21/1/30 23/1/30 22/1/30
f 22/1/31 23/1/31 24/1/31
f 22/1/32 24/1/32 20/1/32
f 23/1/33 17/1/33 25/1/33
f 23/1/34 25/1/34 24/1/34
f 24/1/35 25/1/35 26/1/35
f 24/1/36 26/1/36 20/1/36
f 25/1/37 17/1/37 27/1/37
f 25/1/38 27/1/38 26/1/38
f 26/1/39 27/1/39 28/1/39
f 26/1/40 28/1/40 20/1/40
f 27/1/41 17/1/41 29/1/41
f 27/1/42 29/1/42 28/1/42
f 28/1/43 29/1/43 30/1/43
f 28/1/44 30/1/44 20/1/44
f 29/1/45 17/1/45 31/1/45
f 29/1/46 31/1/46 30/1/46
f 30/1/47 31/1/47 32/1/47
f 30/1/48 32/1/48 20/1/48
f 31/1/49 17/1/49 33/1/49
f 31/1/50 33/1/50 32/1/50
f 32/1/51 33/1/51 34/1/51
f 32/1/52 34/1/52 20/1/52
f 33/1/53 17/1/53 35/1/53
f 33/1/54 35/1/54 34/1/54
f 34/1/55 35/1/55 36/1/55
f 34/1/56 36/1/56 20/1/56
f 35/1/57 17/1/57 37/1/57
f 35/1/58 37/1/58 36/1/58
f 36/1/59 37/1/59 38/1/59
f 36/1/60 38/1/60 20/1/60
f 37/1/61 17/1/61 39/1/61
f 37/1/62 39/1/62 38/1/62
f 38/1/63 39/1/63 40/1/63
f 38/1/64 40/1/64 20/1/64
f 39/1/65 17/1/65 41/1/65
f 39/1/66 41/1/66 40/1/66
f 40/1/67 41/1/67 42/1/67
f 40/1/68 42/1/68 20/1/68
f 41/1/69 17/1/69 18/1/69
f 41/1/70 18/1/70 42/1/70
f 42/1/71 18/1/71 19/1/71
f 42/1/72 19/1/72 20/1/72
f 44/2/73 43/2/73 47/2/73
f 44/2/74 47/2/74 45/2/74
f 45/2/75 47/2/75 48/2/75
f 45/2/76 48/2/76 46/2/76
f 47/2/77 43/2/77 49/2/77
f 47/2/78 49/2/78 48/2/78
f 48/2/79 49/2/79 50/2/79
f 48/2/80 50/2/80 46/2/80
f 49/2/81 43/2/81 51/2/81
f 49/2/82 51/2/82 50/2/82
f 50/2/83 51/2/83 52/2/83
f 50/2/84 52/2/84 46/2/84
f 51/2/85 43/2/85 53/2/85
f 51/2/86 53/2/86 52/2/86
f 52/2/87 53/2/87 54/2/87
f 52/2/88 54/2/88 46/2/88
f 53/2/89 43/2/89 55/2/89
f 53/2/90 55/2/90 54/2/90
f 54/2/91 55/2/91 56/2/91
f 54/2/92 56/2/92 46/2/92
f 55/2/93 43/2/93 57/2/93
f 55/2/94 57/2/94 56/2/94
f 56/2/95 57/2/95 58/2/95
f 56/2/96 58/2/96 46/2/96
f 57/2/97 43/2/97 59/2/97
f 57/2/98 59/2/98 58/2/98
f 58/2/99 59/2/99 60/2/99
f 58/2/100 60/2/100 46/2/100
f 59/2/101 43/2/101 44/2/101
f 59/2/102 44/2/102 60/2/102
f 60/2/103 44/2/103 45/2/103
f 60/2/104 45/2/104 46/2/104
f 61/2/105 66/2/105 62/2/105
f 62/2/106 66/2/106 67/2/106
f 62/2/107 67/2/107 63/2/107
f 63/2/108 67/2/108 68/2/108
f 63/2/109 68/2/109 64/2/109
f 64/2/110 68/2/110 69/2/110
f 64/2/111 69/2/111 65/2/111
f 65/2/112 69/2/112 70/2/112
f 65/2/113 70/2/113 61/2/113
f 61/2/114 70/2/114 66/2/114
f 66/2/115 71/2/115 67/2/115
f 67/2/116 71/2/116 72/2/116
f 67/2/117 72/2/117 68/2/117
f 68/2/118 72/2/118 73/2/118
f 68/2/119 73/2/119 69/2/119
f 69/2/120 73/2/120 74/2/120
f 69/2/121 74/2/121 70/2/121
f 70/2/122 74/2/122 75/2/122
f 70/2/123 75/2/123 66/2/123
f 66/2/124 75/2/124 71/2/124
f 71/2/125 76/2/125 72/2/125
f 72/2/126 76/2/126 77/2/126
f 72/2/127 77/2/127 73/2/127
f 73/2/128 77/2/128 78/2/128
f 73/2/129 78/2/129 74/2/129
f 74/2/130 78/2/130 79/2/130
f 74/2/131 79/2/131 75/2/131
f 75/2/132 79/2/132 80/2/132
f 75/2/133 80/2/133 71/2/133
f 71/2/134 80/2/134 76/2/134
f 76/2/135 81/2/135 77/2/135
f 77/2/136 81/2/136 82/2/136
f 77/2/137 82/2/137 78/2/137
f 78/2/138 82/2/138 83/2/138
f 78/2/139 83/2/139 79/2/139
f 79/2/140 83/2/140 84/2/140
f 79/2/141 84/2/141 80/2/141
f 80/2/142 84/2/142 85/2/142
f 80/2/143 85/2/143 76/2/143
f 76/2/144 85/2/144 81/2/144
f 81/2/145 86/2/145 82/2/145
f 82/2/146 86/2/146 87/2/146
f 82/2/147 87/2/147 83/2/147
f 83/2/148 87/2/148 88/2/148
f 83/2/149 88/2/149 84/2/149
f 84/2/150 88/2/150 89/2/150
f 84/2/151 89/2/151 85/2/151
f 85/2/152 89/2/152 90/2/152
f 85/2/153 90/2/153 81/2/153
f 81/2/154 90/2/154 86/2/154
f 86/2/155 91/2/155 87/2/155
f 87/2/156 91/2/156 92/2/156
f 87/2/157 92/2/157 88/2/157
f 88/2/158 92/2/158 93/2/158
f 88/2/159 93/2/159 89/2/159
f 89/2/160 93/2/160 94/2/160
f 89/2/161 94/2/161 90/2/161
f 90/2/162 94/2/162 95/2/162
f 90/2/163 95/2/163 86/2/163
f 86/2/164 95/2/164 91/2/164
f 91/2/165 96/2/165 92/2/165
f 92/2/166 96/2/166 97/2/166
f 92/2/167 97/2/167 93/2/167
f 93/2/168 97/2/168 98/2/168
f 93/2/169 98/2/169 94/2/169
f 94/2/170 98/2/170 99/2/170
f 94/2/171 99/2/171 95/2/171
f 95/2/172 99/2/172 100/2/172
f 95/2/173 100/2/173 91/2/173
f 91/2/174 100/2/174 96/2/174
f 96/2/175 101/2/175 97/2/175
f 97/2/176 101/2/176 102/2/176
f 97/2/177 102/2/177 98/2/177
f 98/2/178 102/2/178 103/2/178
f 98/2/179 103/2/179 99/2/179
f 99/2/180 103/2/180 104/2/180
f 99/2/181 104/2/181 100/2/181
f 100/2/182 104/2/182 105/2/182
f 100/2/183 105/2/183 96/2/183
f 96/2/184 105/2/184 101/2/184
f 101/2/185 106/2/185 102/2/185
f 102/2/186 106/2/186 107/2/186
f 102/2/187 107/2/187 103/2/187
f 103/2/188 107/2/188 108/2/188
f 103/2/189 108/2/189 104/2/189
f 104/2/190 108/2/190 109/2/190
f 104/2/191 109/2/191 105/2/191
f 105/2/192 109/2/192 110/2/192
f 105/2/193 110/2/193 101/2/193
f 101/2/194 110/2/194 106/2/194
f 106/2/195 111/2/195 107/2/195
f 107/2/196 111/2/196 112/2/196
f 107/2/197 112/2/197 108/2/197
f 108/2/198 112/2/198 113/2/198
f 108/2/199 113/2/199 109/2/199
f 109/2/200 113/2/200 114/2/200
f 109/2/201 114/2/201 110/2/201
f 110/2/202 114/2/202 115/2/202
f 110/2/203 115/2/203 106/2/203
f 106/2/204 115/2/204 111/2/204
f 111/2/205 116/2/205 112/2/205
f 112/2/206 116/2/206 117/2/206
f 112/2/207 117/2/207 113/2/207
f 113/2/208 117/2/208 118/2/208
f 113/2/209 118/2/209 114/2/209
f 114/2/210 118/2/210 119/2/210
f 114/2/211 119/2/211 115/2/211
f 115/2/212 119/2/212 120/2/212
f 115/2/213 120/2/213 111/2/213
f 111/2/214 120/2/214 116/2/214
f 116/2/215 61/2/215 117/2/215
f 117/2/216 61/2/216 62/2/216
f 117/2/217 62/2/217 118/2/217
f 118/2/218 62/2/218 63/2/218
f 118/2/219 63/2/219 119/2/219
f 119/2/220 63/2/220 64/2/220
f 119/2/221 64/2/221 120/2/221
f 120/2/222 64/2/222 65/2/222
f 120/2/223 65/2/223 116/2/223
f 116/2/224 65/2/224 61/2/224
f 122/2/225 124/2/225 121/2/225
f 125/2/226 122/2/226 121/2/226
f 121/2/227 124/2/227 123/2/227
f 123/2/228 125/2/228 121/2/228
f 122/2/229 128/2/229 124/2/229
f 126/2/230 122/2/230 125/2/230
f 126/2/231 128/2/231 122/2/231
f 124/2/232 128/2/232 123/2/232
f 127/2/233 125/2/233 123/2/233
f 123/2/234 128/2/234 127/2/234
f 127/2/235 126/2/235 125/2/235
f 128/2/236 126/2/236 127/2/236
f 130/7/237 132/7/237 129/7/237
f 133/7/238 130/7/238 129/7/238
f 129/7/239 132/7/239 131/7/239
f 131/7/240 133/7/240 129/7/240
f 130/7/241 136/7/241 132/7/241
f 134/7/242 130/7/242 133/7/242
f 134/7/243 136/7/243 130/7/243
f 132/7/244 136/7/244 131/7/244
f 135/7/245 133/7/245 131/7/245
f 131/7/246 136/7/246 135/7/246
f 135/7/247 134/7/247 133/7/247
f 136/7/248 134/7/248 135/7/248
