# Bastion Fabrication Hub — generated original low-poly asset
# Coordinates: meters, +Y up, +Z forward
mtllib Bastion_FabricationHub.mtl
o Bastion_FabricationHub_BeaconSpin
g Bastion_FabricationHub_BeaconSpin
usemtl BastionPalette
s off
vt 0.04545455 0.50000000
vt 0.13636364 0.50000000
vt 0.22727273 0.50000000
vt 0.31818182 0.50000000
vt 0.40909091 0.50000000
vt 0.50000000 0.50000000
vt 0.59090909 0.50000000
vt 0.68181818 0.50000000
vt 0.77272727 0.50000000
vt 0.86363636 0.50000000
vt 0.95454545 0.50000000
# piece Beacon_Base palette=Secondary
v 0.00000000 0.00000000 -0.00000000
v 0.36000000 0.00000000 -0.00000000
v 0.36000000 0.18000000 0.00000000
v 0.00000000 0.18000000 0.00000000
v 0.31176915 0.00000000 -0.18000000
v 0.31176915 0.18000000 -0.18000000
v 0.18000000 0.00000000 -0.31176915
v 0.18000000 0.18000000 -0.31176915
v 0.00000000 0.00000000 -0.36000000
v 0.00000000 0.18000000 -0.36000000
v -0.18000000 0.00000000 -0.31176915
v -0.18000000 0.18000000 -0.31176915
v -0.31176915 0.00000000 -0.18000000
v -0.31176915 0.18000000 -0.18000000
v -0.36000000 0.00000000 -0.00000000
v -0.36000000 0.18000000 -0.00000000
v -0.31176915 -0.00000000 0.18000000
v -0.31176915 0.18000000 0.18000000
v -0.18000000 -0.00000000 0.31176915
v -0.18000000 0.18000000 0.31176915
v -0.00000000 -0.00000000 0.36000000
v -0.00000000 0.18000000 0.36000000
v 0.18000000 -0.00000000 0.31176915
v 0.18000000 0.18000000 0.31176915
v 0.31176915 -0.00000000 0.18000000
v 0.31176915 0.18000000 0.18000000
vn -0.00000000 -1.00000000 -0.00000000
vn 0.96592583 0.00000000 -0.25881905
vn 0.96592583 0.00000000 -0.25881905
vn 0.00000000 1.00000000 0.00000000
vn 0.00000000 -1.00000000 -0.00000000
vn 0.70710678 0.00000000 -0.70710678
vn 0.70710678 0.00000000 -0.70710678
vn 0.00000000 1.00000000 0.00000000
vn -0.00000000 -1.00000000 -0.00000000
vn 0.25881905 0.00000000 -0.96592583
vn 0.25881905 0.00000000 -0.96592583
vn 0.00000000 1.00000000 0.00000000
vn 0.00000000 -1.00000000 -0.00000000
vn -0.25881905 0.00000000 -0.96592583
vn -0.25881905 0.00000000 -0.96592583
vn -0.00000000 1.00000000 0.00000000
vn -0.00000000 -1.00000000 -0.00000000
vn -0.70710678 0.00000000 -0.70710678
vn -0.70710678 0.00000000 -0.70710678
vn 0.00000000 1.00000000 -0.00000000
vn 0.00000000 -1.00000000 -0.00000000
vn -0.96592583 0.00000000 -0.25881905
vn -0.96592583 0.00000000 -0.25881905
vn 0.00000000 1.00000000 -0.00000000
vn 0.00000000 -1.00000000 -0.00000000
vn -0.96592583 -0.00000000 0.25881905
vn -0.96592583 0.00000000 0.25881905
vn -0.00000000 1.00000000 0.00000000
vn 0.00000000 -1.00000000 -0.00000000
vn -0.70710678 0.00000000 0.70710678
vn -0.70710678 0.00000000 0.70710678
vn -0.00000000 1.00000000 0.00000000
vn -0.00000000 -1.00000000 -0.00000000
vn -0.25881905 0.00000000 0.96592583
vn -0.25881905 0.00000000 0.96592583
vn 0.00000000 1.00000000 0.00000000
vn 0.00000000 -1.00000000 -0.00000000
vn 0.25881905 0.00000000 0.96592583
vn 0.25881905 -0.00000000 0.96592583
vn -0.00000000 1.00000000 0.00000000
vn -0.00000000 -1.00000000 -0.00000000
vn 0.70710678 0.00000000 0.70710678
vn 0.70710678 -0.00000000 0.70710678
vn 0.00000000 1.00000000 0.00000000
vn 0.00000000 -1.00000000 -0.00000000
vn 0.96592583 0.00000000 0.25881905
vn 0.96592583 -0.00000000 0.25881905
vn 0.00000000 1.00000000 0.00000000
# piece Beacon_Energy palette=Energy
v 0.48000000 0.25000000 0.00000000
v 0.43854102 0.19293661 0.00000000
v 0.37145898 0.21473288 0.00000000
v 0.37145898 0.28526712 -0.00000000
v 0.43854102 0.30706339 -0.00000000
v 0.44346218 0.25000000 0.18368805
v 0.40515907 0.19293661 0.16782238
v 0.34318335 0.21473288 0.14215120
v 0.34318335 0.28526712 0.14215120
v 0.40515907 0.30706339 0.16782238
v 0.33941125 0.25000000 0.33941125
v 0.31009533 0.19293661 0.31009533
v 0.26266116 0.21473288 0.26266116
v 0.26266116 0.28526712 0.26266116
v 0.31009533 0.30706339 0.31009533
v 0.18368805 0.25000000 0.44346218
v 0.16782238 0.19293661 0.40515907
v 0.14215120 0.21473288 0.34318335
v 0.14215120 0.28526712 0.34318335
v 0.16782238 0.30706339 0.40515907
v 0.00000000 0.25000000 0.48000000
v 0.00000000 0.19293661 0.43854102
v 0.00000000 0.21473288 0.37145898
v 0.00000000 0.28526712 0.37145898
v 0.00000000 0.30706339 0.43854102
v -0.18368805 0.25000000 0.44346218
v -0.16782238 0.19293661 0.40515907
v -0.14215120 0.21473288 0.34318335
v -0.14215120 0.28526712 0.34318335
v -0.16782238 0.30706339 0.40515907
v -0.33941125 0.25000000 0.33941125
v -0.31009533 0.19293661 0.31009533
v -0.26266116 0.21473288 0.26266116
v -0.26266116 0.28526712 0.26266116
v -0.31009533 0.30706339 0.31009533
v -0.44346218 0.25000000 0.18368805
v -0.40515907 0.19293661 0.16782238
v -0.34318335 0.21473288 0.14215120
v -0.34318335 0.28526712 0.14215120
v -0.40515907 0.30706339 0.16782238
v -0.48000000 0.25000000 0.00000000
v -0.43854102 0.19293661 0.00000000
v -0.37145898 0.21473288 0.00000000
v -0.37145898 0.28526712 0.00000000
v -0.43854102 0.30706339 0.00000000
v -0.44346218 0.25000000 -0.18368805
v -0.40515907 0.19293661 -0.16782238
v -0.34318335 0.21473288 -0.14215120
v -0.34318335 0.28526712 -0.14215120
v -0.40515907 0.30706339 -0.16782238
v -0.33941125 0.25000000 -0.33941125
v -0.31009533 0.19293661 -0.31009533
v -0.26266116 0.21473288 -0.26266116
v -0.26266116 0.28526712 -0.26266116
v -0.31009533 0.30706339 -0.31009533
v -0.18368805 0.25000000 -0.44346218
v -0.16782238 0.19293661 -0.40515907
v -0.14215120 0.21473288 -0.34318335
v -0.14215120 0.28526712 -0.34318335
v -0.16782238 0.30706339 -0.40515907
v -0.00000000 0.25000000 -0.48000000
v -0.00000000 0.19293661 -0.43854102
v -0.00000000 0.21473288 -0.37145898
v -0.00000000 0.28526712 -0.37145898
v -0.00000000 0.30706339 -0.43854102
v 0.18368805 0.25000000 -0.44346218
v 0.16782238 0.19293661 -0.40515907
v 0.14215120 0.21473288 -0.34318335
v 0.14215120 0.28526712 -0.34318335
v 0.16782238 0.30706339 -0.40515907
v 0.33941125 0.25000000 -0.33941125
v 0.31009533 0.19293661 -0.31009533
v 0.26266116 0.21473288 -0.26266116
v 0.26266116 0.28526712 -0.26266116
v 0.31009533 0.30706339 -0.31009533
v 0.44346218 0.25000000 -0.18368805
v 0.40515907 0.19293661 -0.16782238
v 0.34318335 0.21473288 -0.14215120
v 0.34318335 0.28526712 -0.14215120
v 0.40515907 0.30706339 -0.16782238
v -0.05000000 0.21000000 -0.54000000
v -0.05000000 0.21000000 0.54000000
v -0.05000000 0.31000000 -0.54000000
v -0.05000000 0.31000000 0.54000000
v 0.05000000 0.21000000 -0.54000000
v 0.05000000 0.21000000 0.54000000
v 0.05000000 0.31000000 -0.54000000
v 0.05000000 0.31000000 0.54000000
vn 0.79874085 -0.58031920 0.15887943
vn 0.79874085 -0.58031920 0.15887943
vn -0.30843487 -0.94926494 -0.06135151
vn -0.30843487 -0.94926494 -0.06135151
vn -0.98078528 0.00000000 -0.19509032
vn -0.98078528 0.00000000 -0.19509032
vn -0.30843487 0.94926494 -0.06135151
vn -0.30843487 0.94926494 -0.06135151
vn 0.79874085 0.58031920 0.15887943
vn 0.79874085 0.58031920 0.15887943
vn 0.67713980 -0.58031920 0.45245035
vn 0.67713980 -0.58031920 0.45245035
vn -0.26147846 -0.94926494 -0.17471432
vn -0.26147846 -0.94926494 -0.17471432
vn -0.83146961 0.00000000 -0.55557023
vn -0.83146961 0.00000000 -0.55557023
vn -0.26147846 0.94926494 -0.17471432
vn -0.26147846 0.94926494 -0.17471432
vn 0.67713980 0.58031920 0.45245035
vn 0.67713980 0.58031920 0.45245035
vn 0.45245035 -0.58031920 0.67713980
vn 0.45245035 -0.58031920 0.67713980
vn -0.17471432 -0.94926494 -0.26147846
vn -0.17471432 -0.94926494 -0.26147846
vn -0.55557023 0.00000000 -0.83146961
vn -0.55557023 0.00000000 -0.83146961
vn -0.17471432 0.94926494 -0.26147846
vn -0.17471432 0.94926494 -0.26147846
vn 0.45245035 0.58031920 0.67713980
vn 0.45245035 0.58031920 0.67713980
vn 0.15887943 -0.58031920 0.79874085
vn 0.15887943 -0.58031920 0.79874085
vn -0.06135151 -0.94926494 -0.30843487
vn -0.06135151 -0.94926494 -0.30843487
vn -0.19509032 0.00000000 -0.98078528
vn -0.19509032 0.00000000 -0.98078528
vn -0.06135151 0.94926494 -0.30843487
vn -0.06135151 0.94926494 -0.30843487
vn 0.15887943 0.58031920 0.79874085
vn 0.15887943 0.58031920 0.79874085
vn -0.15887943 -0.58031920 0.79874085
vn -0.15887943 -0.58031920 0.79874085
vn 0.06135151 -0.94926494 -0.30843487
vn 0.06135151 -0.94926494 -0.30843487
vn 0.19509032 0.00000000 -0.98078528
vn 0.19509032 0.00000000 -0.98078528
vn 0.06135151 0.94926494 -0.30843487
vn 0.06135151 0.94926494 -0.30843487
vn -0.15887943 0.58031920 0.79874085
vn -0.15887943 0.58031920 0.79874085
vn -0.45245035 -0.58031920 0.67713980
vn -0.45245035 -0.58031920 0.67713980
vn 0.17471432 -0.94926494 -0.26147846
vn 0.17471432 -0.94926494 -0.26147846
vn 0.55557023 0.00000000 -0.83146961
vn 0.55557023 0.00000000 -0.83146961
vn 0.17471432 0.94926494 -0.26147846
vn 0.17471432 0.94926494 -0.26147846
vn -0.45245035 0.58031920 0.67713980
vn -0.45245035 0.58031920 0.67713980
vn -0.67713980 -0.58031920 0.45245035
vn -0.67713980 -0.58031920 0.45245035
vn 0.26147846 -0.94926494 -0.17471432
vn 0.26147846 -0.94926494 -0.17471432
vn 0.83146961 0.00000000 -0.55557023
vn 0.83146961 0.00000000 -0.55557023
vn 0.26147846 0.94926494 -0.17471432
vn 0.26147846 0.94926494 -0.17471432
vn -0.67713980 0.58031920 0.45245035
vn -0.67713980 0.58031920 0.45245035
vn -0.79874085 -0.58031920 0.15887943
vn -0.79874085 -0.58031920 0.15887943
vn 0.30843487 -0.94926494 -0.06135151
vn 0.30843487 -0.94926494 -0.06135151
vn 0.98078528 0.00000000 -0.19509032
vn 0.98078528 -0.00000000 -0.19509032
vn 0.30843487 0.94926494 -0.06135151
vn 0.30843487 0.94926494 -0.06135151
vn -0.79874085 0.58031920 0.15887943
vn -0.79874085 0.58031920 0.15887943
vn -0.79874085 -0.58031920 -0.15887943
vn -0.79874085 -0.58031920 -0.15887943
vn 0.30843487 -0.94926494 0.06135151
vn 0.30843487 -0.94926494 0.06135151
vn 0.98078528 0.00000000 0.19509032
vn 0.98078528 -0.00000000 0.19509032
vn 0.30843487 0.94926494 0.06135151
vn 0.30843487 0.94926494 0.06135151
vn -0.79874085 0.58031920 -0.15887943
vn -0.79874085 0.58031920 -0.15887943
vn -0.67713980 -0.58031920 -0.45245035
vn -0.67713980 -0.58031920 -0.45245035
vn 0.26147846 -0.94926494 0.17471432
vn 0.26147846 -0.94926494 0.17471432
vn 0.83146961 0.00000000 0.55557023
vn 0.83146961 -0.00000000 0.55557023
vn 0.26147846 0.94926494 0.17471432
vn 0.26147846 0.94926494 0.17471432
vn -0.67713980 0.58031920 -0.45245035
vn -0.67713980 0.58031920 -0.45245035
vn -0.45245035 -0.58031920 -0.67713980
vn -0.45245035 -0.58031920 -0.67713980
vn 0.17471432 -0.94926494 0.26147846
vn 0.17471432 -0.94926494 0.26147846
vn 0.55557023 0.00000000 0.83146961
vn 0.55557023 -0.00000000 0.83146961
vn 0.17471432 0.94926494 0.26147846
vn 0.17471432 0.94926494 0.26147846
vn -0.45245035 0.58031920 -0.67713980
vn -0.45245035 0.58031920 -0.67713980
vn -0.15887943 -0.58031920 -0.79874085
vn -0.15887943 -0.58031920 -0.79874085
vn 0.06135151 -0.94926494 0.30843487
vn 0.06135151 -0.94926494 0.30843487
vn 0.19509032 0.00000000 0.98078528
vn 0.19509032 -0.00000000 0.98078528
vn 0.06135151 0.94926494 0.30843487
vn 0.06135151 0.94926494 0.30843487
vn -0.15887943 0.58031920 -0.79874085
vn -0.15887943 0.58031920 -0.79874085
vn 0.15887943 -0.58031920 -0.79874085
vn 0.15887943 -0.58031920 -0.79874085
vn -0.06135151 -0.94926494 0.30843487
vn -0.06135151 -0.94926494 0.30843487
vn -0.19509032 0.00000000 0.98078528
vn -0.19509032 0.00000000 0.98078528
vn -0.06135151 0.94926494 0.30843487
vn -0.06135151 0.94926494 0.30843487
vn 0.15887943 0.58031920 -0.79874085
vn 0.15887943 0.58031920 -0.79874085
vn 0.45245035 -0.58031920 -0.67713980
vn 0.45245035 -0.58031920 -0.67713980
vn -0.17471432 -0.94926494 0.26147846
vn -0.17471432 -0.94926494 0.26147846
vn -0.55557023 0.00000000 0.83146961
vn -0.55557023 0.00000000 0.83146961
vn -0.17471432 0.94926494 0.26147846
vn -0.17471432 0.94926494 0.26147846
vn 0.45245035 0.58031920 -0.67713980
vn 0.45245035 0.58031920 -0.67713980
vn 0.67713980 -0.58031920 -0.45245035
vn 0.67713980 -0.58031920 -0.45245035
vn -0.26147846 -0.94926494 0.17471432
vn -0.26147846 -0.94926494 0.17471432
vn -0.83146961 0.00000000 0.55557023
vn -0.83146961 0.00000000 0.55557023
vn -0.26147846 0.94926494 0.17471432
vn -0.26147846 0.94926494 0.17471432
vn 0.67713980 0.58031920 -0.45245035
vn 0.67713980 0.58031920 -0.45245035
vn 0.79874085 -0.58031920 -0.15887943
vn 0.79874085 -0.58031920 -0.15887943
vn -0.30843487 -0.94926494 0.06135151
vn -0.30843487 -0.94926494 0.06135151
vn -0.98078528 0.00000000 0.19509032
vn -0.98078528 0.00000000 0.19509032
vn -0.30843487 0.94926494 0.06135151
vn -0.30843487 0.94926494 0.06135151
vn 0.79874085 0.58031920 -0.15887943
vn 0.79874085 0.58031920 -0.15887943
vn -1.00000000 0.00000000 -0.00000000
vn -0.00000000 -1.00000000 -0.00000000
vn -1.00000000 0.00000000 0.00000000
vn -0.00000000 -0.00000000 -1.00000000
vn 0.00000000 -0.00000000 1.00000000
vn -0.00000000 -1.00000000 -0.00000000
vn 0.00000000 -0.00000000 1.00000000
vn -0.00000000 1.00000000 0.00000000
vn -0.00000000 -0.00000000 -1.00000000
vn -0.00000000 1.00000000 0.00000000
vn 1.00000000 0.00000000 0.00000000
vn 1.00000000 0.00000000 0.00000000
# piece Beacon_Accent palette=Accent
v -0.05000000 0.21000000 0.44000000
v 0.05000000 0.21000000 0.44000000
v -0.05000000 0.29000000 0.44000000
v 0.05000000 0.29000000 0.44000000
v -0.05000000 0.21000000 -0.44000000
v 0.05000000 0.21000000 -0.44000000
v -0.05000000 0.29000000 -0.44000000
v 0.05000000 0.29000000 -0.44000000
vn 0.00000000 -0.00000000 1.00000000
vn 0.00000000 -1.00000000 0.00000000
vn 0.00000000 -0.00000000 1.00000000
vn -1.00000000 0.00000000 -0.00000000
vn 1.00000000 0.00000000 0.00000000
vn -0.00000000 -1.00000000 0.00000000
vn 1.00000000 -0.00000000 0.00000000
vn 0.00000000 1.00000000 0.00000000
vn -1.00000000 -0.00000000 -0.00000000
vn 0.00000000 1.00000000 0.00000000
vn -0.00000000 -0.00000000 -1.00000000
vn -0.00000000 -0.00000000 -1.00000000
f 2/2/1 1/2/1 5/2/1
f 2/2/2 5/2/2 3/2/2
f 3/2/3 5/2/3 6/2/3
f 3/2/4 6/2/4 4/2/4
f 5/2/5 1/2/5 7/2/5
f 5/2/6 7/2/6 6/2/6
f 6/2/7 7/2/7 8/2/7
f 6/2/8 8/2/8 4/2/8
f 7/2/9 1/2/9 9/2/9
f 7/2/10 9/2/10 8/2/10
f 8/2/11 9/2/11 10/2/11
f 8/2/12 10/2/12 4/2/12
f 9/2/13 1/2/13 11/2/13
f 9/2/14 11/2/14 10/2/14
f 10/2/15 11/2/15 12/2/15
f 10/2/16 12/2/16 4/2/16
f 11/2/17 1/2/17 13/2/17
f 11/2/18 13/2/18 12/2/18
f 12/2/19 13/2/19 14/2/19
f 12/2/20 14/2/20 4/2/20
f 13/2/21 1/2/21 15/2/21
f 13/2/22 15/2/22 14/2/22
f 14/2/23 15/2/23 16/2/23
f 14/2/24 16/2/24 4/2/24
f 15/2/25 1/2/25 17/2/25
f 15/2/26 17/2/26 16/2/26
f 16/2/27 17/2/27 18/2/27
f 16/2/28 18/2/28 4/2/28
f 17/2/29 1/2/29 19/2/29
f 17/2/30 19/2/30 18/2/30
f 18/2/31 19/2/31 20/2/31
f 18/2/32 20/2/32 4/2/32
f 19/2/33 1/2/33 21/2/33
f 19/2/34 21/2/34 20/2/34
f 20/2/35 21/2/35 22/2/35
f 20/2/36 22/2/36 4/2/36
f 21/2/37 1/2/37 23/2/37
f 21/2/38 23/2/38 22/2/38
f 22/2/39 23/2/39 24/2/39
f 22/2/40 24/2/40 4/2/40
f 23/2/41 1/2/41 25/2/41
f 23/2/42 25/2/42 24/2/42
f 24/2/43 25/2/43 26/2/43
f 24/2/44 26/2/44 4/2/44
f 25/2/45 1/2/45 2/2/45
f 25/2/46 2/2/46 26/2/46
f 26/2/47 2/2/47 3/2/47
f 26/2/48 3/2/48 4/2/48
f 27/11/49 32/11/49 28/11/49
f 28/11/50 32/11/50 33/11/50
f 28/11/51 33/11/51 29/11/51
f 29/11/52 33/11/52 34/11/52
f 29/11/53 34/11/53 30/11/53
f 30/11/54 34/11/54 35/11/54
f 30/11/55 35/11/55 31/11/55
f 31/11/56 35/11/56 36/11/56
f 31/11/57 36/11/57 27/11/57
f 27/11/58 36/11/58 32/11/58
f 32/11/59 37/11/59 33/11/59
f 33/11/60 37/11/60 38/11/60
f 33/11/61 38/11/61 34/11/61
f 34/11/62 38/11/62 39/11/62
f 34/11/63 39/11/63 35/11/63
f 35/11/64 39/11/64 40/11/64
f 35/11/65 40/11/65 36/11/65
f 36/11/66 40/11/66 41/11/66
f 36/11/67 41/11/67 32/11/67
f 32/11/68 41/11/68 37/11/68
f 37/11/69 42/11/69 38/11/69
f 38/11/70 42/11/70 43/11/70
f 38/11/71 43/11/71 39/11/71
f 39/11/72 43/11/72 44/11/72
f 39/11/73 44/11/73 40/11/73
f 40/11/74 44/11/74 45/11/74
f 40/11/75 45/11/75 41/11/75
f 41/11/76 45/11/76 46/11/76
f 41/11/77 46/11/77 37/11/77
f 37/11/78 46/11/78 42/11/78
f 42/11/79 47/11/79 43/11/79
f 43/11/80 47/11/80 48/11/80
f 43/11/81 48/11/81 44/11/81
f 44/11/82 48/11/82 49/11/82
f 44/11/83 49/11/83 45/11/83
f 45/11/84 49/11/84 50/11/84
f 45/11/85 50/11/85 46/11/85
f 46/11/86 50/11/86 51/11/86
f 46/11/87 51/11/87 42/11/87
f 42/11/88 51/11/88 47/11/88
f 47/11/89 52/11/89 48/11/89
f 48/11/90 52/11/90 53/11/90
f 48/11/91 53/11/91 49/11/91
f 49/11/92 53/11/92 54/11/92
f 49/11/93 54/11/93 50/11/93
f 50/11/94 54/11/94 55/11/94
f 50/11/95 55/11/95 51/11/95
f 51/11/96 55/11/96 56/11/96
f 51/11/97 56/11/97 47/11/97
f 47/11/98 56/11/98 52/11/98
f 52/11/99 57/11/99 53/11/99
f 53/11/100 57/11/100 58/11/100
f 53/11/101 58/11/101 54/11/101
f 54/11/102 58/11/102 59/11/102
f 54/11/103 59/11/103 55/11/103
f 55/11/104 59/11/104 60/11/104
f 55/11/105 60/11/105 56/11/105
f 56/11/106 60/11/106 61/11/106
f 56/11/107 61/11/107 52/11/107
f 52/11/108 61/11/108 57/11/108
f 57/11/109 62/11/109 58/11/109
f 58/11/110 62/11/110 63/11/110
f 58/11/111 63/11/111 59/11/111
f 59/11/112 63/11/112 64/11/112
f 59/11/113 64/11/113 60/11/113
f 60/11/114 64/11/114 65/11/114
f 60/11/115 65/11/115 61/11/115
f 61/11/116 65/11/116 66/11/116
f 61/11/117 66/11/117 57/11/117
f 57/11/118 66/11/118 62/11/118
f 62/11/119 67/11/119 63/11/119
f 63/11/120 67/11/120 68/11/120
f 63/11/121 68/11/121 64/11/121
f 64/11/122 68/11/122 69/11/122
f 64/11/123 69/11/123 65/11/123
f 65/11/124 69/11/124 70/11/124
f 65/11/125 70/11/125 66/11/125
f 66/11/126 70/11/126 71/11/126
f 66/11/127 71/11/127 62/11/127
f 62/11/128 71/11/128 67/11/128
f 67/11/129 72/11/129 68/11/129
f 68/11/130 72/11/130 73/11/130
f 68/11/131 73/11/131 69/11/131
f 69/11/132 73/11/132 74/11/132
f 69/11/133 74/11/133 70/11/133
f 70/11/134 74/11/134 75/11/134
f 70/11/135 75/11/135 71/11/135
f 71/11/136 75/11/136 76/11/136
f 71/11/137 76/11/137 67/11/137
f 67/11/138 76/11/138 72/11/138
f 72/11/139 77/11/139 73/11/139
f 73/11/140 77/11/140 78/11/140
f 73/11/141 78/11/141 74/11/141
f 74/11/142 78/11/142 79/11/142
f 74/11/143 79/11/143 75/11/143
f 75/11/144 79/11/144 80/11/144
f 75/11/145 80/11/145 76/11/145
f 76/11/146 80/11/146 81/11/146
f 76/11/147 81/11/147 72/11/147
f 72/11/148 81/11/148 77/11/148
f 77/11/149 82/11/149 78/11/149
f 78/11/150 82/11/150 83/11/150
f 78/11/151 83/11/151 79/11/151
f 79/11/152 83/11/152 84/11/152
f 79/11/153 84/11/153 80/11/153
f 80/11/154 84/11/154 85/11/154
f 80/11/155 85/11/155 81/11/155
f 81/11/156 85/11/156 86/11/156
f 81/11/157 86/11/157 77/11/157
f 77/11/158 86/11/158 82/11/158
f 82/11/159 87/11/159 83/11/159
f 83/11/160 87/11/160 88/11/160
f 83/11/161 88/11/161 84/11/161
f 84/11/162 88/11/162 89/11/162
f 84/11/163 89/11/163 85/11/163
f 85/11/164 89/11/164 90/11/164
f 85/11/165 90/11/165 86/11/165
f 86/11/166 90/11/166 91/11/166
f 86/11/167 91/11/167 82/11/167
f 82/11/168 91/11/168 87/11/168
f 87/11/169 92/11/169 88/11/169
f 88/11/170 92/11/170 93/11/170
f 88/11/171 93/11/171 89/11/171
f 89/11/172 93/11/172 94/11/172
f 89/11/173 94/11/173 90/11/173
f 90/11/174 94/11/174 95/11/174
f 90/11/175 95/11/175 91/11/175
f 91/11/176 95/11/176 96/11/176
f 91/11/177 96/11/177 87/11/177
f 87/11/178 96/11/178 92/11/178
f 92/11/179 97/11/179 93/11/179
f 93/11/180 97/11/180 98/11/180
f 93/11/181 98/11/181 94/11/181
f 94/11/182 98/11/182 99/11/182
f 94/11/183 99/11/183 95/11/183
f 95/11/184 99/11/184 100/11/184
f 95/11/185 100/11/185 96/11/185
f 96/11/186 100/11/186 101/11/186
f 96/11/187 101/11/187 92/11/187
f 92/11/188 101/11/188 97/11/188
f 97/11/189 102/11/189 98/11/189
f 98/11/190 102/11/190 103/11/190
f 98/11/191 103/11/191 99/11/191
f 99/11/192 103/11/192 104/11/192
f 99/11/193 104/11/193 100/11/193
f 100/11/194 104/11/194 105/11/194
f 100/11/195 105/11/195 101/11/195
f 101/11/196 105/11/196 106/11/196
f 101/11/197 106/11/197 97/11/197
f 97/11/198 106/11/198 102/11/198
f 102/11/199 27/11/199 103/11/199
f 103/11/200 27/11/200 28/11/200
f 103/11/201 28/11/201 104/11/201
f 104/11/202 28/11/202 29/11/202
f 104/11/203 29/11/203 105/11/203
f 105/11/204 29/11/204 30/11/204
f 105/11/205 30/11/205 106/11/205
f 106/11/206 30/11/206 31/11/206
f 106/11/207 31/11/207 102/11/207
f 102/11/208 31/11/208 27/11/208
f 108/11/209 110/11/209 107/11/209
f 111/11/210 108/11/210 107/11/210
f 107/11/211 110/11/211 109/11/211
f 109/11/212 111/11/212 107/11/212
f 108/11/213 114/11/213 110/11/213
f 112/11/214 108/11/214 111/11/214
f 112/11/215 114/11/215 108/11/215
f 110/11/216 114/11/216 109/11/216
f 113/11/217 111/11/217 109/11/217
f 109/11/218 114/11/218 113/11/218
f 113/11/219 112/11/219 111/11/219
f 114/11/220 112/11/220 113/11/220
f 116/7/221 118/7/221 115/7/221
f 119/7/222 116/7/222 115/7/222
f 115/7/223 118/7/223 117/7/223
f 117/7/224 119/7/224 115/7/224
f 116/7/225 122/7/225 118/7/225
f 120/7/226 116/7/226 119/7/226
f 120/7/227 122/7/227 116/7/227
f 118/7/228 122/7/228 117/7/228
f 121/7/229 119/7/229 117/7/229
f 117/7/230 122/7/230 121/7/230
f 121/7/231 120/7/231 119/7/231
f 122/7/232 120/7/232 121/7/232
