# Bastion Fabrication Hub — generated original low-poly asset
# Coordinates: meters, +Y up, +Z forward
mtllib Bastion_FabricationHub.mtl
o Bastion_FabricationHub_AssemblyDoor
g Bastion_FabricationHub_AssemblyDoor
usemtl BastionPalette
s off
vt 0.04545455 0.50000000
vt 0.13636364 0.50000000
vt 0.22727273 0.50000000
vt 0.31818182 0.50000000
vt 0.40909091 0.50000000
vt 0.50000000 0.50000000
vt 0.59090909 0.50000000
vt 0.68181818 0.50000000
vt 0.77272727 0.50000000
vt 0.86363636 0.50000000
vt 0.95454545 0.50000000
# piece AssemblyDoor_Panel palette=Secondary
v -2.31000000 0.00000000 -0.08000000
v -2.31000000 0.00000000 0.08000000
v -2.31000000 2.62000000 -0.08000000
v -2.31000000 2.62000000 0.08000000
v 2.31000000 0.00000000 -0.08000000
v 2.31000000 0.00000000 0.08000000
v 2.31000000 2.62000000 -0.08000000
v 2.31000000 2.62000000 0.08000000
vn -1.00000000 0.00000000 -0.00000000
vn -0.00000000 -1.00000000 -0.00000000
vn -1.00000000 0.00000000 0.00000000
vn -0.00000000 -0.00000000 -1.00000000
vn 0.00000000 -0.00000000 1.00000000
vn -0.00000000 -1.00000000 -0.00000000
vn 0.00000000 -0.00000000 1.00000000
vn -0.00000000 1.00000000 0.00000000
vn -0.00000000 -0.00000000 -1.00000000
vn -0.00000000 1.00000000 0.00000000
vn 1.00000000 0.00000000 0.00000000
vn 1.00000000 0.00000000 0.00000000
# piece AssemblyDoor_Ribs palette=Roof
v -2.05000000 0.13500000 0.07000000
v -2.05000000 0.13500000 0.15000000
v -2.05000000 2.48500000 0.07000000
v -2.05000000 2.48500000 0.15000000
v -1.95000000 0.13500000 0.07000000
v -1.95000000 0.13500000 0.15000000
v -1.95000000 2.48500000 0.07000000
v -1.95000000 2.48500000 0.15000000
v -1.05000000 0.13500000 0.07000000
v -1.05000000 0.13500000 0.15000000
v -1.05000000 2.48500000 0.07000000
v -1.05000000 2.48500000 0.15000000
v -0.95000000 0.13500000 0.07000000
v -0.95000000 0.13500000 0.15000000
v -0.95000000 2.48500000 0.07000000
v -0.95000000 2.48500000 0.15000000
v -0.05000000 0.13500000 0.07000000
v -0.05000000 0.13500000 0.15000000
v -0.05000000 2.48500000 0.07000000
v -0.05000000 2.48500000 0.15000000
v 0.05000000 0.13500000 0.07000000
v 0.05000000 0.13500000 0.15000000
v 0.05000000 2.48500000 0.07000000
v 0.05000000 2.48500000 0.15000000
v 0.95000000 0.13500000 0.07000000
v 0.95000000 0.13500000 0.15000000
v 0.95000000 2.48500000 0.07000000
v 0.95000000 2.48500000 0.15000000
v 1.05000000 0.13500000 0.07000000
v 1.05000000 0.13500000 0.15000000
v 1.05000000 2.48500000 0.07000000
v 1.05000000 2.48500000 0.15000000
v 1.95000000 0.13500000 0.07000000
v 1.95000000 0.13500000 0.15000000
v 1.95000000 2.48500000 0.07000000
v 1.95000000 2.48500000 0.15000000
v 2.05000000 0.13500000 0.07000000
v 2.05000000 0.13500000 0.15000000
v 2.05000000 2.48500000 0.07000000
v 2.05000000 2.48500000 0.15000000
v -2.15000000 0.47000000 0.07000000
v -2.15000000 0.47000000 0.15000000
v -2.15000000 0.57000000 0.07000000
v -2.15000000 0.57000000 0.15000000
v 2.15000000 0.47000000 0.07000000
v 2.15000000 0.47000000 0.15000000
v 2.15000000 0.57000000 0.07000000
v 2.15000000 0.57000000 0.15000000
v -2.15000000 1.26000000 0.07000000
v -2.15000000 1.26000000 0.15000000
v -2.15000000 1.36000000 0.07000000
v -2.15000000 1.36000000 0.15000000
v 2.15000000 1.26000000 0.07000000
v 2.15000000 1.26000000 0.15000000
v 2.15000000 1.36000000 0.07000000
v 2.15000000 1.36000000 0.15000000
v -2.15000000 2.05000000 0.07000000
v -2.15000000 2.05000000 0.15000000
v -2.15000000 2.15000000 0.07000000
v -2.15000000 2.15000000 0.15000000
v 2.15000000 2.05000000 0.07000000
v 2.15000000 2.05000000 0.15000000
v 2.15000000 2.15000000 0.07000000
v 2.15000000 2.15000000 0.15000000
vn -1.00000000 0.00000000 -0.00000000
vn -0.00000000 -1.00000000 -0.00000000
vn -1.00000000 0.00000000 0.00000000
vn -0.00000000 -0.00000000 -1.00000000
vn 0.00000000 -0.00000000 1.00000000
vn -0.00000000 -1.00000000 -0.00000000
vn 0.00000000 -0.00000000 1.00000000
vn -0.00000000 1.00000000 0.00000000
vn -0.00000000 -0.00000000 -1.00000000
vn -0.00000000 1.00000000 0.00000000
vn 1.00000000 0.00000000 0.00000000
vn 1.00000000 0.00000000 0.00000000
vn -1.00000000 0.00000000 -0.00000000
vn -0.00000000 -1.00000000 -0.00000000
vn -1.00000000 0.00000000 0.00000000
vn -0.00000000 -0.00000000 -1.00000000
vn 0.00000000 -0.00000000 1.00000000
vn -0.00000000 -1.00000000 -0.00000000
vn 0.00000000 -0.00000000 1.00000000
vn -0.00000000 1.00000000 0.00000000
vn -0.00000000 -0.00000000 -1.00000000
vn -0.00000000 1.00000000 0.00000000
vn 1.00000000 0.00000000 0.00000000
vn 1.00000000 0.00000000 0.00000000
vn -1.00000000 0.00000000 -0.00000000
vn -0.00000000 -1.00000000 -0.00000000
vn -1.00000000 0.00000000 0.00000000
vn -0.00000000 -0.00000000 -1.00000000
vn 0.00000000 -0.00000000 1.00000000
vn -0.00000000 -1.00000000 -0.00000000
vn 0.00000000 -0.00000000 1.00000000
vn -0.00000000 1.00000000 0.00000000
vn -0.00000000 -0.00000000 -1.00000000
vn -0.00000000 1.00000000 0.00000000
vn 1.00000000 0.00000000 0.00000000
vn 1.00000000 0.00000000 0.00000000
vn -1.00000000 0.00000000 -0.00000000
vn -0.00000000 -1.00000000 -0.00000000
vn -1.00000000 0.00000000 0.00000000
vn -0.00000000 -0.00000000 -1.00000000
vn 0.00000000 -0.00000000 1.00000000
vn -0.00000000 -1.00000000 -0.00000000
vn 0.00000000 -0.00000000 1.00000000
vn -0.00000000 1.00000000 0.00000000
vn -0.00000000 -0.00000000 -1.00000000
vn -0.00000000 1.00000000 0.00000000
vn 1.00000000 0.00000000 0.00000000
vn 1.00000000 0.00000000 0.00000000
vn -1.00000000 0.00000000 -0.00000000
vn -0.00000000 -1.00000000 -0.00000000
vn -1.00000000 0.00000000 0.00000000
vn -0.00000000 -0.00000000 -1.00000000
vn 0.00000000 -0.00000000 1.00000000
vn -0.00000000 -1.00000000 -0.00000000
vn 0.00000000 -0.00000000 1.00000000
vn -0.00000000 1.00000000 0.00000000
vn -0.00000000 -0.00000000 -1.00000000
vn -0.00000000 1.00000000 0.00000000
vn 1.00000000 0.00000000 0.00000000
vn 1.00000000 0.00000000 0.00000000
vn -1.00000000 0.00000000 -0.00000000
vn -0.00000000 -1.00000000 -0.00000000
vn -1.00000000 0.00000000 0.00000000
vn -0.00000000 -0.00000000 -1.00000000
vn 0.00000000 -0.00000000 1.00000000
vn -0.00000000 -1.00000000 -0.00000000
vn 0.00000000 -0.00000000 1.00000000
vn -0.00000000 1.00000000 0.00000000
vn -0.00000000 -0.00000000 -1.00000000
vn -0.00000000 1.00000000 0.00000000
vn 1.00000000 0.00000000 0.00000000
vn 1.00000000 0.00000000 0.00000000
vn -1.00000000 0.00000000 -0.00000000
vn -0.00000000 -1.00000000 -0.00000000
vn -1.00000000 0.00000000 0.00000000
vn -0.00000000 -0.00000000 -1.00000000
vn 0.00000000 -0.00000000 1.00000000
vn -0.00000000 -1.00000000 -0.00000000
vn 0.00000000 -0.00000000 1.00000000
vn -0.00000000 1.00000000 0.00000000
vn -0.00000000 -0.00000000 -1.00000000
vn -0.00000000 1.00000000 0.00000000
vn 1.00000000 0.00000000 0.00000000
vn 1.00000000 0.00000000 0.00000000
vn -1.00000000 0.00000000 -0.00000000
vn -0.00000000 -1.00000000 -0.00000000
vn -1.00000000 0.00000000 0.00000000
vn -0.00000000 -0.00000000 -1.00000000
vn 0.00000000 -0.00000000 1.00000000
vn -0.00000000 -1.00000000 -0.00000000
vn 0.00000000 -0.00000000 1.00000000
vn -0.00000000 1.00000000 0.00000000
vn -0.00000000 -0.00000000 -1.00000000
vn -0.00000000 1.00000000 0.00000000
vn 1.00000000 0.00000000 0.00000000
vn 1.00000000 0.00000000 0.00000000
# piece AssemblyDoor_Hazard palette=Hazard
v -1.98000000 0.28000000 0.11500000
v -1.98000000 0.28000000 0.20500000
v -1.98000000 0.40000000 0.11500000
v -1.98000000 0.40000000 0.20500000
v 1.98000000 0.28000000 0.11500000
v 1.98000000 0.28000000 0.20500000
v 1.98000000 0.40000000 0.11500000
v 1.98000000 0.40000000 0.20500000
vn -1.00000000 0.00000000 -0.00000000
vn -0.00000000 -1.00000000 -0.00000000
vn -1.00000000 0.00000000 0.00000000
vn -0.00000000 -0.00000000 -1.00000000
vn 0.00000000 -0.00000000 1.00000000
vn -0.00000000 -1.00000000 -0.00000000
vn 0.00000000 -0.00000000 1.00000000
vn -0.00000000 1.00000000 0.00000000
vn -0.00000000 -0.00000000 -1.00000000
vn -0.00000000 1.00000000 0.00000000
vn 1.00000000 0.00000000 0.00000000
vn 1.00000000 0.00000000 0.00000000
f 2/2/1 4/2/1 1/2/1
f 5/2/2 2/2/2 1/2/2
f 1/2/3 4/2/3 3/2/3
f 3/2/4 5/2/4 1/2/4
f 2/2/5 8/2/5 4/2/5
f 6/2/6 2/2/6 5/2/6
f 6/2/7 8/2/7 2/2/7
f 4/2/8 8/2/8 3/2/8
f 7/2/9 5/2/9 3/2/9
f 3/2/10 8/2/10 7/2/10
f 7/2/11 6/2/11 5/2/11
f 8/2/12 6/2/12 7/2/12
f 10/4/13 12/4/13 9/4/13
f 13/4/14 10/4/14 9/4/14
f 9/4/15 12/4/15 11/4/15
f 11/4/16 13/4/16 9/4/16
f 10/4/17 16/4/17 12/4/17
f 14/4/18 10/4/18 13/4/18
f 14/4/19 16/4/19 10/4/19
f 12/4/20 16/4/20 11/4/20
f 15/4/21 13/4/21 11/4/21
f 11/4/22 16/4/22 15/4/22
f 15/4/23 14/4/23 13/4/23
f 16/4/24 14/4/24 15/4/24
f 18/4/25 20/4/25 17/4/25
f 21/4/26 18/4/26 17/4/26
f 17/4/27 20/4/27 19/4/27
f 19/4/28 21/4/28 17/4/28
f 18/4/29 24/4/29 20/4/29
f 22/4/30 18/4/30 21/4/30
f 22/4/31 24/4/31 18/4/31
f 20/4/32 24/4/32 19/4/32
f 23/4/33 21/4/33 19/4/33
f 19/4/34 24/4/34 23/4/34
f 23/4/35 22/4/35 21/4/35
f 24/4/36 22/4/36 23/4/36
f 26/4/37 28/4/37 25/4/37
f 29/4/38 26/4/38 25/4/38
f 25/4/39 28/4/39 27/4/39
f 27/4/40 29/4/40 25/4/40
f 26/4/41 32/4/41 28/4/41
f 30/4/42 26/4/42 29/4/42
f 30/4/43 32/4/43 26/4/43
f 28/4/44 32/4/44 27/4/44
f 31/4/45 29/4/45 27/4/45
f 27/4/46 32/4/46 31/4/46
f 31/4/47 30/4/47 29/4/47
f 32/4/48 30/4/48 31/4/48
f 34/4/49 36/4/49 33/4/49
f 37/4/50 34/4/50 33/4/50
f 33/4/51 36/4/51 35/4/51
f 35/4/52 37/4/52 33/4/52
f 34/4/53 40/4/53 36/4/53
f 38/4/54 34/4/54 37/4/54
f 38/4/55 40/4/55 34/4/55
f 36/4/56 40/4/56 35/4/56
f 39/4/57 37/4/57 35/4/57
f 35/4/58 40/4/58 39/4/58
f 39/4/59 38/4/59 37/4/59
f 40/4/60 38/4/60 39/4/60
f 42/4/61 44/4/61 41/4/61
f 45/4/62 42/4/62 41/4/62
f 41/4/63 44/4/63 43/4/63
f 43/4/64 45/4/64 41/4/64
f 42/4/65 48/4/65 44/4/65
f 46/4/66 42/4/66 45/4/66
f 46/4/67 48/4/67 42/4/67
f 44/4/68 48/4/68 43/4/68
f 47/4/69 45/4/69 43/4/69
f 43/4/70 48/4/70 47/4/70
f 47/4/71 46/4/71 45/4/71
f 48/4/72 46/4/72 47/4/72
f 50/4/73 52/4/73 49/4/73
f 53/4/74 50/4/74 49/4/74
f 49/4/75 52/4/75 51/4/75
f 51/4/76 53/4/76 49/4/76
f 50/4/77 56/4/77 52/4/77
f 54/4/78 50/4/78 53/4/78
f 54/4/79 56/4/79 50/4/79
f 52/4/80 56/4/80 51/4/80
f 55/4/81 53/4/81 51/4/81
f 51/4/82 56/4/82 55/4/82
f 55/4/83 54/4/83 53/4/83
f 56/4/84 54/4/84 55/4/84
f 58/4/85 60/4/85 57/4/85
f 61/4/86 58/4/86 57/4/86
f 57/4/87 60/4/87 59/4/87
f 59/4/88 61/4/88 57/4/88
f 58/4/89 64/4/89 60/4/89
f 62/4/90 58/4/90 61/4/90
f 62/4/91 64/4/91 58/4/91
f 60/4/92 64/4/92 59/4/92
f 63/4/93 61/4/93 59/4/93
f 59/4/94 64/4/94 63/4/94
f 63/4/95 62/4/95 61/4/95
f 64/4/96 62/4/96 63/4/96
f 66/4/97 68/4/97 65/4/97
f 69/4/98 66/4/98 65/4/98
f 65/4/99 68/4/99 67/4/99
f 67/4/100 69/4/100 65/4/100
f 66/4/101 72/4/101 68/4/101
f 70/4/102 66/4/102 69/4/102
f 70/4/103 72/4/103 66/4/103
f 68/4/104 72/4/104 67/4/104
f 71/4/105 69/4/105 67/4/105
f 67/4/106 72/4/106 71/4/106
f 71/4/107 70/4/107 69/4/107
f 72/4/108 70/4/108 71/4/108
f 74/8/109 76/8/109 73/8/109
f 77/8/110 74/8/110 73/8/110
f 73/8/111 76/8/111 75/8/111
f 75/8/112 77/8/112 73/8/112
f 74/8/113 80/8/113 76/8/113
f 78/8/114 74/8/114 77/8/114
f 78/8/115 80/8/115 74/8/115
f 76/8/116 80/8/116 75/8/116
f 79/8/117 77/8/117 75/8/117
f 75/8/118 80/8/118 79/8/118
f 79/8/119 78/8/119 77/8/119
f 80/8/120 78/8/120 79/8/120
