# Bastion Base Structures — generated original low-poly asset
# Coordinates: meters, +Y up, +Z forward
mtllib Bastion_Structures.mtl
o Bastion_WarFactory_LOD1
g Bastion_WarFactory_LOD1
usemtl BastionPalette
s off
vt 0.04545455 0.50000000
vt 0.13636364 0.50000000
vt 0.22727273 0.50000000
vt 0.31818182 0.50000000
vt 0.40909091 0.50000000
vt 0.50000000 0.50000000
vt 0.59090909 0.50000000
vt 0.68181818 0.50000000
vt 0.77272727 0.50000000
vt 0.86363636 0.50000000
vt 0.95454545 0.50000000
# piece WarFactory_LOD1_Pad palette=Concrete
v -5.10000000 0.00000000 -4.50000000
v -5.10000000 0.00000000 4.50000000
v -5.10000000 0.24000000 -4.50000000
v -5.10000000 0.24000000 4.50000000
v 5.10000000 0.00000000 -4.50000000
v 5.10000000 0.00000000 4.50000000
v 5.10000000 0.24000000 -4.50000000
v 5.10000000 0.24000000 4.50000000
vn -1.00000000 0.00000000 -0.00000000
vn -0.00000000 -1.00000000 -0.00000000
vn -1.00000000 0.00000000 0.00000000
vn -0.00000000 -0.00000000 -1.00000000
vn 0.00000000 -0.00000000 1.00000000
vn -0.00000000 -1.00000000 -0.00000000
vn 0.00000000 -0.00000000 1.00000000
vn -0.00000000 1.00000000 0.00000000
vn -0.00000000 -0.00000000 -1.00000000
vn -0.00000000 1.00000000 0.00000000
vn 1.00000000 0.00000000 0.00000000
vn 1.00000000 0.00000000 0.00000000
# piece WarFactory_LOD1_Hall palette=Armor
v -4.10000000 0.17000000 -3.85000000
v -4.10000000 0.17000000 2.75000000
v -4.10000000 3.87000000 -3.85000000
v -4.10000000 3.87000000 2.75000000
v 4.10000000 0.17000000 -3.85000000
v 4.10000000 0.17000000 2.75000000
v 4.10000000 3.87000000 -3.85000000
v 4.10000000 3.87000000 2.75000000
vn -1.00000000 0.00000000 -0.00000000
vn -0.00000000 -1.00000000 -0.00000000
vn -1.00000000 0.00000000 0.00000000
vn -0.00000000 -0.00000000 -1.00000000
vn 0.00000000 -0.00000000 1.00000000
vn -0.00000000 -1.00000000 -0.00000000
vn 0.00000000 -0.00000000 1.00000000
vn -0.00000000 1.00000000 0.00000000
vn -0.00000000 -0.00000000 -1.00000000
vn -0.00000000 1.00000000 0.00000000
vn 1.00000000 0.00000000 0.00000000
vn 1.00000000 0.00000000 0.00000000
# piece WarFactory_LOD1_Door palette=Secondary
v -2.67500000 0.28000000 2.93000000
v -2.67500000 0.28000000 3.11000000
v -2.67500000 3.38000000 2.93000000
v -2.67500000 3.38000000 3.11000000
v 2.67500000 0.28000000 2.93000000
v 2.67500000 0.28000000 3.11000000
v 2.67500000 3.38000000 2.93000000
v 2.67500000 3.38000000 3.11000000
vn -1.00000000 0.00000000 -0.00000000
vn -0.00000000 -1.00000000 -0.00000000
vn -1.00000000 0.00000000 0.00000000
vn -0.00000000 -0.00000000 -1.00000000
vn 0.00000000 -0.00000000 1.00000000
vn -0.00000000 -1.00000000 -0.00000000
vn 0.00000000 -0.00000000 1.00000000
vn -0.00000000 1.00000000 0.00000000
vn -0.00000000 -0.00000000 -1.00000000
vn -0.00000000 1.00000000 0.00000000
vn 1.00000000 0.00000000 0.00000000
vn 1.00000000 0.00000000 0.00000000
# piece WarFactory_LOD1_Buttresses palette=Armor
v -4.24000000 0.12000000 2.22500000
v -4.24000000 0.12000000 4.07500000
v -4.24000000 4.32000000 2.22500000
v -4.24000000 4.32000000 4.07500000
v -2.86000000 0.12000000 2.22500000
v -2.86000000 0.12000000 4.07500000
v -2.86000000 4.32000000 2.22500000
v -2.86000000 4.32000000 4.07500000
v 2.86000000 0.12000000 2.22500000
v 2.86000000 0.12000000 4.07500000
v 2.86000000 4.32000000 2.22500000
v 2.86000000 4.32000000 4.07500000
v 4.24000000 0.12000000 2.22500000
v 4.24000000 0.12000000 4.07500000
v 4.24000000 4.32000000 2.22500000
v 4.24000000 4.32000000 4.07500000
vn -1.00000000 0.00000000 -0.00000000
vn -0.00000000 -1.00000000 -0.00000000
vn -1.00000000 0.00000000 0.00000000
vn -0.00000000 -0.00000000 -1.00000000
vn 0.00000000 -0.00000000 1.00000000
vn -0.00000000 -1.00000000 -0.00000000
vn 0.00000000 -0.00000000 1.00000000
vn -0.00000000 1.00000000 0.00000000
vn -0.00000000 -0.00000000 -1.00000000
vn -0.00000000 1.00000000 0.00000000
vn 1.00000000 0.00000000 0.00000000
vn 1.00000000 0.00000000 0.00000000
vn -1.00000000 0.00000000 -0.00000000
vn -0.00000000 -1.00000000 -0.00000000
vn -1.00000000 0.00000000 0.00000000
vn -0.00000000 -0.00000000 -1.00000000
vn 0.00000000 -0.00000000 1.00000000
vn -0.00000000 -1.00000000 -0.00000000
vn 0.00000000 -0.00000000 1.00000000
vn -0.00000000 1.00000000 0.00000000
vn -0.00000000 -0.00000000 -1.00000000
vn -0.00000000 1.00000000 0.00000000
vn 1.00000000 0.00000000 0.00000000
vn 1.00000000 0.00000000 0.00000000
f 2/3/1 4/3/1 1/3/1
f 5/3/2 2/3/2 1/3/2
f 1/3/3 4/3/3 3/3/3
f 3/3/4 5/3/4 1/3/4
f 2/3/5 8/3/5 4/3/5
f 6/3/6 2/3/6 5/3/6
f 6/3/7 8/3/7 2/3/7
f 4/3/8 8/3/8 3/3/8
f 7/3/9 5/3/9 3/3/9
f 3/3/10 8/3/10 7/3/10
f 7/3/11 6/3/11 5/3/11
f 8/3/12 6/3/12 7/3/12
f 10/1/13 12/1/13 9/1/13
f 13/1/14 10/1/14 9/1/14
f 9/1/15 12/1/15 11/1/15
f 11/1/16 13/1/16 9/1/16
f 10/1/17 16/1/17 12/1/17
f 14/1/18 10/1/18 13/1/18
f 14/1/19 16/1/19 10/1/19
f 12/1/20 16/1/20 11/1/20
f 15/1/21 13/1/21 11/1/21
f 11/1/22 16/1/22 15/1/22
f 15/1/23 14/1/23 13/1/23
f 16/1/24 14/1/24 15/1/24
f 18/2/25 20/2/25 17/2/25
f 21/2/26 18/2/26 17/2/26
f 17/2/27 20/2/27 19/2/27
f 19/2/28 21/2/28 17/2/28
f 18/2/29 24/2/29 20/2/29
f 22/2/30 18/2/30 21/2/30
f 22/2/31 24/2/31 18/2/31
f 20/2/32 24/2/32 19/2/32
f 23/2/33 21/2/33 19/2/33
f 19/2/34 24/2/34 23/2/34
f 23/2/35 22/2/35 21/2/35
f 24/2/36 22/2/36 23/2/36
f 26/1/37 28/1/37 25/1/37
f 29/1/38 26/1/38 25/1/38
f 25/1/39 28/1/39 27/1/39
f 27/1/40 29/1/40 25/1/40
f 26/1/41 32/1/41 28/1/41
f 30/1/42 26/1/42 29/1/42
f 30/1/43 32/1/43 26/1/43
f 28/1/44 32/1/44 27/1/44
f 31/1/45 29/1/45 27/1/45
f 27/1/46 32/1/46 31/1/46
f 31/1/47 30/1/47 29/1/47
f 32/1/48 30/1/48 31/1/48
f 34/1/49 36/1/49 33/1/49
f 37/1/50 34/1/50 33/1/50
f 33/1/51 36/1/51 35/1/51
f 35/1/52 37/1/52 33/1/52
f 34/1/53 40/1/53 36/1/53
f 38/1/54 34/1/54 37/1/54
f 38/1/55 40/1/55 34/1/55
f 36/1/56 40/1/56 35/1/56
f 39/1/57 37/1/57 35/1/57
f 35/1/58 40/1/58 39/1/58
f 39/1/59 38/1/59 37/1/59
f 40/1/60 38/1/60 39/1/60
