# Bastion Base Structures — generated original low-poly asset
# Coordinates: meters, +Y up, +Z forward
mtllib Bastion_Structures.mtl
o Bastion_Turret_WeaponPitch
g Bastion_Turret_WeaponPitch
usemtl BastionPalette
s off
vt 0.04545455 0.50000000
vt 0.13636364 0.50000000
vt 0.22727273 0.50000000
vt 0.31818182 0.50000000
vt 0.40909091 0.50000000
vt 0.50000000 0.50000000
vt 0.59090909 0.50000000
vt 0.68181818 0.50000000
vt 0.77272727 0.50000000
vt 0.86363636 0.50000000
vt 0.95454545 0.50000000
# piece TurretGun_Weapon palette=Weapon
v 0.00000000 0.00000000 0.01500000
v 0.20000000 0.00000000 0.01500000
v 0.20000000 0.00000000 2.66500000
v 0.00000000 0.00000000 2.66500000
v 0.17320508 0.10000000 0.01500000
v 0.17320508 0.10000000 2.66500000
v 0.10000000 0.17320508 0.01500000
v 0.10000000 0.17320508 2.66500000
v 0.00000000 0.20000000 0.01500000
v 0.00000000 0.20000000 2.66500000
v -0.10000000 0.17320508 0.01500000
v -0.10000000 0.17320508 2.66500000
v -0.17320508 0.10000000 0.01500000
v -0.17320508 0.10000000 2.66500000
v -0.20000000 0.00000000 0.01500000
v -0.20000000 0.00000000 2.66500000
v -0.17320508 -0.10000000 0.01500000
v -0.17320508 -0.10000000 2.66500000
v -0.10000000 -0.17320508 0.01500000
v -0.10000000 -0.17320508 2.66500000
v -0.00000000 -0.20000000 0.01500000
v -0.00000000 -0.20000000 2.66500000
v 0.10000000 -0.17320508 0.01500000
v 0.10000000 -0.17320508 2.66500000
v 0.17320508 -0.10000000 0.01500000
v 0.17320508 -0.10000000 2.66500000
v 0.00000000 0.00000000 -0.02500000
v 0.27000000 0.00000000 -0.02500000
v 0.27000000 0.00000000 0.52500000
v 0.00000000 0.00000000 0.52500000
v 0.23382686 0.13500000 -0.02500000
v 0.23382686 0.13500000 0.52500000
v 0.13500000 0.23382686 -0.02500000
v 0.13500000 0.23382686 0.52500000
v 0.00000000 0.27000000 -0.02500000
v 0.00000000 0.27000000 0.52500000
v -0.13500000 0.23382686 -0.02500000
v -0.13500000 0.23382686 0.52500000
v -0.23382686 0.13500000 -0.02500000
v -0.23382686 0.13500000 0.52500000
v -0.27000000 0.00000000 -0.02500000
v -0.27000000 0.00000000 0.52500000
v -0.23382686 -0.13500000 -0.02500000
v -0.23382686 -0.13500000 0.52500000
v -0.13500000 -0.23382686 -0.02500000
v -0.13500000 -0.23382686 0.52500000
v -0.00000000 -0.27000000 -0.02500000
v -0.00000000 -0.27000000 0.52500000
v 0.13500000 -0.23382686 -0.02500000
v 0.13500000 -0.23382686 0.52500000
v 0.23382686 -0.13500000 -0.02500000
v 0.23382686 -0.13500000 0.52500000
vn 0.00000000 0.00000000 -1.00000000
vn 0.96592583 0.25881905 0.00000000
vn 0.96592583 0.25881905 -0.00000000
vn 0.00000000 0.00000000 1.00000000
vn -0.00000000 0.00000000 -1.00000000
vn 0.70710678 0.70710678 0.00000000
vn 0.70710678 0.70710678 -0.00000000
vn 0.00000000 0.00000000 1.00000000
vn -0.00000000 0.00000000 -1.00000000
vn 0.25881905 0.96592583 0.00000000
vn 0.25881905 0.96592583 -0.00000000
vn 0.00000000 0.00000000 1.00000000
vn -0.00000000 0.00000000 -1.00000000
vn -0.25881905 0.96592583 0.00000000
vn -0.25881905 0.96592583 0.00000000
vn 0.00000000 0.00000000 1.00000000
vn -0.00000000 -0.00000000 -1.00000000
vn -0.70710678 0.70710678 0.00000000
vn -0.70710678 0.70710678 0.00000000
vn 0.00000000 0.00000000 1.00000000
vn -0.00000000 -0.00000000 -1.00000000
vn -0.96592583 0.25881905 0.00000000
vn -0.96592583 0.25881905 0.00000000
vn 0.00000000 0.00000000 1.00000000
vn 0.00000000 -0.00000000 -1.00000000
vn -0.96592583 -0.25881905 0.00000000
vn -0.96592583 -0.25881905 0.00000000
vn -0.00000000 0.00000000 1.00000000
vn 0.00000000 -0.00000000 -1.00000000
vn -0.70710678 -0.70710678 0.00000000
vn -0.70710678 -0.70710678 0.00000000
vn -0.00000000 0.00000000 1.00000000
vn 0.00000000 -0.00000000 -1.00000000
vn -0.25881905 -0.96592583 0.00000000
vn -0.25881905 -0.96592583 0.00000000
vn -0.00000000 0.00000000 1.00000000
vn 0.00000000 0.00000000 -1.00000000
vn 0.25881905 -0.96592583 0.00000000
vn 0.25881905 -0.96592583 0.00000000
vn 0.00000000 -0.00000000 1.00000000
vn 0.00000000 0.00000000 -1.00000000
vn 0.70710678 -0.70710678 0.00000000
vn 0.70710678 -0.70710678 0.00000000
vn 0.00000000 -0.00000000 1.00000000
vn 0.00000000 0.00000000 -1.00000000
vn 0.96592583 -0.25881905 0.00000000
vn 0.96592583 -0.25881905 0.00000000
vn 0.00000000 -0.00000000 1.00000000
vn 0.00000000 0.00000000 -1.00000000
vn 0.96592583 0.25881905 0.00000000
vn 0.96592583 0.25881905 -0.00000000
vn 0.00000000 0.00000000 1.00000000
vn -0.00000000 0.00000000 -1.00000000
vn 0.70710678 0.70710678 0.00000000
vn 0.70710678 0.70710678 -0.00000000
vn 0.00000000 0.00000000 1.00000000
vn -0.00000000 0.00000000 -1.00000000
vn 0.25881905 0.96592583 0.00000000
vn 0.25881905 0.96592583 -0.00000000
vn 0.00000000 0.00000000 1.00000000
vn -0.00000000 0.00000000 -1.00000000
vn -0.25881905 0.96592583 0.00000000
vn -0.25881905 0.96592583 0.00000000
vn 0.00000000 0.00000000 1.00000000
vn -0.00000000 -0.00000000 -1.00000000
vn -0.70710678 0.70710678 0.00000000
vn -0.70710678 0.70710678 0.00000000
vn 0.00000000 0.00000000 1.00000000
vn -0.00000000 -0.00000000 -1.00000000
vn -0.96592583 0.25881905 0.00000000
vn -0.96592583 0.25881905 0.00000000
vn 0.00000000 0.00000000 1.00000000
vn 0.00000000 -0.00000000 -1.00000000
vn -0.96592583 -0.25881905 0.00000000
vn -0.96592583 -0.25881905 0.00000000
vn -0.00000000 0.00000000 1.00000000
vn 0.00000000 -0.00000000 -1.00000000
vn -0.70710678 -0.70710678 0.00000000
vn -0.70710678 -0.70710678 0.00000000
vn -0.00000000 0.00000000 1.00000000
vn 0.00000000 -0.00000000 -1.00000000
vn -0.25881905 -0.96592583 0.00000000
vn -0.25881905 -0.96592583 0.00000000
vn -0.00000000 0.00000000 1.00000000
vn 0.00000000 0.00000000 -1.00000000
vn 0.25881905 -0.96592583 0.00000000
vn 0.25881905 -0.96592583 0.00000000
vn 0.00000000 -0.00000000 1.00000000
vn 0.00000000 0.00000000 -1.00000000
vn 0.70710678 -0.70710678 0.00000000
vn 0.70710678 -0.70710678 0.00000000
vn 0.00000000 -0.00000000 1.00000000
vn 0.00000000 0.00000000 -1.00000000
vn 0.96592583 -0.25881905 0.00000000
vn 0.96592583 -0.25881905 0.00000000
vn 0.00000000 -0.00000000 1.00000000
# piece TurretGun_Muzzle palette=Secondary
v 0.00000000 0.00000000 2.56000000
v 0.26000000 0.00000000 2.56000000
v 0.26000000 0.00000000 2.94000000
v 0.00000000 0.00000000 2.94000000
v 0.21034442 0.15282417 2.56000000
v 0.21034442 0.15282417 2.94000000
v 0.08034442 0.24727469 2.56000000
v 0.08034442 0.24727469 2.94000000
v -0.08034442 0.24727469 2.56000000
v -0.08034442 0.24727469 2.94000000
v -0.21034442 0.15282417 2.56000000
v -0.21034442 0.15282417 2.94000000
v -0.26000000 0.00000000 2.56000000
v -0.26000000 0.00000000 2.94000000
v -0.21034442 -0.15282417 2.56000000
v -0.21034442 -0.15282417 2.94000000
v -0.08034442 -0.24727469 2.56000000
v -0.08034442 -0.24727469 2.94000000
v 0.08034442 -0.24727469 2.56000000
v 0.08034442 -0.24727469 2.94000000
v 0.21034442 -0.15282417 2.56000000
v 0.21034442 -0.15282417 2.94000000
vn 0.00000000 0.00000000 -1.00000000
vn 0.95105652 0.30901699 0.00000000
vn 0.95105652 0.30901699 -0.00000000
vn 0.00000000 0.00000000 1.00000000
vn -0.00000000 0.00000000 -1.00000000
vn 0.58778525 0.80901699 0.00000000
vn 0.58778525 0.80901699 -0.00000000
vn 0.00000000 0.00000000 1.00000000
vn -0.00000000 0.00000000 -1.00000000
vn 0.00000000 1.00000000 0.00000000
vn 0.00000000 1.00000000 -0.00000000
vn 0.00000000 0.00000000 1.00000000
vn -0.00000000 -0.00000000 -1.00000000
vn -0.58778525 0.80901699 0.00000000
vn -0.58778525 0.80901699 0.00000000
vn 0.00000000 0.00000000 1.00000000
vn -0.00000000 -0.00000000 -1.00000000
vn -0.95105652 0.30901699 0.00000000
vn -0.95105652 0.30901699 0.00000000
vn 0.00000000 0.00000000 1.00000000
vn 0.00000000 -0.00000000 -1.00000000
vn -0.95105652 -0.30901699 0.00000000
vn -0.95105652 -0.30901699 0.00000000
vn -0.00000000 0.00000000 1.00000000
vn 0.00000000 -0.00000000 -1.00000000
vn -0.58778525 -0.80901699 0.00000000
vn -0.58778525 -0.80901699 0.00000000
vn -0.00000000 0.00000000 1.00000000
vn 0.00000000 0.00000000 -1.00000000
vn -0.00000000 -1.00000000 0.00000000
vn -0.00000000 -1.00000000 0.00000000
vn -0.00000000 -0.00000000 1.00000000
vn 0.00000000 0.00000000 -1.00000000
vn 0.58778525 -0.80901699 0.00000000
vn 0.58778525 -0.80901699 0.00000000
vn 0.00000000 -0.00000000 1.00000000
vn 0.00000000 0.00000000 -1.00000000
vn 0.95105652 -0.30901699 0.00000000
vn 0.95105652 -0.30901699 0.00000000
vn 0.00000000 -0.00000000 1.00000000
# piece TurretGun_Accent palette=Accent
v 0.26500000 0.00000000 0.56000000
v 0.23000000 0.00000000 0.59500000
v 0.19500000 0.00000000 0.56000000
v 0.23000000 0.00000000 0.52500000
v 0.22949673 0.13250000 0.56000000
v 0.19918584 0.11500000 0.59500000
v 0.16887495 0.09750000 0.56000000
v 0.19918584 0.11500000 0.52500000
v 0.13250000 0.22949673 0.56000000
v 0.11500000 0.19918584 0.59500000
v 0.09750000 0.16887495 0.56000000
v 0.11500000 0.19918584 0.52500000
v 0.00000000 0.26500000 0.56000000
v 0.00000000 0.23000000 0.59500000
v 0.00000000 0.19500000 0.56000000
v 0.00000000 0.23000000 0.52500000
v -0.13250000 0.22949673 0.56000000
v -0.11500000 0.19918584 0.59500000
v -0.09750000 0.16887495 0.56000000
v -0.11500000 0.19918584 0.52500000
v -0.22949673 0.13250000 0.56000000
v -0.19918584 0.11500000 0.59500000
v -0.16887495 0.09750000 0.56000000
v -0.19918584 0.11500000 0.52500000
v -0.26500000 0.00000000 0.56000000
v -0.23000000 0.00000000 0.59500000
v -0.19500000 0.00000000 0.56000000
v -0.23000000 0.00000000 0.52500000
v -0.22949673 -0.13250000 0.56000000
v -0.19918584 -0.11500000 0.59500000
v -0.16887495 -0.09750000 0.56000000
v -0.19918584 -0.11500000 0.52500000
v -0.13250000 -0.22949673 0.56000000
v -0.11500000 -0.19918584 0.59500000
v -0.09750000 -0.16887495 0.56000000
v -0.11500000 -0.19918584 0.52500000
v -0.00000000 -0.26500000 0.56000000
v -0.00000000 -0.23000000 0.59500000
v -0.00000000 -0.19500000 0.56000000
v -0.00000000 -0.23000000 0.52500000
v 0.13250000 -0.22949673 0.56000000
v 0.11500000 -0.19918584 0.59500000
v 0.09750000 -0.16887495 0.56000000
v 0.11500000 -0.19918584 0.52500000
v 0.22949673 -0.13250000 0.56000000
v 0.19918584 -0.11500000 0.59500000
v 0.16887495 -0.09750000 0.56000000
v 0.19918584 -0.11500000 0.52500000
vn 0.69474659 0.18615679 0.69474659
vn 0.69474659 0.18615679 0.69474659
vn -0.69474659 -0.18615679 0.69474659
vn -0.69474659 -0.18615679 0.69474659
vn -0.69474659 -0.18615679 -0.69474659
vn -0.69474659 -0.18615679 -0.69474659
vn 0.69474659 0.18615679 -0.69474659
vn 0.69474659 0.18615679 -0.69474659
vn 0.50858980 0.50858980 0.69474659
vn 0.50858980 0.50858980 0.69474659
vn -0.50858980 -0.50858980 0.69474659
vn -0.50858980 -0.50858980 0.69474659
vn -0.50858980 -0.50858980 -0.69474659
vn -0.50858980 -0.50858980 -0.69474659
vn 0.50858980 0.50858980 -0.69474659
vn 0.50858980 0.50858980 -0.69474659
vn 0.18615679 0.69474659 0.69474659
vn 0.18615679 0.69474659 0.69474659
vn -0.18615679 -0.69474659 0.69474659
vn -0.18615679 -0.69474659 0.69474659
vn -0.18615679 -0.69474659 -0.69474659
vn -0.18615679 -0.69474659 -0.69474659
vn 0.18615679 0.69474659 -0.69474659
vn 0.18615679 0.69474659 -0.69474659
vn -0.18615679 0.69474659 0.69474659
vn -0.18615679 0.69474659 0.69474659
vn 0.18615679 -0.69474659 0.69474659
vn 0.18615679 -0.69474659 0.69474659
vn 0.18615679 -0.69474659 -0.69474659
vn 0.18615679 -0.69474659 -0.69474659
vn -0.18615679 0.69474659 -0.69474659
vn -0.18615679 0.69474659 -0.69474659
vn -0.50858980 0.50858980 0.69474659
vn -0.50858980 0.50858980 0.69474659
vn 0.50858980 -0.50858980 0.69474659
vn 0.50858980 -0.50858980 0.69474659
vn 0.50858980 -0.50858980 -0.69474659
vn 0.50858980 -0.50858980 -0.69474659
vn -0.50858980 0.50858980 -0.69474659
vn -0.50858980 0.50858980 -0.69474659
vn -0.69474659 0.18615679 0.69474659
vn -0.69474659 0.18615679 0.69474659
vn 0.69474659 -0.18615679 0.69474659
vn 0.69474659 -0.18615679 0.69474659
vn 0.69474659 -0.18615679 -0.69474659
vn 0.69474659 -0.18615679 -0.69474659
vn -0.69474659 0.18615679 -0.69474659
vn -0.69474659 0.18615679 -0.69474659
vn -0.69474659 -0.18615679 0.69474659
vn -0.69474659 -0.18615679 0.69474659
vn 0.69474659 0.18615679 0.69474659
vn 0.69474659 0.18615679 0.69474659
vn 0.69474659 0.18615679 -0.69474659
vn 0.69474659 0.18615679 -0.69474659
vn -0.69474659 -0.18615679 -0.69474659
vn -0.69474659 -0.18615679 -0.69474659
vn -0.50858980 -0.50858980 0.69474659
vn -0.50858980 -0.50858980 0.69474659
vn 0.50858980 0.50858980 0.69474659
vn 0.50858980 0.50858980 0.69474659
vn 0.50858980 0.50858980 -0.69474659
vn 0.50858980 0.50858980 -0.69474659
vn -0.50858980 -0.50858980 -0.69474659
vn -0.50858980 -0.50858980 -0.69474659
vn -0.18615679 -0.69474659 0.69474659
vn -0.18615679 -0.69474659 0.69474659
vn 0.18615679 0.69474659 0.69474659
vn 0.18615679 0.69474659 0.69474659
vn 0.18615679 0.69474659 -0.69474659
vn 0.18615679 0.69474659 -0.69474659
vn -0.18615679 -0.69474659 -0.69474659
vn -0.18615679 -0.69474659 -0.69474659
vn 0.18615679 -0.69474659 0.69474659
vn 0.18615679 -0.69474659 0.69474659
vn -0.18615679 0.69474659 0.69474659
vn -0.18615679 0.69474659 0.69474659
vn -0.18615679 0.69474659 -0.69474659
vn -0.18615679 0.69474659 -0.69474659
vn 0.18615679 -0.69474659 -0.69474659
vn 0.18615679 -0.69474659 -0.69474659
vn 0.50858980 -0.50858980 0.69474659
vn 0.50858980 -0.50858980 0.69474659
vn -0.50858980 0.50858980 0.69474659
vn -0.50858980 0.50858980 0.69474659
vn -0.50858980 0.50858980 -0.69474659
vn -0.50858980 0.50858980 -0.69474659
vn 0.50858980 -0.50858980 -0.69474659
vn 0.50858980 -0.50858980 -0.69474659
vn 0.69474659 -0.18615679 0.69474659
vn 0.69474659 -0.18615679 0.69474659
vn -0.69474659 0.18615679 0.69474659
vn -0.69474659 0.18615679 0.69474659
vn -0.69474659 0.18615679 -0.69474659
vn -0.69474659 0.18615679 -0.69474659
vn 0.69474659 -0.18615679 -0.69474659
vn 0.69474659 -0.18615679 -0.69474659
f 2/6/1 1/6/1 5/6/1
f 2/6/2 5/6/2 3/6/2
f 3/6/3 5/6/3 6/6/3
f 3/6/4 6/6/4 4/6/4
f 5/6/5 1/6/5 7/6/5
f 5/6/6 7/6/6 6/6/6
f 6/6/7 7/6/7 8/6/7
f 6/6/8 8/6/8 4/6/8
f 7/6/9 1/6/9 9/6/9
f 7/6/10 9/6/10 8/6/10
f 8/6/11 9/6/11 10/6/11
f 8/6/12 10/6/12 4/6/12
f 9/6/13 1/6/13 11/6/13
f 9/6/14 11/6/14 10/6/14
f 10/6/15 11/6/15 12/6/15
f 10/6/16 12/6/16 4/6/16
f 11/6/17 1/6/17 13/6/17
f 11/6/18 13/6/18 12/6/18
f 12/6/19 13/6/19 14/6/19
f 12/6/20 14/6/20 4/6/20
f 13/6/21 1/6/21 15/6/21
f 13/6/22 15/6/22 14/6/22
f 14/6/23 15/6/23 16/6/23
f 14/6/24 16/6/24 4/6/24
f 15/6/25 1/6/25 17/6/25
f 15/6/26 17/6/26 16/6/26
f 16/6/27 17/6/27 18/6/27
f 16/6/28 18/6/28 4/6/28
f 17/6/29 1/6/29 19/6/29
f 17/6/30 19/6/30 18/6/30
f 18/6/31 19/6/31 20/6/31
f 18/6/32 20/6/32 4/6/32
f 19/6/33 1/6/33 21/6/33
f 19/6/34 21/6/34 20/6/34
f 20/6/35 21/6/35 22/6/35
f 20/6/36 22/6/36 4/6/36
f 21/6/37 1/6/37 23/6/37
f 21/6/38 23/6/38 22/6/38
f 22/6/39 23/6/39 24/6/39
f 22/6/40 24/6/40 4/6/40
f 23/6/41 1/6/41 25/6/41
f 23/6/42 25/6/42 24/6/42
f 24/6/43 25/6/43 26/6/43
f 24/6/44 26/6/44 4/6/44
f 25/6/45 1/6/45 2/6/45
f 25/6/46 2/6/46 26/6/46
f 26/6/47 2/6/47 3/6/47
f 26/6/48 3/6/48 4/6/48
f 28/6/49 27/6/49 31/6/49
f 28/6/50 31/6/50 29/6/50
f 29/6/51 31/6/51 32/6/51
f 29/6/52 32/6/52 30/6/52
f 31/6/53 27/6/53 33/6/53
f 31/6/54 33/6/54 32/6/54
f 32/6/55 33/6/55 34/6/55
f 32/6/56 34/6/56 30/6/56
f 33/6/57 27/6/57 35/6/57
f 33/6/58 35/6/58 34/6/58
f 34/6/59 35/6/59 36/6/59
f 34/6/60 36/6/60 30/6/60
f 35/6/61 27/6/61 37/6/61
f 35/6/62 37/6/62 36/6/62
f 36/6/63 37/6/63 38/6/63
f 36/6/64 38/6/64 30/6/64
f 37/6/65 27/6/65 39/6/65
f 37/6/66 39/6/66 38/6/66
f 38/6/67 39/6/67 40/6/67
f 38/6/68 40/6/68 30/6/68
f 39/6/69 27/6/69 41/6/69
f 39/6/70 41/6/70 40/6/70
f 40/6/71 41/6/71 42/6/71
f 40/6/72 42/6/72 30/6/72
f 41/6/73 27/6/73 43/6/73
f 41/6/74 43/6/74 42/6/74
f 42/6/75 43/6/75 44/6/75
f 42/6/76 44/6/76 30/6/76
f 43/6/77 27/6/77 45/6/77
f 43/6/78 45/6/78 44/6/78
f 44/6/79 45/6/79 46/6/79
f 44/6/80 46/6/80 30/6/80
f 45/6/81 27/6/81 47/6/81
f 45/6/82 47/6/82 46/6/82
f 46/6/83 47/6/83 48/6/83
f 46/6/84 48/6/84 30/6/84
f 47/6/85 27/6/85 49/6/85
f 47/6/86 49/6/86 48/6/86
f 48/6/87 49/6/87 50/6/87
f 48/6/88 50/6/88 30/6/88
f 49/6/89 27/6/89 51/6/89
f 49/6/90 51/6/90 50/6/90
f 50/6/91 51/6/91 52/6/91
f 50/6/92 52/6/92 30/6/92
f 51/6/93 27/6/93 28/6/93
f 51/6/94 28/6/94 52/6/94
f 52/6/95 28/6/95 29/6/95
f 52/6/96 29/6/96 30/6/96
f 54/2/97 53/2/97 57/2/97
f 54/2/98 57/2/98 55/2/98
f 55/2/99 57/2/99 58/2/99
f 55/2/100 58/2/100 56/2/100
f 57/2/101 53/2/101 59/2/101
f 57/2/102 59/2/102 58/2/102
f 58/2/103 59/2/103 60/2/103
f 58/2/104 60/2/104 56/2/104
f 59/2/105 53/2/105 61/2/105
f 59/2/106 61/2/106 60/2/106
f 60/2/107 61/2/107 62/2/107
f 60/2/108 62/2/108 56/2/108
f 61/2/109 53/2/109 63/2/109
f 61/2/110 63/2/110 62/2/110
f 62/2/111 63/2/111 64/2/111
f 62/2/112 64/2/112 56/2/112
f 63/2/113 53/2/113 65/2/113
f 63/2/114 65/2/114 64/2/114
f 64/2/115 65/2/115 66/2/115
f 64/2/116 66/2/116 56/2/116
f 65/2/117 53/2/117 67/2/117
f 65/2/118 67/2/118 66/2/118
f 66/2/119 67/2/119 68/2/119
f 66/2/120 68/2/120 56/2/120
f 67/2/121 53/2/121 69/2/121
f 67/2/122 69/2/122 68/2/122
f 68/2/123 69/2/123 70/2/123
f 68/2/124 70/2/124 56/2/124
f 69/2/125 53/2/125 71/2/125
f 69/2/126 71/2/126 70/2/126
f 70/2/127 71/2/127 72/2/127
f 70/2/128 72/2/128 56/2/128
f 71/2/129 53/2/129 73/2/129
f 71/2/130 73/2/130 72/2/130
f 72/2/131 73/2/131 74/2/131
f 72/2/132 74/2/132 56/2/132
f 73/2/133 53/2/133 54/2/133
f 73/2/134 54/2/134 74/2/134
f 74/2/135 54/2/135 55/2/135
f 74/2/136 55/2/136 56/2/136
f 75/7/137 79/7/137 76/7/137
f 76/7/138 79/7/138 80/7/138
f 76/7/139 80/7/139 77/7/139
f 77/7/140 80/7/140 81/7/140
f 77/7/141 81/7/141 78/7/141
f 78/7/142 81/7/142 82/7/142
f 78/7/143 82/7/143 75/7/143
f 75/7/144 82/7/144 79/7/144
f 79/7/145 83/7/145 80/7/145
f 80/7/146 83/7/146 84/7/146
f 80/7/147 84/7/147 81/7/147
f 81/7/148 84/7/148 85/7/148
f 81/7/149 85/7/149 82/7/149
f 82/7/150 85/7/150 86/7/150
f 82/7/151 86/7/151 79/7/151
f 79/7/152 86/7/152 83/7/152
f 83/7/153 87/7/153 84/7/153
f 84/7/154 87/7/154 88/7/154
f 84/7/155 88/7/155 85/7/155
f 85/7/156 88/7/156 89/7/156
f 85/7/157 89/7/157 86/7/157
f 86/7/158 89/7/158 90/7/158
f 86/7/159 90/7/159 83/7/159
f 83/7/160 90/7/160 87/7/160
f 87/7/161 91/7/161 88/7/161
f 88/7/162 91/7/162 92/7/162
f 88/7/163 92/7/163 89/7/163
f 89/7/164 92/7/164 93/7/164
f 89/7/165 93/7/165 90/7/165
f 90/7/166 93/7/166 94/7/166
f 90/7/167 94/7/167 87/7/167
f 87/7/168 94/7/168 91/7/168
f 91/7/169 95/7/169 92/7/169
f 92/7/170 95/7/170 96/7/170
f 92/7/171 96/7/171 93/7/171
f 93/7/172 96/7/172 97/7/172
f 93/7/173 97/7/173 94/7/173
f 94/7/174 97/7/174 98/7/174
f 94/7/175 98/7/175 91/7/175
f 91/7/176 98/7/176 95/7/176
f 95/7/177 99/7/177 96/7/177
f 96/7/178 99/7/178 100/7/178
f 96/7/179 100/7/179 97/7/179
f 97/7/180 100/7/180 101/7/180
f 97/7/181 101/7/181 98/7/181
f 98/7/182 101/7/182 102/7/182
f 98/7/183 102/7/183 95/7/183
f 95/7/184 102/7/184 99/7/184
f 99/7/185 103/7/185 100/7/185
f 100/7/186 103/7/186 104/7/186
f 100/7/187 104/7/187 101/7/187
f 101/7/188 104/7/188 105/7/188
f 101/7/189 105/7/189 102/7/189
f 102/7/190 105/7/190 106/7/190
f 102/7/191 106/7/191 99/7/191
f 99/7/192 106/7/192 103/7/192
f 103/7/193 107/7/193 104/7/193
f 104/7/194 107/7/194 108/7/194
f 104/7/195 108/7/195 105/7/195
f 105/7/196 108/7/196 109/7/196
f 105/7/197 109/7/197 106/7/197
f 106/7/198 109/7/198 110/7/198
f 106/7/199 110/7/199 103/7/199
f 103/7/200 110/7/200 107/7/200
f 107/7/201 111/7/201 108/7/201
f 108/7/202 111/7/202 112/7/202
f 108/7/203 112/7/203 109/7/203
f 109/7/204 112/7/204 113/7/204
f 109/7/205 113/7/205 110/7/205
f 110/7/206 113/7/206 114/7/206
f 110/7/207 114/7/207 107/7/207
f 107/7/208 114/7/208 111/7/208
f 111/7/209 115/7/209 112/7/209
f 112/7/210 115/7/210 116/7/210
f 112/7/211 116/7/211 113/7/211
f 113/7/212 116/7/212 117/7/212
f 113/7/213 117/7/213 114/7/213
f 114/7/214 117/7/214 118/7/214
f 114/7/215 118/7/215 111/7/215
f 111/7/216 118/7/216 115/7/216
f 115/7/217 119/7/217 116/7/217
f 116/7/218 119/7/218 120/7/218
f 116/7/219 120/7/219 117/7/219
f 117/7/220 120/7/220 121/7/220
f 117/7/221 121/7/221 118/7/221
f 118/7/222 121/7/222 122/7/222
f 118/7/223 122/7/223 115/7/223
f 115/7/224 122/7/224 119/7/224
f 119/7/225 75/7/225 120/7/225
f 120/7/226 75/7/226 76/7/226
f 120/7/227 76/7/227 121/7/227
f 121/7/228 76/7/228 77/7/228
f 121/7/229 77/7/229 122/7/229
f 122/7/230 77/7/230 78/7/230
f 122/7/231 78/7/231 119/7/231
f 119/7/232 78/7/232 75/7/232
