# Bastion Base Structures — generated original low-poly asset
# Coordinates: meters, +Y up, +Z forward
mtllib Bastion_Structures.mtl
o Bastion_MASH_LOD1
g Bastion_MASH_LOD1
usemtl BastionPalette
s off
vt 0.04545455 0.50000000
vt 0.13636364 0.50000000
vt 0.22727273 0.50000000
vt 0.31818182 0.50000000
vt 0.40909091 0.50000000
vt 0.50000000 0.50000000
vt 0.59090909 0.50000000
vt 0.68181818 0.50000000
vt 0.77272727 0.50000000
vt 0.86363636 0.50000000
vt 0.95454545 0.50000000
# piece MASH_LOD1_Pad palette=Concrete
v -3.60000000 0.00000000 -3.10000000
v -3.60000000 0.00000000 3.10000000
v -3.60000000 0.24000000 -3.10000000
v -3.60000000 0.24000000 3.10000000
v 3.60000000 0.00000000 -3.10000000
v 3.60000000 0.00000000 3.10000000
v 3.60000000 0.24000000 -3.10000000
v 3.60000000 0.24000000 3.10000000
vn -1.00000000 0.00000000 -0.00000000
vn -0.00000000 -1.00000000 -0.00000000
vn -1.00000000 0.00000000 0.00000000
vn -0.00000000 -0.00000000 -1.00000000
vn 0.00000000 -0.00000000 1.00000000
vn -0.00000000 -1.00000000 -0.00000000
vn 0.00000000 -0.00000000 1.00000000
vn -0.00000000 1.00000000 0.00000000
vn -0.00000000 -0.00000000 -1.00000000
vn -0.00000000 1.00000000 0.00000000
vn 1.00000000 0.00000000 0.00000000
vn 1.00000000 0.00000000 0.00000000
# piece MASH_LOD1_Body palette=Armor
v -2.65000000 0.22500000 -2.27500000
v -2.65000000 0.22500000 1.37500000
v -2.65000000 2.47500000 -2.27500000
v -2.65000000 2.47500000 1.37500000
v 2.65000000 0.22500000 -2.27500000
v 2.65000000 0.22500000 1.37500000
v 2.65000000 2.47500000 -2.27500000
v 2.65000000 2.47500000 1.37500000
vn -1.00000000 0.00000000 -0.00000000
vn -0.00000000 -1.00000000 -0.00000000
vn -1.00000000 0.00000000 0.00000000
vn -0.00000000 -0.00000000 -1.00000000
vn 0.00000000 -0.00000000 1.00000000
vn -0.00000000 -1.00000000 -0.00000000
vn 0.00000000 -0.00000000 1.00000000
vn -0.00000000 1.00000000 0.00000000
vn -0.00000000 -0.00000000 -1.00000000
vn -0.00000000 1.00000000 0.00000000
vn 1.00000000 0.00000000 0.00000000
vn 1.00000000 0.00000000 0.00000000
# piece MASH_LOD1_Roof palette=Roof
v -2.85000000 2.48000000 -2.45000000
v 2.85000000 2.48000000 -2.45000000
v 0.00000000 3.23000000 -2.45000000
v -2.85000000 2.48000000 1.55000000
v 2.85000000 2.48000000 1.55000000
v 0.00000000 3.23000000 1.55000000
vn -0.00000000 -0.00000000 -1.00000000
vn 0.00000000 0.00000000 1.00000000
vn -0.00000000 -1.00000000 -0.00000000
vn -0.00000000 -1.00000000 0.00000000
vn -0.25449330 0.96707454 0.00000000
vn -0.25449330 0.96707454 0.00000000
vn 0.25449330 0.96707454 0.00000000
vn 0.25449330 0.96707454 -0.00000000
# piece MASH_LOD1_Symbol palette=Medical
v -0.16800000 1.02500000 2.62500000
v -0.16800000 1.02500000 2.69500000
v -0.16800000 2.07500000 2.62500000
v -0.16800000 2.07500000 2.69500000
v 0.16800000 1.02500000 2.62500000
v 0.16800000 1.02500000 2.69500000
v 0.16800000 2.07500000 2.62500000
v 0.16800000 2.07500000 2.69500000
v -0.52500000 1.38200000 2.62500000
v -0.52500000 1.38200000 2.69500000
v -0.52500000 1.71800000 2.62500000
v -0.52500000 1.71800000 2.69500000
v 0.52500000 1.38200000 2.62500000
v 0.52500000 1.38200000 2.69500000
v 0.52500000 1.71800000 2.62500000
v 0.52500000 1.71800000 2.69500000
vn -1.00000000 0.00000000 -0.00000000
vn -0.00000000 -1.00000000 -0.00000000
vn -1.00000000 0.00000000 0.00000000
vn -0.00000000 -0.00000000 -1.00000000
vn 0.00000000 -0.00000000 1.00000000
vn -0.00000000 -1.00000000 -0.00000000
vn 0.00000000 -0.00000000 1.00000000
vn -0.00000000 1.00000000 0.00000000
vn -0.00000000 -0.00000000 -1.00000000
vn -0.00000000 1.00000000 0.00000000
vn 1.00000000 0.00000000 0.00000000
vn 1.00000000 0.00000000 0.00000000
vn -1.00000000 0.00000000 -0.00000000
vn -0.00000000 -1.00000000 -0.00000000
vn -1.00000000 0.00000000 0.00000000
vn -0.00000000 -0.00000000 -1.00000000
vn 0.00000000 -0.00000000 1.00000000
vn -0.00000000 -1.00000000 -0.00000000
vn 0.00000000 -0.00000000 1.00000000
vn -0.00000000 1.00000000 0.00000000
vn -0.00000000 -0.00000000 -1.00000000
vn -0.00000000 1.00000000 0.00000000
vn 1.00000000 0.00000000 0.00000000
vn 1.00000000 0.00000000 0.00000000
f 2/3/1 4/3/1 1/3/1
f 5/3/2 2/3/2 1/3/2
f 1/3/3 4/3/3 3/3/3
f 3/3/4 5/3/4 1/3/4
f 2/3/5 8/3/5 4/3/5
f 6/3/6 2/3/6 5/3/6
f 6/3/7 8/3/7 2/3/7
f 4/3/8 8/3/8 3/3/8
f 7/3/9 5/3/9 3/3/9
f 3/3/10 8/3/10 7/3/10
f 7/3/11 6/3/11 5/3/11
f 8/3/12 6/3/12 7/3/12
f 10/1/13 12/1/13 9/1/13
f 13/1/14 10/1/14 9/1/14
f 9/1/15 12/1/15 11/1/15
f 11/1/16 13/1/16 9/1/16
f 10/1/17 16/1/17 12/1/17
f 14/1/18 10/1/18 13/1/18
f 14/1/19 16/1/19 10/1/19
f 12/1/20 16/1/20 11/1/20
f 15/1/21 13/1/21 11/1/21
f 11/1/22 16/1/22 15/1/22
f 15/1/23 14/1/23 13/1/23
f 16/1/24 14/1/24 15/1/24
f 19/4/25 18/4/25 17/4/25
f 21/4/26 22/4/26 20/4/26
f 21/4/27 20/4/27 17/4/27
f 18/4/28 21/4/28 17/4/28
f 22/4/29 19/4/29 17/4/29
f 20/4/30 22/4/30 17/4/30
f 22/4/31 21/4/31 18/4/31
f 19/4/32 22/4/32 18/4/32
f 24/10/33 26/10/33 23/10/33
f 27/10/34 24/10/34 23/10/34
f 23/10/35 26/10/35 25/10/35
f 25/10/36 27/10/36 23/10/36
f 24/10/37 30/10/37 26/10/37
f 28/10/38 24/10/38 27/10/38
f 28/10/39 30/10/39 24/10/39
f 26/10/40 30/10/40 25/10/40
f 29/10/41 27/10/41 25/10/41
f 25/10/42 30/10/42 29/10/42
f 29/10/43 28/10/43 27/10/43
f 30/10/44 28/10/44 29/10/44
f 32/10/45 34/10/45 31/10/45
f 35/10/46 32/10/46 31/10/46
f 31/10/47 34/10/47 33/10/47
f 33/10/48 35/10/48 31/10/48
f 32/10/49 38/10/49 34/10/49
f 36/10/50 32/10/50 35/10/50
f 36/10/51 38/10/51 32/10/51
f 34/10/52 38/10/52 33/10/52
f 37/10/53 35/10/53 33/10/53
f 33/10/54 38/10/54 37/10/54
f 37/10/55 36/10/55 35/10/55
f 38/10/56 36/10/56 37/10/56
