# Bastion Base Structures — generated original low-poly asset
# Coordinates: meters, +Y up, +Z forward
mtllib Bastion_Structures.mtl
o Bastion_AdvancedGunTower_LOD1
g Bastion_AdvancedGunTower_LOD1
usemtl BastionPalette
s off
vt 0.04545455 0.50000000
vt 0.13636364 0.50000000
vt 0.22727273 0.50000000
vt 0.31818182 0.50000000
vt 0.40909091 0.50000000
vt 0.50000000 0.50000000
vt 0.59090909 0.50000000
vt 0.68181818 0.50000000
vt 0.77272727 0.50000000
vt 0.86363636 0.50000000
vt 0.95454545 0.50000000
# piece Advanced_LOD1_Base palette=Armor
v 0.00000000 -0.00500000 -0.00000000
v 1.60000000 -0.00500000 -0.00000000
v 1.60000000 5.64500000 0.00000000
v 0.00000000 5.64500000 0.00000000
v 1.13137085 -0.00500000 -1.13137085
v 1.13137085 5.64500000 -1.13137085
v 0.00000000 -0.00500000 -1.60000000
v 0.00000000 5.64500000 -1.60000000
v -1.13137085 -0.00500000 -1.13137085
v -1.13137085 5.64500000 -1.13137085
v -1.60000000 -0.00500000 -0.00000000
v -1.60000000 5.64500000 -0.00000000
v -1.13137085 -0.00500000 1.13137085
v -1.13137085 5.64500000 1.13137085
v -0.00000000 -0.00500000 1.60000000
v -0.00000000 5.64500000 1.60000000
v 1.13137085 -0.00500000 1.13137085
v 1.13137085 5.64500000 1.13137085
vn -0.00000000 -1.00000000 -0.00000000
vn 0.92387953 0.00000000 -0.38268343
vn 0.92387953 0.00000000 -0.38268343
vn 0.00000000 1.00000000 0.00000000
vn -0.00000000 -1.00000000 -0.00000000
vn 0.38268343 0.00000000 -0.92387953
vn 0.38268343 0.00000000 -0.92387953
vn 0.00000000 1.00000000 0.00000000
vn -0.00000000 -1.00000000 0.00000000
vn -0.38268343 0.00000000 -0.92387953
vn -0.38268343 0.00000000 -0.92387953
vn 0.00000000 1.00000000 -0.00000000
vn -0.00000000 -1.00000000 0.00000000
vn -0.92387953 0.00000000 -0.38268343
vn -0.92387953 0.00000000 -0.38268343
vn 0.00000000 1.00000000 -0.00000000
vn 0.00000000 -1.00000000 0.00000000
vn -0.92387953 -0.00000000 0.38268343
vn -0.92387953 -0.00000000 0.38268343
vn -0.00000000 1.00000000 0.00000000
vn 0.00000000 -1.00000000 0.00000000
vn -0.38268343 -0.00000000 0.92387953
vn -0.38268343 -0.00000000 0.92387953
vn -0.00000000 1.00000000 0.00000000
vn 0.00000000 -1.00000000 0.00000000
vn 0.38268343 -0.00000000 0.92387953
vn 0.38268343 -0.00000000 0.92387953
vn 0.00000000 1.00000000 0.00000000
vn 0.00000000 -1.00000000 -0.00000000
vn 0.92387953 -0.00000000 0.38268343
vn 0.92387953 -0.00000000 0.38268343
vn 0.00000000 1.00000000 0.00000000
# piece Advanced_LOD1_Top palette=Armor
v -1.50000000 5.74500000 -1.12500000
v -1.50000000 5.74500000 1.12500000
v -1.50000000 6.89500000 -1.12500000
v -1.50000000 6.89500000 1.12500000
v 1.50000000 5.74500000 -1.12500000
v 1.50000000 5.74500000 1.12500000
v 1.50000000 6.89500000 -1.12500000
v 1.50000000 6.89500000 1.12500000
vn -1.00000000 0.00000000 -0.00000000
vn -0.00000000 -1.00000000 -0.00000000
vn -1.00000000 0.00000000 0.00000000
vn -0.00000000 -0.00000000 -1.00000000
vn 0.00000000 -0.00000000 1.00000000
vn -0.00000000 -1.00000000 -0.00000000
vn 0.00000000 -0.00000000 1.00000000
vn -0.00000000 1.00000000 0.00000000
vn -0.00000000 -0.00000000 -1.00000000
vn -0.00000000 1.00000000 0.00000000
vn 1.00000000 0.00000000 0.00000000
vn 1.00000000 0.00000000 0.00000000
# piece Advanced_LOD1_Launchers palette=Armor
v -1.33000000 5.92000000 0.39500000
v -1.33000000 5.92000000 2.04500000
v -1.33000000 6.82000000 0.39500000
v -1.33000000 6.82000000 2.04500000
v -0.23000000 5.92000000 0.39500000
v -0.23000000 5.92000000 2.04500000
v -0.23000000 6.82000000 0.39500000
v -0.23000000 6.82000000 2.04500000
v 0.23000000 5.92000000 0.39500000
v 0.23000000 5.92000000 2.04500000
v 0.23000000 6.82000000 0.39500000
v 0.23000000 6.82000000 2.04500000
v 1.33000000 5.92000000 0.39500000
v 1.33000000 5.92000000 2.04500000
v 1.33000000 6.82000000 0.39500000
v 1.33000000 6.82000000 2.04500000
vn -1.00000000 0.00000000 -0.00000000
vn -0.00000000 -1.00000000 -0.00000000
vn -1.00000000 0.00000000 0.00000000
vn -0.00000000 -0.00000000 -1.00000000
vn 0.00000000 -0.00000000 1.00000000
vn -0.00000000 -1.00000000 -0.00000000
vn 0.00000000 -0.00000000 1.00000000
vn -0.00000000 1.00000000 0.00000000
vn -0.00000000 -0.00000000 -1.00000000
vn -0.00000000 1.00000000 0.00000000
vn 1.00000000 0.00000000 0.00000000
vn 1.00000000 0.00000000 0.00000000
vn -1.00000000 0.00000000 -0.00000000
vn -0.00000000 -1.00000000 -0.00000000
vn -1.00000000 0.00000000 0.00000000
vn -0.00000000 -0.00000000 -1.00000000
vn 0.00000000 -0.00000000 1.00000000
vn -0.00000000 -1.00000000 -0.00000000
vn 0.00000000 -0.00000000 1.00000000
vn -0.00000000 1.00000000 0.00000000
vn -0.00000000 -0.00000000 -1.00000000
vn -0.00000000 1.00000000 0.00000000
vn 1.00000000 0.00000000 0.00000000
vn 1.00000000 0.00000000 0.00000000
f 2/1/1 1/1/1 5/1/1
f 2/1/2 5/1/2 3/1/2
f 3/1/3 5/1/3 6/1/3
f 3/1/4 6/1/4 4/1/4
f 5/1/5 1/1/5 7/1/5
f 5/1/6 7/1/6 6/1/6
f 6/1/7 7/1/7 8/1/7
f 6/1/8 8/1/8 4/1/8
f 7/1/9 1/1/9 9/1/9
f 7/1/10 9/1/10 8/1/10
f 8/1/11 9/1/11 10/1/11
f 8/1/12 10/1/12 4/1/12
f 9/1/13 1/1/13 11/1/13
f 9/1/14 11/1/14 10/1/14
f 10/1/15 11/1/15 12/1/15
f 10/1/16 12/1/16 4/1/16
f 11/1/17 1/1/17 13/1/17
f 11/1/18 13/1/18 12/1/18
f 12/1/19 13/1/19 14/1/19
f 12/1/20 14/1/20 4/1/20
f 13/1/21 1/1/21 15/1/21
f 13/1/22 15/1/22 14/1/22
f 14/1/23 15/1/23 16/1/23
f 14/1/24 16/1/24 4/1/24
f 15/1/25 1/1/25 17/1/25
f 15/1/26 17/1/26 16/1/26
f 16/1/27 17/1/27 18/1/27
f 16/1/28 18/1/28 4/1/28
f 17/1/29 1/1/29 2/1/29
f 17/1/30 2/1/30 18/1/30
f 18/1/31 2/1/31 3/1/31
f 18/1/32 3/1/32 4/1/32
f 20/1/33 22/1/33 19/1/33
f 23/1/34 20/1/34 19/1/34
f 19/1/35 22/1/35 21/1/35
f 21/1/36 23/1/36 19/1/36
f 20/1/37 26/1/37 22/1/37
f 24/1/38 20/1/38 23/1/38
f 24/1/39 26/1/39 20/1/39
f 22/1/40 26/1/40 21/1/40
f 25/1/41 23/1/41 21/1/41
f 21/1/42 26/1/42 25/1/42
f 25/1/43 24/1/43 23/1/43
f 26/1/44 24/1/44 25/1/44
f 28/1/45 30/1/45 27/1/45
f 31/1/46 28/1/46 27/1/46
f 27/1/47 30/1/47 29/1/47
f 29/1/48 31/1/48 27/1/48
f 28/1/49 34/1/49 30/1/49
f 32/1/50 28/1/50 31/1/50
f 32/1/51 34/1/51 28/1/51
f 30/1/52 34/1/52 29/1/52
f 33/1/53 31/1/53 29/1/53
f 29/1/54 34/1/54 33/1/54
f 33/1/55 32/1/55 31/1/55
f 34/1/56 32/1/56 33/1/56
f 36/1/57 38/1/57 35/1/57
f 39/1/58 36/1/58 35/1/58
f 35/1/59 38/1/59 37/1/59
f 37/1/60 39/1/60 35/1/60
f 36/1/61 42/1/61 38/1/61
f 40/1/62 36/1/62 39/1/62
f 40/1/63 42/1/63 36/1/63
f 38/1/64 42/1/64 37/1/64
f 41/1/65 39/1/65 37/1/65
f 37/1/66 42/1/66 41/1/66
f 41/1/67 40/1/67 39/1/67
f 42/1/68 40/1/68 41/1/68
