# Bastion Base Structures — generated original low-poly asset
# Coordinates: meters, +Y up, +Z forward
mtllib Bastion_Structures.mtl
o Bastion_CommunicationsCenter_DishYaw
g Bastion_CommunicationsCenter_DishYaw
usemtl BastionPalette
s off
vt 0.04545455 0.50000000
vt 0.13636364 0.50000000
vt 0.22727273 0.50000000
vt 0.31818182 0.50000000
vt 0.40909091 0.50000000
vt 0.50000000 0.50000000
vt 0.59090909 0.50000000
vt 0.68181818 0.50000000
vt 0.77272727 0.50000000
vt 0.86363636 0.50000000
vt 0.95454545 0.50000000
# piece RadarYaw_Pedestal palette=Secondary
v 0.00000000 0.00000000 -0.00000000
v 0.62000000 0.00000000 -0.00000000
v 0.62000000 0.40000000 0.00000000
v 0.00000000 0.40000000 0.00000000
v 0.53693575 0.00000000 -0.31000000
v 0.53693575 0.40000000 -0.31000000
v 0.31000000 0.00000000 -0.53693575
v 0.31000000 0.40000000 -0.53693575
v 0.00000000 0.00000000 -0.62000000
v 0.00000000 0.40000000 -0.62000000
v -0.31000000 0.00000000 -0.53693575
v -0.31000000 0.40000000 -0.53693575
v -0.53693575 0.00000000 -0.31000000
v -0.53693575 0.40000000 -0.31000000
v -0.62000000 0.00000000 -0.00000000
v -0.62000000 0.40000000 -0.00000000
v -0.53693575 -0.00000000 0.31000000
v -0.53693575 0.40000000 0.31000000
v -0.31000000 -0.00000000 0.53693575
v -0.31000000 0.40000000 0.53693575
v -0.00000000 -0.00000000 0.62000000
v -0.00000000 0.40000000 0.62000000
v 0.31000000 -0.00000000 0.53693575
v 0.31000000 0.40000000 0.53693575
v 0.53693575 -0.00000000 0.31000000
v 0.53693575 0.40000000 0.31000000
v -0.17500000 0.23000000 -0.17500000
v -0.17500000 0.23000000 0.17500000
v -0.17500000 1.33000000 -0.17500000
v -0.17500000 1.33000000 0.17500000
v 0.17500000 0.23000000 -0.17500000
v 0.17500000 0.23000000 0.17500000
v 0.17500000 1.33000000 -0.17500000
v 0.17500000 1.33000000 0.17500000
vn -0.00000000 -1.00000000 -0.00000000
vn 0.96592583 0.00000000 -0.25881905
vn 0.96592583 0.00000000 -0.25881905
vn 0.00000000 1.00000000 0.00000000
vn 0.00000000 -1.00000000 -0.00000000
vn 0.70710678 0.00000000 -0.70710678
vn 0.70710678 0.00000000 -0.70710678
vn 0.00000000 1.00000000 0.00000000
vn 0.00000000 -1.00000000 -0.00000000
vn 0.25881905 0.00000000 -0.96592583
vn 0.25881905 0.00000000 -0.96592583
vn 0.00000000 1.00000000 0.00000000
vn -0.00000000 -1.00000000 -0.00000000
vn -0.25881905 0.00000000 -0.96592583
vn -0.25881905 0.00000000 -0.96592583
vn 0.00000000 1.00000000 -0.00000000
vn -0.00000000 -1.00000000 -0.00000000
vn -0.70710678 0.00000000 -0.70710678
vn -0.70710678 0.00000000 -0.70710678
vn 0.00000000 1.00000000 -0.00000000
vn 0.00000000 -1.00000000 -0.00000000
vn -0.96592583 0.00000000 -0.25881905
vn -0.96592583 0.00000000 -0.25881905
vn 0.00000000 1.00000000 -0.00000000
vn 0.00000000 -1.00000000 -0.00000000
vn -0.96592583 -0.00000000 0.25881905
vn -0.96592583 0.00000000 0.25881905
vn -0.00000000 1.00000000 0.00000000
vn 0.00000000 -1.00000000 -0.00000000
vn -0.70710678 0.00000000 0.70710678
vn -0.70710678 0.00000000 0.70710678
vn -0.00000000 1.00000000 0.00000000
vn 0.00000000 -1.00000000 -0.00000000
vn -0.25881905 0.00000000 0.96592583
vn -0.25881905 0.00000000 0.96592583
vn -0.00000000 1.00000000 0.00000000
vn -0.00000000 -1.00000000 -0.00000000
vn 0.25881905 0.00000000 0.96592583
vn 0.25881905 -0.00000000 0.96592583
vn 0.00000000 1.00000000 0.00000000
vn -0.00000000 -1.00000000 -0.00000000
vn 0.70710678 0.00000000 0.70710678
vn 0.70710678 -0.00000000 0.70710678
vn 0.00000000 1.00000000 0.00000000
vn 0.00000000 -1.00000000 -0.00000000
vn 0.96592583 0.00000000 0.25881905
vn 0.96592583 -0.00000000 0.25881905
vn 0.00000000 1.00000000 0.00000000
vn -1.00000000 0.00000000 -0.00000000
vn -0.00000000 -1.00000000 -0.00000000
vn -1.00000000 0.00000000 0.00000000
vn -0.00000000 -0.00000000 -1.00000000
vn 0.00000000 -0.00000000 1.00000000
vn -0.00000000 -1.00000000 -0.00000000
vn 0.00000000 -0.00000000 1.00000000
vn -0.00000000 1.00000000 0.00000000
vn -0.00000000 -0.00000000 -1.00000000
vn -0.00000000 1.00000000 0.00000000
vn 1.00000000 0.00000000 0.00000000
vn 1.00000000 0.00000000 0.00000000
f 2/2/1 1/2/1 5/2/1
f 2/2/2 5/2/2 3/2/2
f 3/2/3 5/2/3 6/2/3
f 3/2/4 6/2/4 4/2/4
f 5/2/5 1/2/5 7/2/5
f 5/2/6 7/2/6 6/2/6
f 6/2/7 7/2/7 8/2/7
f 6/2/8 8/2/8 4/2/8
f 7/2/9 1/2/9 9/2/9
f 7/2/10 9/2/10 8/2/10
f 8/2/11 9/2/11 10/2/11
f 8/2/12 10/2/12 4/2/12
f 9/2/13 1/2/13 11/2/13
f 9/2/14 11/2/14 10/2/14
f 10/2/15 11/2/15 12/2/15
f 10/2/16 12/2/16 4/2/16
f 11/2/17 1/2/17 13/2/17
f 11/2/18 13/2/18 12/2/18
f 12/2/19 13/2/19 14/2/19
f 12/2/20 14/2/20 4/2/20
f 13/2/21 1/2/21 15/2/21
f 13/2/22 15/2/22 14/2/22
f 14/2/23 15/2/23 16/2/23
f 14/2/24 16/2/24 4/2/24
f 15/2/25 1/2/25 17/2/25
f 15/2/26 17/2/26 16/2/26
f 16/2/27 17/2/27 18/2/27
f 16/2/28 18/2/28 4/2/28
f 17/2/29 1/2/29 19/2/29
f 17/2/30 19/2/30 18/2/30
f 18/2/31 19/2/31 20/2/31
f 18/2/32 20/2/32 4/2/32
f 19/2/33 1/2/33 21/2/33
f 19/2/34 21/2/34 20/2/34
f 20/2/35 21/2/35 22/2/35
f 20/2/36 22/2/36 4/2/36
f 21/2/37 1/2/37 23/2/37
f 21/2/38 23/2/38 22/2/38
f 22/2/39 23/2/39 24/2/39
f 22/2/40 24/2/40 4/2/40
f 23/2/41 1/2/41 25/2/41
f 23/2/42 25/2/42 24/2/42
f 24/2/43 25/2/43 26/2/43
f 24/2/44 26/2/44 4/2/44
f 25/2/45 1/2/45 2/2/45
f 25/2/46 2/2/46 26/2/46
f 26/2/47 2/2/47 3/2/47
f 26/2/48 3/2/48 4/2/48
f 28/2/49 30/2/49 27/2/49
f 31/2/50 28/2/50 27/2/50
f 27/2/51 30/2/51 29/2/51
f 29/2/52 31/2/52 27/2/52
f 28/2/53 34/2/53 30/2/53
f 32/2/54 28/2/54 31/2/54
f 32/2/55 34/2/55 28/2/55
f 30/2/56 34/2/56 29/2/56
f 33/2/57 31/2/57 29/2/57
f 29/2/58 34/2/58 33/2/58
f 33/2/59 32/2/59 31/2/59
f 34/2/60 32/2/60 33/2/60
