# Bastion Base Structures — generated original low-poly asset
# Coordinates: meters, +Y up, +Z forward
mtllib Bastion_Structures.mtl
o Bastion_GunTower_LOD1
g Bastion_GunTower_LOD1
usemtl BastionPalette
s off
vt 0.04545455 0.50000000
vt 0.13636364 0.50000000
vt 0.22727273 0.50000000
vt 0.31818182 0.50000000
vt 0.40909091 0.50000000
vt 0.50000000 0.50000000
vt 0.59090909 0.50000000
vt 0.68181818 0.50000000
vt 0.77272727 0.50000000
vt 0.86363636 0.50000000
vt 0.95454545 0.50000000
# piece GunTower_LOD1_Base palette=Armor
v 0.00000000 0.00000000 -0.00000000
v 1.35000000 0.00000000 -0.00000000
v 1.35000000 4.40000000 0.00000000
v 0.00000000 4.40000000 0.00000000
v 0.95459415 0.00000000 -0.95459415
v 0.95459415 4.40000000 -0.95459415
v 0.00000000 0.00000000 -1.35000000
v 0.00000000 4.40000000 -1.35000000
v -0.95459415 0.00000000 -0.95459415
v -0.95459415 4.40000000 -0.95459415
v -1.35000000 0.00000000 -0.00000000
v -1.35000000 4.40000000 -0.00000000
v -0.95459415 0.00000000 0.95459415
v -0.95459415 4.40000000 0.95459415
v -0.00000000 0.00000000 1.35000000
v -0.00000000 4.40000000 1.35000000
v 0.95459415 0.00000000 0.95459415
v 0.95459415 4.40000000 0.95459415
vn -0.00000000 -1.00000000 -0.00000000
vn 0.92387953 0.00000000 -0.38268343
vn 0.92387953 0.00000000 -0.38268343
vn 0.00000000 1.00000000 0.00000000
vn -0.00000000 -1.00000000 -0.00000000
vn 0.38268343 0.00000000 -0.92387953
vn 0.38268343 0.00000000 -0.92387953
vn 0.00000000 1.00000000 0.00000000
vn -0.00000000 -1.00000000 0.00000000
vn -0.38268343 0.00000000 -0.92387953
vn -0.38268343 0.00000000 -0.92387953
vn 0.00000000 1.00000000 -0.00000000
vn -0.00000000 -1.00000000 0.00000000
vn -0.92387953 0.00000000 -0.38268343
vn -0.92387953 0.00000000 -0.38268343
vn 0.00000000 1.00000000 -0.00000000
vn 0.00000000 -1.00000000 0.00000000
vn -0.92387953 -0.00000000 0.38268343
vn -0.92387953 -0.00000000 0.38268343
vn -0.00000000 1.00000000 0.00000000
vn 0.00000000 -1.00000000 0.00000000
vn -0.38268343 -0.00000000 0.92387953
vn -0.38268343 -0.00000000 0.92387953
vn -0.00000000 1.00000000 0.00000000
vn 0.00000000 -1.00000000 0.00000000
vn 0.38268343 -0.00000000 0.92387953
vn 0.38268343 -0.00000000 0.92387953
vn 0.00000000 1.00000000 0.00000000
vn 0.00000000 -1.00000000 -0.00000000
vn 0.92387953 -0.00000000 0.38268343
vn 0.92387953 -0.00000000 0.38268343
vn 0.00000000 1.00000000 0.00000000
# piece GunTower_LOD1_Top palette=Armor
v -1.12500000 4.49500000 -0.87500000
v -1.12500000 4.49500000 0.87500000
v -1.12500000 5.44500000 -0.87500000
v -1.12500000 5.44500000 0.87500000
v 1.12500000 4.49500000 -0.87500000
v 1.12500000 4.49500000 0.87500000
v 1.12500000 5.44500000 -0.87500000
v 1.12500000 5.44500000 0.87500000
vn -1.00000000 0.00000000 -0.00000000
vn -0.00000000 -1.00000000 -0.00000000
vn -1.00000000 0.00000000 0.00000000
vn -0.00000000 -0.00000000 -1.00000000
vn 0.00000000 -0.00000000 1.00000000
vn -0.00000000 -1.00000000 -0.00000000
vn 0.00000000 -0.00000000 1.00000000
vn -0.00000000 1.00000000 0.00000000
vn -0.00000000 -0.00000000 -1.00000000
vn -0.00000000 1.00000000 0.00000000
vn 1.00000000 0.00000000 0.00000000
vn 1.00000000 0.00000000 0.00000000
# piece GunTower_LOD1_Guns palette=Weapon
v -0.38000000 5.00000000 0.79500000
v -0.25000000 5.00000000 0.79500000
v -0.25000000 5.00000000 3.14500000
v -0.38000000 5.00000000 3.14500000
v -0.31500000 5.11258330 0.79500000
v -0.31500000 5.11258330 3.14500000
v -0.44500000 5.11258330 0.79500000
v -0.44500000 5.11258330 3.14500000
v -0.51000000 5.00000000 0.79500000
v -0.51000000 5.00000000 3.14500000
v -0.44500000 4.88741670 0.79500000
v -0.44500000 4.88741670 3.14500000
v -0.31500000 4.88741670 0.79500000
v -0.31500000 4.88741670 3.14500000
v 0.38000000 5.00000000 0.79500000
v 0.51000000 5.00000000 0.79500000
v 0.51000000 5.00000000 3.14500000
v 0.38000000 5.00000000 3.14500000
v 0.44500000 5.11258330 0.79500000
v 0.44500000 5.11258330 3.14500000
v 0.31500000 5.11258330 0.79500000
v 0.31500000 5.11258330 3.14500000
v 0.25000000 5.00000000 0.79500000
v 0.25000000 5.00000000 3.14500000
v 0.31500000 4.88741670 0.79500000
v 0.31500000 4.88741670 3.14500000
v 0.44500000 4.88741670 0.79500000
v 0.44500000 4.88741670 3.14500000
vn 0.00000000 0.00000000 -1.00000000
vn 0.86602540 0.50000000 0.00000000
vn 0.86602540 0.50000000 -0.00000000
vn 0.00000000 0.00000000 1.00000000
vn -0.00000000 0.00000000 -1.00000000
vn 0.00000000 1.00000000 -0.00000000
vn 0.00000000 1.00000000 -0.00000000
vn 0.00000000 0.00000000 1.00000000
vn -0.00000000 -0.00000000 -1.00000000
vn -0.86602540 0.50000000 0.00000000
vn -0.86602540 0.50000000 0.00000000
vn -0.00000000 0.00000000 1.00000000
vn 0.00000000 -0.00000000 -1.00000000
vn -0.86602540 -0.50000000 0.00000000
vn -0.86602540 -0.50000000 0.00000000
vn -0.00000000 0.00000000 1.00000000
vn 0.00000000 0.00000000 -1.00000000
vn 0.00000000 -1.00000000 0.00000000
vn 0.00000000 -1.00000000 0.00000000
vn 0.00000000 -0.00000000 1.00000000
vn 0.00000000 0.00000000 -1.00000000
vn 0.86602540 -0.50000000 0.00000000
vn 0.86602540 -0.50000000 0.00000000
vn 0.00000000 -0.00000000 1.00000000
vn 0.00000000 0.00000000 -1.00000000
vn 0.86602540 0.50000000 0.00000000
vn 0.86602540 0.50000000 -0.00000000
vn 0.00000000 0.00000000 1.00000000
vn -0.00000000 0.00000000 -1.00000000
vn 0.00000000 1.00000000 -0.00000000
vn 0.00000000 1.00000000 -0.00000000
vn 0.00000000 0.00000000 1.00000000
vn -0.00000000 -0.00000000 -1.00000000
vn -0.86602540 0.50000000 0.00000000
vn -0.86602540 0.50000000 0.00000000
vn -0.00000000 0.00000000 1.00000000
vn 0.00000000 -0.00000000 -1.00000000
vn -0.86602540 -0.50000000 0.00000000
vn -0.86602540 -0.50000000 0.00000000
vn -0.00000000 0.00000000 1.00000000
vn 0.00000000 0.00000000 -1.00000000
vn 0.00000000 -1.00000000 0.00000000
vn 0.00000000 -1.00000000 0.00000000
vn 0.00000000 -0.00000000 1.00000000
vn 0.00000000 0.00000000 -1.00000000
vn 0.86602540 -0.50000000 0.00000000
vn 0.86602540 -0.50000000 0.00000000
vn 0.00000000 -0.00000000 1.00000000
f 2/1/1 1/1/1 5/1/1
f 2/1/2 5/1/2 3/1/2
f 3/1/3 5/1/3 6/1/3
f 3/1/4 6/1/4 4/1/4
f 5/1/5 1/1/5 7/1/5
f 5/1/6 7/1/6 6/1/6
f 6/1/7 7/1/7 8/1/7
f 6/1/8 8/1/8 4/1/8
f 7/1/9 1/1/9 9/1/9
f 7/1/10 9/1/10 8/1/10
f 8/1/11 9/1/11 10/1/11
f 8/1/12 10/1/12 4/1/12
f 9/1/13 1/1/13 11/1/13
f 9/1/14 11/1/14 10/1/14
f 10/1/15 11/1/15 12/1/15
f 10/1/16 12/1/16 4/1/16
f 11/1/17 1/1/17 13/1/17
f 11/1/18 13/1/18 12/1/18
f 12/1/19 13/1/19 14/1/19
f 12/1/20 14/1/20 4/1/20
f 13/1/21 1/1/21 15/1/21
f 13/1/22 15/1/22 14/1/22
f 14/1/23 15/1/23 16/1/23
f 14/1/24 16/1/24 4/1/24
f 15/1/25 1/1/25 17/1/25
f 15/1/26 17/1/26 16/1/26
f 16/1/27 17/1/27 18/1/27
f 16/1/28 18/1/28 4/1/28
f 17/1/29 1/1/29 2/1/29
f 17/1/30 2/1/30 18/1/30
f 18/1/31 2/1/31 3/1/31
f 18/1/32 3/1/32 4/1/32
f 20/1/33 22/1/33 19/1/33
f 23/1/34 20/1/34 19/1/34
f 19/1/35 22/1/35 21/1/35
f 21/1/36 23/1/36 19/1/36
f 20/1/37 26/1/37 22/1/37
f 24/1/38 20/1/38 23/1/38
f 24/1/39 26/1/39 20/1/39
f 22/1/40 26/1/40 21/1/40
f 25/1/41 23/1/41 21/1/41
f 21/1/42 26/1/42 25/1/42
f 25/1/43 24/1/43 23/1/43
f 26/1/44 24/1/44 25/1/44
f 28/6/45 27/6/45 31/6/45
f 28/6/46 31/6/46 29/6/46
f 29/6/47 31/6/47 32/6/47
f 29/6/48 32/6/48 30/6/48
f 31/6/49 27/6/49 33/6/49
f 31/6/50 33/6/50 32/6/50
f 32/6/51 33/6/51 34/6/51
f 32/6/52 34/6/52 30/6/52
f 33/6/53 27/6/53 35/6/53
f 33/6/54 35/6/54 34/6/54
f 34/6/55 35/6/55 36/6/55
f 34/6/56 36/6/56 30/6/56
f 35/6/57 27/6/57 37/6/57
f 35/6/58 37/6/58 36/6/58
f 36/6/59 37/6/59 38/6/59
f 36/6/60 38/6/60 30/6/60
f 37/6/61 27/6/61 39/6/61
f 37/6/62 39/6/62 38/6/62
f 38/6/63 39/6/63 40/6/63
f 38/6/64 40/6/64 30/6/64
f 39/6/65 27/6/65 28/6/65
f 39/6/66 28/6/66 40/6/66
f 40/6/67 28/6/67 29/6/67
f 40/6/68 29/6/68 30/6/68
f 42/6/69 41/6/69 45/6/69
f 42/6/70 45/6/70 43/6/70
f 43/6/71 45/6/71 46/6/71
f 43/6/72 46/6/72 44/6/72
f 45/6/73 41/6/73 47/6/73
f 45/6/74 47/6/74 46/6/74
f 46/6/75 47/6/75 48/6/75
f 46/6/76 48/6/76 44/6/76
f 47/6/77 41/6/77 49/6/77
f 47/6/78 49/6/78 48/6/78
f 48/6/79 49/6/79 50/6/79
f 48/6/80 50/6/80 44/6/80
f 49/6/81 41/6/81 51/6/81
f 49/6/82 51/6/82 50/6/82
f 50/6/83 51/6/83 52/6/83
f 50/6/84 52/6/84 44/6/84
f 51/6/85 41/6/85 53/6/85
f 51/6/86 53/6/86 52/6/86
f 52/6/87 53/6/87 54/6/87
f 52/6/88 54/6/88 44/6/88
f 53/6/89 41/6/89 42/6/89
f 53/6/90 42/6/90 54/6/90
f 54/6/91 42/6/91 43/6/91
f 54/6/92 43/6/92 44/6/92
