# Bastion Base Structures — generated original low-poly asset
# Coordinates: meters, +Y up, +Z forward
mtllib Bastion_Structures.mtl
o Bastion_Refinery_LOD1
g Bastion_Refinery_LOD1
usemtl BastionPalette
s off
vt 0.04545455 0.50000000
vt 0.13636364 0.50000000
vt 0.22727273 0.50000000
vt 0.31818182 0.50000000
vt 0.40909091 0.50000000
vt 0.50000000 0.50000000
vt 0.59090909 0.50000000
vt 0.68181818 0.50000000
vt 0.77272727 0.50000000
vt 0.86363636 0.50000000
vt 0.95454545 0.50000000
# piece Refinery_LOD1_Pad palette=Concrete
v -4.60000000 0.00000000 -4.00000000
v -4.60000000 0.00000000 4.00000000
v -4.60000000 0.24000000 -4.00000000
v -4.60000000 0.24000000 4.00000000
v 4.60000000 0.00000000 -4.00000000
v 4.60000000 0.00000000 4.00000000
v 4.60000000 0.24000000 -4.00000000
v 4.60000000 0.24000000 4.00000000
vn -1.00000000 0.00000000 -0.00000000
vn -0.00000000 -1.00000000 -0.00000000
vn -1.00000000 0.00000000 0.00000000
vn -0.00000000 -0.00000000 -1.00000000
vn 0.00000000 -0.00000000 1.00000000
vn -0.00000000 -1.00000000 -0.00000000
vn 0.00000000 -0.00000000 1.00000000
vn -0.00000000 1.00000000 0.00000000
vn -0.00000000 -0.00000000 -1.00000000
vn -0.00000000 1.00000000 0.00000000
vn 1.00000000 0.00000000 0.00000000
vn 1.00000000 0.00000000 0.00000000
# piece Refinery_LOD1_Block palette=Armor
v -2.20000000 0.20500000 -2.55000000
v -2.20000000 0.20500000 1.65000000
v -2.20000000 2.55500000 -2.55000000
v -2.20000000 2.55500000 1.65000000
v 2.60000000 0.20500000 -2.55000000
v 2.60000000 0.20500000 1.65000000
v 2.60000000 2.55500000 -2.55000000
v 2.60000000 2.55500000 1.65000000
vn -1.00000000 0.00000000 -0.00000000
vn -0.00000000 -1.00000000 -0.00000000
vn -1.00000000 0.00000000 0.00000000
vn -0.00000000 -0.00000000 -1.00000000
vn 0.00000000 -0.00000000 1.00000000
vn -0.00000000 -1.00000000 -0.00000000
vn 0.00000000 -0.00000000 1.00000000
vn -0.00000000 1.00000000 0.00000000
vn -0.00000000 -0.00000000 -1.00000000
vn -0.00000000 1.00000000 0.00000000
vn 1.00000000 0.00000000 0.00000000
vn 1.00000000 0.00000000 0.00000000
# piece Refinery_LOD1_Silo palette=Armor
v -2.55000000 0.12500000 -0.75000000
v -1.20000000 0.12500000 -0.75000000
v -1.20000000 4.77500000 -0.75000000
v -2.55000000 4.77500000 -0.75000000
v -1.59540585 0.12500000 -1.70459415
v -1.59540585 4.77500000 -1.70459415
v -2.55000000 0.12500000 -2.10000000
v -2.55000000 4.77500000 -2.10000000
v -3.50459415 0.12500000 -1.70459415
v -3.50459415 4.77500000 -1.70459415
v -3.90000000 0.12500000 -0.75000000
v -3.90000000 4.77500000 -0.75000000
v -3.50459415 0.12500000 0.20459415
v -3.50459415 4.77500000 0.20459415
v -2.55000000 0.12500000 0.60000000
v -2.55000000 4.77500000 0.60000000
v -1.59540585 0.12500000 0.20459415
v -1.59540585 4.77500000 0.20459415
vn -0.00000000 -1.00000000 -0.00000000
vn 0.92387953 0.00000000 -0.38268343
vn 0.92387953 0.00000000 -0.38268343
vn 0.00000000 1.00000000 0.00000000
vn -0.00000000 -1.00000000 -0.00000000
vn 0.38268343 0.00000000 -0.92387953
vn 0.38268343 0.00000000 -0.92387953
vn 0.00000000 1.00000000 -0.00000000
vn -0.00000000 -1.00000000 0.00000000
vn -0.38268343 0.00000000 -0.92387953
vn -0.38268343 0.00000000 -0.92387953
vn 0.00000000 1.00000000 -0.00000000
vn -0.00000000 -1.00000000 0.00000000
vn -0.92387953 0.00000000 -0.38268343
vn -0.92387953 0.00000000 -0.38268343
vn 0.00000000 1.00000000 -0.00000000
vn 0.00000000 -1.00000000 0.00000000
vn -0.92387953 -0.00000000 0.38268343
vn -0.92387953 -0.00000000 0.38268343
vn -0.00000000 1.00000000 0.00000000
vn 0.00000000 -1.00000000 0.00000000
vn -0.38268343 -0.00000000 0.92387953
vn -0.38268343 -0.00000000 0.92387953
vn -0.00000000 1.00000000 0.00000000
vn 0.00000000 -1.00000000 0.00000000
vn 0.38268343 -0.00000000 0.92387953
vn 0.38268343 -0.00000000 0.92387953
vn 0.00000000 1.00000000 0.00000000
vn 0.00000000 -1.00000000 -0.00000000
vn 0.92387953 -0.00000000 0.38268343
vn 0.92387953 -0.00000000 0.38268343
vn 0.00000000 1.00000000 0.00000000
# piece Refinery_LOD1_Tank palette=Armor
v 2.75000000 0.13000000 -1.55000000
v 3.70000000 0.13000000 -1.55000000
v 3.70000000 3.43000000 -1.55000000
v 2.75000000 3.43000000 -1.55000000
v 3.42175144 0.13000000 -2.22175144
v 3.42175144 3.43000000 -2.22175144
v 2.75000000 0.13000000 -2.50000000
v 2.75000000 3.43000000 -2.50000000
v 2.07824856 0.13000000 -2.22175144
v 2.07824856 3.43000000 -2.22175144
v 1.80000000 0.13000000 -1.55000000
v 1.80000000 3.43000000 -1.55000000
v 2.07824856 0.13000000 -0.87824856
v 2.07824856 3.43000000 -0.87824856
v 2.75000000 0.13000000 -0.60000000
v 2.75000000 3.43000000 -0.60000000
v 3.42175144 0.13000000 -0.87824856
v 3.42175144 3.43000000 -0.87824856
vn -0.00000000 -1.00000000 -0.00000000
vn 0.92387953 0.00000000 -0.38268343
vn 0.92387953 0.00000000 -0.38268343
vn 0.00000000 1.00000000 0.00000000
vn -0.00000000 -1.00000000 -0.00000000
vn 0.38268343 0.00000000 -0.92387953
vn 0.38268343 0.00000000 -0.92387953
vn 0.00000000 1.00000000 -0.00000000
vn -0.00000000 -1.00000000 0.00000000
vn -0.38268343 0.00000000 -0.92387953
vn -0.38268343 0.00000000 -0.92387953
vn 0.00000000 1.00000000 -0.00000000
vn -0.00000000 -1.00000000 0.00000000
vn -0.92387953 0.00000000 -0.38268343
vn -0.92387953 0.00000000 -0.38268343
vn 0.00000000 1.00000000 -0.00000000
vn 0.00000000 -1.00000000 0.00000000
vn -0.92387953 -0.00000000 0.38268343
vn -0.92387953 -0.00000000 0.38268343
vn -0.00000000 1.00000000 0.00000000
vn 0.00000000 -1.00000000 0.00000000
vn -0.38268343 -0.00000000 0.92387953
vn -0.38268343 -0.00000000 0.92387953
vn -0.00000000 1.00000000 0.00000000
vn 0.00000000 -1.00000000 0.00000000
vn 0.38268343 -0.00000000 0.92387953
vn 0.38268343 -0.00000000 0.92387953
vn 0.00000000 1.00000000 0.00000000
vn 0.00000000 -1.00000000 -0.00000000
vn 0.92387953 -0.00000000 0.38268343
vn 0.92387953 -0.00000000 0.38268343
vn 0.00000000 1.00000000 0.00000000
# piece Refinery_LOD1_Dock palette=Secondary
v 1.35000000 0.20000000 0.15000000
v 1.35000000 0.20000000 2.75000000
v 1.35000000 1.70000000 0.15000000
v 1.35000000 1.70000000 2.75000000
v 3.85000000 0.20000000 0.15000000
v 3.85000000 0.20000000 2.75000000
v 3.85000000 1.70000000 0.15000000
v 3.85000000 1.70000000 2.75000000
vn -1.00000000 0.00000000 -0.00000000
vn -0.00000000 -1.00000000 -0.00000000
vn -1.00000000 0.00000000 0.00000000
vn -0.00000000 -0.00000000 -1.00000000
vn 0.00000000 -0.00000000 1.00000000
vn -0.00000000 -1.00000000 -0.00000000
vn 0.00000000 -0.00000000 1.00000000
vn -0.00000000 1.00000000 0.00000000
vn -0.00000000 -0.00000000 -1.00000000
vn -0.00000000 1.00000000 0.00000000
vn 1.00000000 0.00000000 0.00000000
vn 1.00000000 0.00000000 0.00000000
f 2/3/1 4/3/1 1/3/1
f 5/3/2 2/3/2 1/3/2
f 1/3/3 4/3/3 3/3/3
f 3/3/4 5/3/4 1/3/4
f 2/3/5 8/3/5 4/3/5
f 6/3/6 2/3/6 5/3/6
f 6/3/7 8/3/7 2/3/7
f 4/3/8 8/3/8 3/3/8
f 7/3/9 5/3/9 3/3/9
f 3/3/10 8/3/10 7/3/10
f 7/3/11 6/3/11 5/3/11
f 8/3/12 6/3/12 7/3/12
f 10/1/13 12/1/13 9/1/13
f 13/1/14 10/1/14 9/1/14
f 9/1/15 12/1/15 11/1/15
f 11/1/16 13/1/16 9/1/16
f 10/1/17 16/1/17 12/1/17
f 14/1/18 10/1/18 13/1/18
f 14/1/19 16/1/19 10/1/19
f 12/1/20 16/1/20 11/1/20
f 15/1/21 13/1/21 11/1/21
f 11/1/22 16/1/22 15/1/22
f 15/1/23 14/1/23 13/1/23
f 16/1/24 14/1/24 15/1/24
f 18/1/25 17/1/25 21/1/25
f 18/1/26 21/1/26 19/1/26
f 19/1/27 21/1/27 22/1/27
f 19/1/28 22/1/28 20/1/28
f 21/1/29 17/1/29 23/1/29
f 21/1/30 23/1/30 22/1/30
f 22/1/31 23/1/31 24/1/31
f 22/1/32 24/1/32 20/1/32
f 23/1/33 17/1/33 25/1/33
f 23/1/34 25/1/34 24/1/34
f 24/1/35 25/1/35 26/1/35
f 24/1/36 26/1/36 20/1/36
f 25/1/37 17/1/37 27/1/37
f 25/1/38 27/1/38 26/1/38
f 26/1/39 27/1/39 28/1/39
f 26/1/40 28/1/40 20/1/40
f 27/1/41 17/1/41 29/1/41
f 27/1/42 29/1/42 28/1/42
f 28/1/43 29/1/43 30/1/43
f 28/1/44 30/1/44 20/1/44
f 29/1/45 17/1/45 31/1/45
f 29/1/46 31/1/46 30/1/46
f 30/1/47 31/1/47 32/1/47
f 30/1/48 32/1/48 20/1/48
f 31/1/49 17/1/49 33/1/49
f 31/1/50 33/1/50 32/1/50
f 32/1/51 33/1/51 34/1/51
f 32/1/52 34/1/52 20/1/52
f 33/1/53 17/1/53 18/1/53
f 33/1/54 18/1/54 34/1/54
f 34/1/55 18/1/55 19/1/55
f 34/1/56 19/1/56 20/1/56
f 36/1/57 35/1/57 39/1/57
f 36/1/58 39/1/58 37/1/58
f 37/1/59 39/1/59 40/1/59
f 37/1/60 40/1/60 38/1/60
f 39/1/61 35/1/61 41/1/61
f 39/1/62 41/1/62 40/1/62
f 40/1/63 41/1/63 42/1/63
f 40/1/64 42/1/64 38/1/64
f 41/1/65 35/1/65 43/1/65
f 41/1/66 43/1/66 42/1/66
f 42/1/67 43/1/67 44/1/67
f 42/1/68 44/1/68 38/1/68
f 43/1/69 35/1/69 45/1/69
f 43/1/70 45/1/70 44/1/70
f 44/1/71 45/1/71 46/1/71
f 44/1/72 46/1/72 38/1/72
f 45/1/73 35/1/73 47/1/73
f 45/1/74 47/1/74 46/1/74
f 46/1/75 47/1/75 48/1/75
f 46/1/76 48/1/76 38/1/76
f 47/1/77 35/1/77 49/1/77
f 47/1/78 49/1/78 48/1/78
f 48/1/79 49/1/79 50/1/79
f 48/1/80 50/1/80 38/1/80
f 49/1/81 35/1/81 51/1/81
f 49/1/82 51/1/82 50/1/82
f 50/1/83 51/1/83 52/1/83
f 50/1/84 52/1/84 38/1/84
f 51/1/85 35/1/85 36/1/85
f 51/1/86 36/1/86 52/1/86
f 52/1/87 36/1/87 37/1/87
f 52/1/88 37/1/88 38/1/88
f 54/2/89 56/2/89 53/2/89
f 57/2/90 54/2/90 53/2/90
f 53/2/91 56/2/91 55/2/91
f 55/2/92 57/2/92 53/2/92
f 54/2/93 60/2/93 56/2/93
f 58/2/94 54/2/94 57/2/94
f 58/2/95 60/2/95 54/2/95
f 56/2/96 60/2/96 55/2/96
f 59/2/97 57/2/97 55/2/97
f 55/2/98 60/2/98 59/2/98
f 59/2/99 58/2/99 57/2/99
f 60/2/100 58/2/100 59/2/100
