# Bastion Base Structures — generated original low-poly asset
# Coordinates: meters, +Y up, +Z forward
mtllib Bastion_Structures.mtl
o Bastion_Turret_Base
g Bastion_Turret_Base
usemtl BastionPalette
s off
vt 0.04545455 0.50000000
vt 0.13636364 0.50000000
vt 0.22727273 0.50000000
vt 0.31818182 0.50000000
vt 0.40909091 0.50000000
vt 0.50000000 0.50000000
vt 0.59090909 0.50000000
vt 0.68181818 0.50000000
vt 0.77272727 0.50000000
vt 0.86363636 0.50000000
vt 0.95454545 0.50000000
# piece TurretBase_Armor palette=Armor
v 0.00000000 0.00500000 -0.00000000
v 1.45000000 0.00500000 -0.00000000
v 1.45000000 0.65500000 0.00000000
v 0.00000000 0.65500000 0.00000000
v 1.25573684 0.00500000 -0.72500000
v 1.25573684 0.65500000 -0.72500000
v 0.72500000 0.00500000 -1.25573684
v 0.72500000 0.65500000 -1.25573684
v 0.00000000 0.00500000 -1.45000000
v 0.00000000 0.65500000 -1.45000000
v -0.72500000 0.00500000 -1.25573684
v -0.72500000 0.65500000 -1.25573684
v -1.25573684 0.00500000 -0.72500000
v -1.25573684 0.65500000 -0.72500000
v -1.45000000 0.00500000 -0.00000000
v -1.45000000 0.65500000 -0.00000000
v -1.25573684 0.00500000 0.72500000
v -1.25573684 0.65500000 0.72500000
v -0.72500000 0.00500000 1.25573684
v -0.72500000 0.65500000 1.25573684
v -0.00000000 0.00500000 1.45000000
v -0.00000000 0.65500000 1.45000000
v 0.72500000 0.00500000 1.25573684
v 0.72500000 0.65500000 1.25573684
v 1.25573684 0.00500000 0.72500000
v 1.25573684 0.65500000 0.72500000
v 0.00000000 0.60500000 -0.00000000
v 1.10000000 0.60500000 -0.00000000
v 1.10000000 1.15500000 0.00000000
v 0.00000000 1.15500000 0.00000000
v 0.95262794 0.60500000 -0.55000000
v 0.95262794 1.15500000 -0.55000000
v 0.55000000 0.60500000 -0.95262794
v 0.55000000 1.15500000 -0.95262794
v 0.00000000 0.60500000 -1.10000000
v 0.00000000 1.15500000 -1.10000000
v -0.55000000 0.60500000 -0.95262794
v -0.55000000 1.15500000 -0.95262794
v -0.95262794 0.60500000 -0.55000000
v -0.95262794 1.15500000 -0.55000000
v -1.10000000 0.60500000 -0.00000000
v -1.10000000 1.15500000 -0.00000000
v -0.95262794 0.60500000 0.55000000
v -0.95262794 1.15500000 0.55000000
v -0.55000000 0.60500000 0.95262794
v -0.55000000 1.15500000 0.95262794
v -0.00000000 0.60500000 1.10000000
v -0.00000000 1.15500000 1.10000000
v 0.55000000 0.60500000 0.95262794
v 0.55000000 1.15500000 0.95262794
v 0.95262794 0.60500000 0.55000000
v 0.95262794 1.15500000 0.55000000
vn -0.00000000 -1.00000000 -0.00000000
vn 0.96592583 0.00000000 -0.25881905
vn 0.96592583 0.00000000 -0.25881905
vn 0.00000000 1.00000000 0.00000000
vn 0.00000000 -1.00000000 -0.00000000
vn 0.70710678 0.00000000 -0.70710678
vn 0.70710678 0.00000000 -0.70710678
vn 0.00000000 1.00000000 0.00000000
vn -0.00000000 -1.00000000 -0.00000000
vn 0.25881905 0.00000000 -0.96592583
vn 0.25881905 0.00000000 -0.96592583
vn 0.00000000 1.00000000 0.00000000
vn 0.00000000 -1.00000000 -0.00000000
vn -0.25881905 0.00000000 -0.96592583
vn -0.25881905 0.00000000 -0.96592583
vn -0.00000000 1.00000000 0.00000000
vn -0.00000000 -1.00000000 -0.00000000
vn -0.70710678 0.00000000 -0.70710678
vn -0.70710678 0.00000000 -0.70710678
vn 0.00000000 1.00000000 -0.00000000
vn 0.00000000 -1.00000000 -0.00000000
vn -0.96592583 0.00000000 -0.25881905
vn -0.96592583 0.00000000 -0.25881905
vn 0.00000000 1.00000000 -0.00000000
vn 0.00000000 -1.00000000 -0.00000000
vn -0.96592583 0.00000000 0.25881905
vn -0.96592583 0.00000000 0.25881905
vn -0.00000000 1.00000000 0.00000000
vn 0.00000000 -1.00000000 -0.00000000
vn -0.70710678 0.00000000 0.70710678
vn -0.70710678 0.00000000 0.70710678
vn -0.00000000 1.00000000 0.00000000
vn -0.00000000 -1.00000000 -0.00000000
vn -0.25881905 0.00000000 0.96592583
vn -0.25881905 0.00000000 0.96592583
vn 0.00000000 1.00000000 0.00000000
vn 0.00000000 -1.00000000 -0.00000000
vn 0.25881905 0.00000000 0.96592583
vn 0.25881905 -0.00000000 0.96592583
vn -0.00000000 1.00000000 0.00000000
vn -0.00000000 -1.00000000 -0.00000000
vn 0.70710678 0.00000000 0.70710678
vn 0.70710678 -0.00000000 0.70710678
vn 0.00000000 1.00000000 0.00000000
vn 0.00000000 -1.00000000 -0.00000000
vn 0.96592583 0.00000000 0.25881905
vn 0.96592583 -0.00000000 0.25881905
vn 0.00000000 1.00000000 0.00000000
vn -0.00000000 -1.00000000 -0.00000000
vn 0.96592583 0.00000000 -0.25881905
vn 0.96592583 0.00000000 -0.25881905
vn 0.00000000 1.00000000 0.00000000
vn -0.00000000 -1.00000000 -0.00000000
vn 0.70710678 0.00000000 -0.70710678
vn 0.70710678 0.00000000 -0.70710678
vn 0.00000000 1.00000000 0.00000000
vn -0.00000000 -1.00000000 -0.00000000
vn 0.25881905 0.00000000 -0.96592583
vn 0.25881905 0.00000000 -0.96592583
vn 0.00000000 1.00000000 0.00000000
vn -0.00000000 -1.00000000 0.00000000
vn -0.25881905 0.00000000 -0.96592583
vn -0.25881905 0.00000000 -0.96592583
vn 0.00000000 1.00000000 -0.00000000
vn -0.00000000 -1.00000000 0.00000000
vn -0.70710678 0.00000000 -0.70710678
vn -0.70710678 0.00000000 -0.70710678
vn 0.00000000 1.00000000 -0.00000000
vn -0.00000000 -1.00000000 0.00000000
vn -0.96592583 0.00000000 -0.25881905
vn -0.96592583 0.00000000 -0.25881905
vn 0.00000000 1.00000000 -0.00000000
vn 0.00000000 -1.00000000 0.00000000
vn -0.96592583 0.00000000 0.25881905
vn -0.96592583 0.00000000 0.25881905
vn -0.00000000 1.00000000 0.00000000
vn 0.00000000 -1.00000000 0.00000000
vn -0.70710678 0.00000000 0.70710678
vn -0.70710678 0.00000000 0.70710678
vn -0.00000000 1.00000000 0.00000000
vn 0.00000000 -1.00000000 0.00000000
vn -0.25881905 0.00000000 0.96592583
vn -0.25881905 0.00000000 0.96592583
vn -0.00000000 1.00000000 0.00000000
vn 0.00000000 -1.00000000 0.00000000
vn 0.25881905 0.00000000 0.96592583
vn 0.25881905 -0.00000000 0.96592583
vn 0.00000000 1.00000000 0.00000000
vn 0.00000000 -1.00000000 -0.00000000
vn 0.70710678 0.00000000 0.70710678
vn 0.70710678 -0.00000000 0.70710678
vn 0.00000000 1.00000000 0.00000000
vn 0.00000000 -1.00000000 -0.00000000
vn 0.96592583 0.00000000 0.25881905
vn 0.96592583 -0.00000000 0.25881905
vn 0.00000000 1.00000000 0.00000000
# piece TurretBase_Concrete palette=Concrete
v -1.70000000 0.00000000 -1.70000000
v -1.70000000 0.00000000 1.70000000
v -1.70000000 0.20000000 -1.70000000
v -1.70000000 0.20000000 1.70000000
v 1.70000000 0.00000000 -1.70000000
v 1.70000000 0.00000000 1.70000000
v 1.70000000 0.20000000 -1.70000000
v 1.70000000 0.20000000 1.70000000
vn -1.00000000 0.00000000 -0.00000000
vn -0.00000000 -1.00000000 -0.00000000
vn -1.00000000 0.00000000 0.00000000
vn -0.00000000 -0.00000000 -1.00000000
vn 0.00000000 -0.00000000 1.00000000
vn -0.00000000 -1.00000000 -0.00000000
vn 0.00000000 -0.00000000 1.00000000
vn -0.00000000 1.00000000 0.00000000
vn -0.00000000 -0.00000000 -1.00000000
vn -0.00000000 1.00000000 0.00000000
vn 1.00000000 0.00000000 0.00000000
vn 1.00000000 0.00000000 0.00000000
# piece TurretBase_Accent palette=Accent
v 1.17500000 0.92000000 0.00000000
v 1.13699593 0.86769189 0.00000000
v 1.07550407 0.88767181 0.00000000
v 1.07550407 0.95232819 -0.00000000
v 1.13699593 0.97230811 -0.00000000
v 1.08555845 0.92000000 0.44965303
v 1.05044727 0.86769189 0.43510951
v 0.99363619 0.88767181 0.41157759
v 0.99363619 0.95232819 0.41157759
v 1.05044727 0.97230811 0.43510951
v 0.83085047 0.92000000 0.83085047
v 0.80397754 0.86769189 0.80397754
v 0.76049622 0.88767181 0.76049622
v 0.76049622 0.95232819 0.76049622
v 0.80397754 0.97230811 0.80397754
v 0.44965303 0.92000000 1.08555845
v 0.43510951 0.86769189 1.05044727
v 0.41157759 0.88767181 0.99363619
v 0.41157759 0.95232819 0.99363619
v 0.43510951 0.97230811 1.05044727
v 0.00000000 0.92000000 1.17500000
v 0.00000000 0.86769189 1.13699593
v 0.00000000 0.88767181 1.07550407
v 0.00000000 0.95232819 1.07550407
v 0.00000000 0.97230811 1.13699593
v -0.44965303 0.92000000 1.08555845
v -0.43510951 0.86769189 1.05044727
v -0.41157759 0.88767181 0.99363619
v -0.41157759 0.95232819 0.99363619
v -0.43510951 0.97230811 1.05044727
v -0.83085047 0.92000000 0.83085047
v -0.80397754 0.86769189 0.80397754
v -0.76049622 0.88767181 0.76049622
v -0.76049622 0.95232819 0.76049622
v -0.80397754 0.97230811 0.80397754
v -1.08555845 0.92000000 0.44965303
v -1.05044727 0.86769189 0.43510951
v -0.99363619 0.88767181 0.41157759
v -0.99363619 0.95232819 0.41157759
v -1.05044727 0.97230811 0.43510951
v -1.17500000 0.92000000 0.00000000
v -1.13699593 0.86769189 0.00000000
v -1.07550407 0.88767181 0.00000000
v -1.07550407 0.95232819 0.00000000
v -1.13699593 0.97230811 0.00000000
v -1.08555845 0.92000000 -0.44965303
v -1.05044727 0.86769189 -0.43510951
v -0.99363619 0.88767181 -0.41157759
v -0.99363619 0.95232819 -0.41157759
v -1.05044727 0.97230811 -0.43510951
v -0.83085047 0.92000000 -0.83085047
v -0.80397754 0.86769189 -0.80397754
v -0.76049622 0.88767181 -0.76049622
v -0.76049622 0.95232819 -0.76049622
v -0.80397754 0.97230811 -0.80397754
v -0.44965303 0.92000000 -1.08555845
v -0.43510951 0.86769189 -1.05044727
v -0.41157759 0.88767181 -0.99363619
v -0.41157759 0.95232819 -0.99363619
v -0.43510951 0.97230811 -1.05044727
v -0.00000000 0.92000000 -1.17500000
v -0.00000000 0.86769189 -1.13699593
v -0.00000000 0.88767181 -1.07550407
v -0.00000000 0.95232819 -1.07550407
v -0.00000000 0.97230811 -1.13699593
v 0.44965303 0.92000000 -1.08555845
v 0.43510951 0.86769189 -1.05044727
v 0.41157759 0.88767181 -0.99363619
v 0.41157759 0.95232819 -0.99363619
v 0.43510951 0.97230811 -1.05044727
v 0.83085047 0.92000000 -0.83085047
v 0.80397754 0.86769189 -0.80397754
v 0.76049622 0.88767181 -0.76049622
v 0.76049622 0.95232819 -0.76049622
v 0.80397754 0.97230811 -0.80397754
v 1.08555845 0.92000000 -0.44965303
v 1.05044727 0.86769189 -0.43510951
v 0.99363619 0.88767181 -0.41157759
v 0.99363619 0.95232819 -0.41157759
v 1.05044727 0.97230811 -0.43510951
vn 0.79874085 -0.58031920 0.15887943
vn 0.79874085 -0.58031920 0.15887943
vn -0.30843487 -0.94926494 -0.06135151
vn -0.30843487 -0.94926494 -0.06135151
vn -0.98078528 0.00000000 -0.19509032
vn -0.98078528 0.00000000 -0.19509032
vn -0.30843487 0.94926494 -0.06135151
vn -0.30843487 0.94926494 -0.06135151
vn 0.79874085 0.58031920 0.15887943
vn 0.79874085 0.58031920 0.15887943
vn 0.67713980 -0.58031920 0.45245035
vn 0.67713980 -0.58031920 0.45245035
vn -0.26147846 -0.94926494 -0.17471432
vn -0.26147846 -0.94926494 -0.17471432
vn -0.83146961 0.00000000 -0.55557023
vn -0.83146961 0.00000000 -0.55557023
vn -0.26147846 0.94926494 -0.17471432
vn -0.26147846 0.94926494 -0.17471432
vn 0.67713980 0.58031920 0.45245035
vn 0.67713980 0.58031920 0.45245035
vn 0.45245035 -0.58031920 0.67713980
vn 0.45245035 -0.58031920 0.67713980
vn -0.17471432 -0.94926494 -0.26147846
vn -0.17471432 -0.94926494 -0.26147846
vn -0.55557023 0.00000000 -0.83146961
vn -0.55557023 0.00000000 -0.83146961
vn -0.17471432 0.94926494 -0.26147846
vn -0.17471432 0.94926494 -0.26147846
vn 0.45245035 0.58031920 0.67713980
vn 0.45245035 0.58031920 0.67713980
vn 0.15887943 -0.58031920 0.79874085
vn 0.15887943 -0.58031920 0.79874085
vn -0.06135151 -0.94926494 -0.30843487
vn -0.06135151 -0.94926494 -0.30843487
vn -0.19509032 0.00000000 -0.98078528
vn -0.19509032 0.00000000 -0.98078528
vn -0.06135151 0.94926494 -0.30843487
vn -0.06135151 0.94926494 -0.30843487
vn 0.15887943 0.58031920 0.79874085
vn 0.15887943 0.58031920 0.79874085
vn -0.15887943 -0.58031920 0.79874085
vn -0.15887943 -0.58031920 0.79874085
vn 0.06135151 -0.94926494 -0.30843487
vn 0.06135151 -0.94926494 -0.30843487
vn 0.19509032 0.00000000 -0.98078528
vn 0.19509032 0.00000000 -0.98078528
vn 0.06135151 0.94926494 -0.30843487
vn 0.06135151 0.94926494 -0.30843487
vn -0.15887943 0.58031920 0.79874085
vn -0.15887943 0.58031920 0.79874085
vn -0.45245035 -0.58031920 0.67713980
vn -0.45245035 -0.58031920 0.67713980
vn 0.17471432 -0.94926494 -0.26147846
vn 0.17471432 -0.94926494 -0.26147846
vn 0.55557023 0.00000000 -0.83146961
vn 0.55557023 0.00000000 -0.83146961
vn 0.17471432 0.94926494 -0.26147846
vn 0.17471432 0.94926494 -0.26147846
vn -0.45245035 0.58031920 0.67713980
vn -0.45245035 0.58031920 0.67713980
vn -0.67713980 -0.58031920 0.45245035
vn -0.67713980 -0.58031920 0.45245035
vn 0.26147846 -0.94926494 -0.17471432
vn 0.26147846 -0.94926494 -0.17471432
vn 0.83146961 0.00000000 -0.55557023
vn 0.83146961 0.00000000 -0.55557023
vn 0.26147846 0.94926494 -0.17471432
vn 0.26147846 0.94926494 -0.17471432
vn -0.67713980 0.58031920 0.45245035
vn -0.67713980 0.58031920 0.45245035
vn -0.79874085 -0.58031920 0.15887943
vn -0.79874085 -0.58031920 0.15887943
vn 0.30843487 -0.94926494 -0.06135151
vn 0.30843487 -0.94926494 -0.06135151
vn 0.98078528 0.00000000 -0.19509032
vn 0.98078528 -0.00000000 -0.19509032
vn 0.30843487 0.94926494 -0.06135151
vn 0.30843487 0.94926494 -0.06135151
vn -0.79874085 0.58031920 0.15887943
vn -0.79874085 0.58031920 0.15887943
vn -0.79874085 -0.58031920 -0.15887943
vn -0.79874085 -0.58031920 -0.15887943
vn 0.30843487 -0.94926494 0.06135151
vn 0.30843487 -0.94926494 0.06135151
vn 0.98078528 0.00000000 0.19509032
vn 0.98078528 -0.00000000 0.19509032
vn 0.30843487 0.94926494 0.06135151
vn 0.30843487 0.94926494 0.06135151
vn -0.79874085 0.58031920 -0.15887943
vn -0.79874085 0.58031920 -0.15887943
vn -0.67713980 -0.58031920 -0.45245035
vn -0.67713980 -0.58031920 -0.45245035
vn 0.26147846 -0.94926494 0.17471432
vn 0.26147846 -0.94926494 0.17471432
vn 0.83146961 0.00000000 0.55557023
vn 0.83146961 -0.00000000 0.55557023
vn 0.26147846 0.94926494 0.17471432
vn 0.26147846 0.94926494 0.17471432
vn -0.67713980 0.58031920 -0.45245035
vn -0.67713980 0.58031920 -0.45245035
vn -0.45245035 -0.58031920 -0.67713980
vn -0.45245035 -0.58031920 -0.67713980
vn 0.17471432 -0.94926494 0.26147846
vn 0.17471432 -0.94926494 0.26147846
vn 0.55557023 0.00000000 0.83146961
vn 0.55557023 -0.00000000 0.83146961
vn 0.17471432 0.94926494 0.26147846
vn 0.17471432 0.94926494 0.26147846
vn -0.45245035 0.58031920 -0.67713980
vn -0.45245035 0.58031920 -0.67713980
vn -0.15887943 -0.58031920 -0.79874085
vn -0.15887943 -0.58031920 -0.79874085
vn 0.06135151 -0.94926494 0.30843487
vn 0.06135151 -0.94926494 0.30843487
vn 0.19509032 0.00000000 0.98078528
vn 0.19509032 -0.00000000 0.98078528
vn 0.06135151 0.94926494 0.30843487
vn 0.06135151 0.94926494 0.30843487
vn -0.15887943 0.58031920 -0.79874085
vn -0.15887943 0.58031920 -0.79874085
vn 0.15887943 -0.58031920 -0.79874085
vn 0.15887943 -0.58031920 -0.79874085
vn -0.06135151 -0.94926494 0.30843487
vn -0.06135151 -0.94926494 0.30843487
vn -0.19509032 0.00000000 0.98078528
vn -0.19509032 0.00000000 0.98078528
vn -0.06135151 0.94926494 0.30843487
vn -0.06135151 0.94926494 0.30843487
vn 0.15887943 0.58031920 -0.79874085
vn 0.15887943 0.58031920 -0.79874085
vn 0.45245035 -0.58031920 -0.67713980
vn 0.45245035 -0.58031920 -0.67713980
vn -0.17471432 -0.94926494 0.26147846
vn -0.17471432 -0.94926494 0.26147846
vn -0.55557023 0.00000000 0.83146961
vn -0.55557023 0.00000000 0.83146961
vn -0.17471432 0.94926494 0.26147846
vn -0.17471432 0.94926494 0.26147846
vn 0.45245035 0.58031920 -0.67713980
vn 0.45245035 0.58031920 -0.67713980
vn 0.67713980 -0.58031920 -0.45245035
vn 0.67713980 -0.58031920 -0.45245035
vn -0.26147846 -0.94926494 0.17471432
vn -0.26147846 -0.94926494 0.17471432
vn -0.83146961 0.00000000 0.55557023
vn -0.83146961 0.00000000 0.55557023
vn -0.26147846 0.94926494 0.17471432
vn -0.26147846 0.94926494 0.17471432
vn 0.67713980 0.58031920 -0.45245035
vn 0.67713980 0.58031920 -0.45245035
vn 0.79874085 -0.58031920 -0.15887943
vn 0.79874085 -0.58031920 -0.15887943
vn -0.30843487 -0.94926494 0.06135151
vn -0.30843487 -0.94926494 0.06135151
vn -0.98078528 0.00000000 0.19509032
vn -0.98078528 0.00000000 0.19509032
vn -0.30843487 0.94926494 0.06135151
vn -0.30843487 0.94926494 0.06135151
vn 0.79874085 0.58031920 -0.15887943
vn 0.79874085 0.58031920 -0.15887943
f 2/1/1 1/1/1 5/1/1
f 2/1/2 5/1/2 3/1/2
f 3/1/3 5/1/3 6/1/3
f 3/1/4 6/1/4 4/1/4
f 5/1/5 1/1/5 7/1/5
f 5/1/6 7/1/6 6/1/6
f 6/1/7 7/1/7 8/1/7
f 6/1/8 8/1/8 4/1/8
f 7/1/9 1/1/9 9/1/9
f 7/1/10 9/1/10 8/1/10
f 8/1/11 9/1/11 10/1/11
f 8/1/12 10/1/12 4/1/12
f 9/1/13 1/1/13 11/1/13
f 9/1/14 11/1/14 10/1/14
f 10/1/15 11/1/15 12/1/15
f 10/1/16 12/1/16 4/1/16
f 11/1/17 1/1/17 13/1/17
f 11/1/18 13/1/18 12/1/18
f 12/1/19 13/1/19 14/1/19
f 12/1/20 14/1/20 4/1/20
f 13/1/21 1/1/21 15/1/21
f 13/1/22 15/1/22 14/1/22
f 14/1/23 15/1/23 16/1/23
f 14/1/24 16/1/24 4/1/24
f 15/1/25 1/1/25 17/1/25
f 15/1/26 17/1/26 16/1/26
f 16/1/27 17/1/27 18/1/27
f 16/1/28 18/1/28 4/1/28
f 17/1/29 1/1/29 19/1/29
f 17/1/30 19/1/30 18/1/30
f 18/1/31 19/1/31 20/1/31
f 18/1/32 20/1/32 4/1/32
f 19/1/33 1/1/33 21/1/33
f 19/1/34 21/1/34 20/1/34
f 20/1/35 21/1/35 22/1/35
f 20/1/36 22/1/36 4/1/36
f 21/1/37 1/1/37 23/1/37
f 21/1/38 23/1/38 22/1/38
f 22/1/39 23/1/39 24/1/39
f 22/1/40 24/1/40 4/1/40
f 23/1/41 1/1/41 25/1/41
f 23/1/42 25/1/42 24/1/42
f 24/1/43 25/1/43 26/1/43
f 24/1/44 26/1/44 4/1/44
f 25/1/45 1/1/45 2/1/45
f 25/1/46 2/1/46 26/1/46
f 26/1/47 2/1/47 3/1/47
f 26/1/48 3/1/48 4/1/48
f 28/1/49 27/1/49 31/1/49
f 28/1/50 31/1/50 29/1/50
f 29/1/51 31/1/51 32/1/51
f 29/1/52 32/1/52 30/1/52
f 31/1/53 27/1/53 33/1/53
f 31/1/54 33/1/54 32/1/54
f 32/1/55 33/1/55 34/1/55
f 32/1/56 34/1/56 30/1/56
f 33/1/57 27/1/57 35/1/57
f 33/1/58 35/1/58 34/1/58
f 34/1/59 35/1/59 36/1/59
f 34/1/60 36/1/60 30/1/60
f 35/1/61 27/1/61 37/1/61
f 35/1/62 37/1/62 36/1/62
f 36/1/63 37/1/63 38/1/63
f 36/1/64 38/1/64 30/1/64
f 37/1/65 27/1/65 39/1/65
f 37/1/66 39/1/66 38/1/66
f 38/1/67 39/1/67 40/1/67
f 38/1/68 40/1/68 30/1/68
f 39/1/69 27/1/69 41/1/69
f 39/1/70 41/1/70 40/1/70
f 40/1/71 41/1/71 42/1/71
f 40/1/72 42/1/72 30/1/72
f 41/1/73 27/1/73 43/1/73
f 41/1/74 43/1/74 42/1/74
f 42/1/75 43/1/75 44/1/75
f 42/1/76 44/1/76 30/1/76
f 43/1/77 27/1/77 45/1/77
f 43/1/78 45/1/78 44/1/78
f 44/1/79 45/1/79 46/1/79
f 44/1/80 46/1/80 30/1/80
f 45/1/81 27/1/81 47/1/81
f 45/1/82 47/1/82 46/1/82
f 46/1/83 47/1/83 48/1/83
f 46/1/84 48/1/84 30/1/84
f 47/1/85 27/1/85 49/1/85
f 47/1/86 49/1/86 48/1/86
f 48/1/87 49/1/87 50/1/87
f 48/1/88 50/1/88 30/1/88
f 49/1/89 27/1/89 51/1/89
f 49/1/90 51/1/90 50/1/90
f 50/1/91 51/1/91 52/1/91
f 50/1/92 52/1/92 30/1/92
f 51/1/93 27/1/93 28/1/93
f 51/1/94 28/1/94 52/1/94
f 52/1/95 28/1/95 29/1/95
f 52/1/96 29/1/96 30/1/96
f 54/3/97 56/3/97 53/3/97
f 57/3/98 54/3/98 53/3/98
f 53/3/99 56/3/99 55/3/99
f 55/3/100 57/3/100 53/3/100
f 54/3/101 60/3/101 56/3/101
f 58/3/102 54/3/102 57/3/102
f 58/3/103 60/3/103 54/3/103
f 56/3/104 60/3/104 55/3/104
f 59/3/105 57/3/105 55/3/105
f 55/3/106 60/3/106 59/3/106
f 59/3/107 58/3/107 57/3/107
f 60/3/108 58/3/108 59/3/108
f 61/7/109 66/7/109 62/7/109
f 62/7/110 66/7/110 67/7/110
f 62/7/111 67/7/111 63/7/111
f 63/7/112 67/7/112 68/7/112
f 63/7/113 68/7/113 64/7/113
f 64/7/114 68/7/114 69/7/114
f 64/7/115 69/7/115 65/7/115
f 65/7/116 69/7/116 70/7/116
f 65/7/117 70/7/117 61/7/117
f 61/7/118 70/7/118 66/7/118
f 66/7/119 71/7/119 67/7/119
f 67/7/120 71/7/120 72/7/120
f 67/7/121 72/7/121 68/7/121
f 68/7/122 72/7/122 73/7/122
f 68/7/123 73/7/123 69/7/123
f 69/7/124 73/7/124 74/7/124
f 69/7/125 74/7/125 70/7/125
f 70/7/126 74/7/126 75/7/126
f 70/7/127 75/7/127 66/7/127
f 66/7/128 75/7/128 71/7/128
f 71/7/129 76/7/129 72/7/129
f 72/7/130 76/7/130 77/7/130
f 72/7/131 77/7/131 73/7/131
f 73/7/132 77/7/132 78/7/132
f 73/7/133 78/7/133 74/7/133
f 74/7/134 78/7/134 79/7/134
f 74/7/135 79/7/135 75/7/135
f 75/7/136 79/7/136 80/7/136
f 75/7/137 80/7/137 71/7/137
f 71/7/138 80/7/138 76/7/138
f 76/7/139 81/7/139 77/7/139
f 77/7/140 81/7/140 82/7/140
f 77/7/141 82/7/141 78/7/141
f 78/7/142 82/7/142 83/7/142
f 78/7/143 83/7/143 79/7/143
f 79/7/144 83/7/144 84/7/144
f 79/7/145 84/7/145 80/7/145
f 80/7/146 84/7/146 85/7/146
f 80/7/147 85/7/147 76/7/147
f 76/7/148 85/7/148 81/7/148
f 81/7/149 86/7/149 82/7/149
f 82/7/150 86/7/150 87/7/150
f 82/7/151 87/7/151 83/7/151
f 83/7/152 87/7/152 88/7/152
f 83/7/153 88/7/153 84/7/153
f 84/7/154 88/7/154 89/7/154
f 84/7/155 89/7/155 85/7/155
f 85/7/156 89/7/156 90/7/156
f 85/7/157 90/7/157 81/7/157
f 81/7/158 90/7/158 86/7/158
f 86/7/159 91/7/159 87/7/159
f 87/7/160 91/7/160 92/7/160
f 87/7/161 92/7/161 88/7/161
f 88/7/162 92/7/162 93/7/162
f 88/7/163 93/7/163 89/7/163
f 89/7/164 93/7/164 94/7/164
f 89/7/165 94/7/165 90/7/165
f 90/7/166 94/7/166 95/7/166
f 90/7/167 95/7/167 86/7/167
f 86/7/168 95/7/168 91/7/168
f 91/7/169 96/7/169 92/7/169
f 92/7/170 96/7/170 97/7/170
f 92/7/171 97/7/171 93/7/171
f 93/7/172 97/7/172 98/7/172
f 93/7/173 98/7/173 94/7/173
f 94/7/174 98/7/174 99/7/174
f 94/7/175 99/7/175 95/7/175
f 95/7/176 99/7/176 100/7/176
f 95/7/177 100/7/177 91/7/177
f 91/7/178 100/7/178 96/7/178
f 96/7/179 101/7/179 97/7/179
f 97/7/180 101/7/180 102/7/180
f 97/7/181 102/7/181 98/7/181
f 98/7/182 102/7/182 103/7/182
f 98/7/183 103/7/183 99/7/183
f 99/7/184 103/7/184 104/7/184
f 99/7/185 104/7/185 100/7/185
f 100/7/186 104/7/186 105/7/186
f 100/7/187 105/7/187 96/7/187
f 96/7/188 105/7/188 101/7/188
f 101/7/189 106/7/189 102/7/189
f 102/7/190 106/7/190 107/7/190
f 102/7/191 107/7/191 103/7/191
f 103/7/192 107/7/192 108/7/192
f 103/7/193 108/7/193 104/7/193
f 104/7/194 108/7/194 109/7/194
f 104/7/195 109/7/195 105/7/195
f 105/7/196 109/7/196 110/7/196
f 105/7/197 110/7/197 101/7/197
f 101/7/198 110/7/198 106/7/198
f 106/7/199 111/7/199 107/7/199
f 107/7/200 111/7/200 112/7/200
f 107/7/201 112/7/201 108/7/201
f 108/7/202 112/7/202 113/7/202
f 108/7/203 113/7/203 109/7/203
f 109/7/204 113/7/204 114/7/204
f 109/7/205 114/7/205 110/7/205
f 110/7/206 114/7/206 115/7/206
f 110/7/207 115/7/207 106/7/207
f 106/7/208 115/7/208 111/7/208
f 111/7/209 116/7/209 112/7/209
f 112/7/210 116/7/210 117/7/210
f 112/7/211 117/7/211 113/7/211
f 113/7/212 117/7/212 118/7/212
f 113/7/213 118/7/213 114/7/213
f 114/7/214 118/7/214 119/7/214
f 114/7/215 119/7/215 115/7/215
f 115/7/216 119/7/216 120/7/216
f 115/7/217 120/7/217 111/7/217
f 111/7/218 120/7/218 116/7/218
f 116/7/219 121/7/219 117/7/219
f 117/7/220 121/7/220 122/7/220
f 117/7/221 122/7/221 118/7/221
f 118/7/222 122/7/222 123/7/222
f 118/7/223 123/7/223 119/7/223
f 119/7/224 123/7/224 124/7/224
f 119/7/225 124/7/225 120/7/225
f 120/7/226 124/7/226 125/7/226
f 120/7/227 125/7/227 116/7/227
f 116/7/228 125/7/228 121/7/228
f 121/7/229 126/7/229 122/7/229
f 122/7/230 126/7/230 127/7/230
f 122/7/231 127/7/231 123/7/231
f 123/7/232 127/7/232 128/7/232
f 123/7/233 128/7/233 124/7/233
f 124/7/234 128/7/234 129/7/234
f 124/7/235 129/7/235 125/7/235
f 125/7/236 129/7/236 130/7/236
f 125/7/237 130/7/237 121/7/237
f 121/7/238 130/7/238 126/7/238
f 126/7/239 131/7/239 127/7/239
f 127/7/240 131/7/240 132/7/240
f 127/7/241 132/7/241 128/7/241
f 128/7/242 132/7/242 133/7/242
f 128/7/243 133/7/243 129/7/243
f 129/7/244 133/7/244 134/7/244
f 129/7/245 134/7/245 130/7/245
f 130/7/246 134/7/246 135/7/246
f 130/7/247 135/7/247 126/7/247
f 126/7/248 135/7/248 131/7/248
f 131/7/249 136/7/249 132/7/249
f 132/7/250 136/7/250 137/7/250
f 132/7/251 137/7/251 133/7/251
f 133/7/252 137/7/252 138/7/252
f 133/7/253 138/7/253 134/7/253
f 134/7/254 138/7/254 139/7/254
f 134/7/255 139/7/255 135/7/255
f 135/7/256 139/7/256 140/7/256
f 135/7/257 140/7/257 131/7/257
f 131/7/258 140/7/258 136/7/258
f 136/7/259 61/7/259 137/7/259
f 137/7/260 61/7/260 62/7/260
f 137/7/261 62/7/261 138/7/261
f 138/7/262 62/7/262 63/7/262
f 138/7/263 63/7/263 139/7/263
f 139/7/264 63/7/264 64/7/264
f 139/7/265 64/7/265 140/7/265
f 140/7/266 64/7/266 65/7/266
f 140/7/267 65/7/267 136/7/267
f 136/7/268 65/7/268 61/7/268
