# Bastion Base Structures — generated original low-poly asset
# Coordinates: meters, +Y up, +Z forward
mtllib Bastion_Structures.mtl
o Bastion_Turret_WeaponYaw
g Bastion_Turret_WeaponYaw
usemtl BastionPalette
s off
vt 0.04545455 0.50000000
vt 0.13636364 0.50000000
vt 0.22727273 0.50000000
vt 0.31818182 0.50000000
vt 0.40909091 0.50000000
vt 0.50000000 0.50000000
vt 0.59090909 0.50000000
vt 0.68181818 0.50000000
vt 0.77272727 0.50000000
vt 0.86363636 0.50000000
vt 0.95454545 0.50000000
# piece TurretYaw_Armor palette=Armor
v -0.82500000 -0.04500000 -0.72500000
v -0.82500000 -0.04500000 0.92500000
v -0.82500000 0.80500000 -0.72500000
v -0.82500000 0.80500000 0.92500000
v 0.82500000 -0.04500000 -0.72500000
v 0.82500000 -0.04500000 0.92500000
v 0.82500000 0.80500000 -0.72500000
v 0.82500000 0.80500000 0.92500000
v -0.87500000 0.80000000 0.09500000
v 0.87500000 0.80000000 0.09500000
v 0.87500000 0.80000000 0.94500000
v -0.87500000 0.80000000 0.94500000
v -0.87500000 1.35000000 0.09500000
v 0.87500000 1.35000000 0.09500000
v 0.87500000 1.00000000 0.94500000
v -0.87500000 1.00000000 0.94500000
vn -1.00000000 0.00000000 -0.00000000
vn -0.00000000 -1.00000000 -0.00000000
vn -1.00000000 0.00000000 0.00000000
vn -0.00000000 -0.00000000 -1.00000000
vn 0.00000000 -0.00000000 1.00000000
vn -0.00000000 -1.00000000 -0.00000000
vn 0.00000000 -0.00000000 1.00000000
vn -0.00000000 1.00000000 0.00000000
vn -0.00000000 -0.00000000 -1.00000000
vn -0.00000000 1.00000000 0.00000000
vn 1.00000000 0.00000000 0.00000000
vn 1.00000000 0.00000000 0.00000000
vn -0.00000000 -1.00000000 0.00000000
vn -0.00000000 -1.00000000 -0.00000000
vn 0.00000000 0.92467810 0.38074981
vn -0.00000000 0.92467810 0.38074981
vn -0.00000000 -0.00000000 -1.00000000
vn 0.00000000 -0.00000000 -1.00000000
vn 1.00000000 0.00000000 0.00000000
vn 1.00000000 0.00000000 0.00000000
vn -0.00000000 0.00000000 1.00000000
vn 0.00000000 0.00000000 1.00000000
vn -1.00000000 0.00000000 0.00000000
vn -1.00000000 -0.00000000 -0.00000000
# piece TurretYaw_Optic palette=Optic
v 0.36000000 0.49000000 0.92000000
v 0.36000000 0.49000000 1.00000000
v 0.36000000 0.75000000 0.92000000
v 0.36000000 0.75000000 1.00000000
v 0.74000000 0.49000000 0.92000000
v 0.74000000 0.49000000 1.00000000
v 0.74000000 0.75000000 0.92000000
v 0.74000000 0.75000000 1.00000000
vn -1.00000000 0.00000000 -0.00000000
vn -0.00000000 -1.00000000 -0.00000000
vn -1.00000000 0.00000000 0.00000000
vn -0.00000000 -0.00000000 -1.00000000
vn 0.00000000 -0.00000000 1.00000000
vn -0.00000000 -1.00000000 -0.00000000
vn 0.00000000 -0.00000000 1.00000000
vn -0.00000000 1.00000000 0.00000000
vn -0.00000000 -0.00000000 -1.00000000
vn -0.00000000 1.00000000 0.00000000
vn 1.00000000 0.00000000 0.00000000
vn 1.00000000 0.00000000 0.00000000
f 2/1/1 4/1/1 1/1/1
f 5/1/2 2/1/2 1/1/2
f 1/1/3 4/1/3 3/1/3
f 3/1/4 5/1/4 1/1/4
f 2/1/5 8/1/5 4/1/5
f 6/1/6 2/1/6 5/1/6
f 6/1/7 8/1/7 2/1/7
f 4/1/8 8/1/8 3/1/8
f 7/1/9 5/1/9 3/1/9
f 3/1/10 8/1/10 7/1/10
f 7/1/11 6/1/11 5/1/11
f 8/1/12 6/1/12 7/1/12
f 10/1/13 11/1/13 9/1/13
f 11/1/14 12/1/14 9/1/14
f 15/1/15 14/1/15 13/1/15
f 16/1/16 15/1/16 13/1/16
f 14/1/17 10/1/17 9/1/17
f 13/1/18 14/1/18 9/1/18
f 15/1/19 11/1/19 10/1/19
f 14/1/20 15/1/20 10/1/20
f 16/1/21 12/1/21 11/1/21
f 15/1/22 16/1/22 11/1/22
f 13/1/23 9/1/23 12/1/23
f 16/1/24 13/1/24 12/1/24
f 18/9/25 20/9/25 17/9/25
f 21/9/26 18/9/26 17/9/26
f 17/9/27 20/9/27 19/9/27
f 19/9/28 21/9/28 17/9/28
f 18/9/29 24/9/29 20/9/29
f 22/9/30 18/9/30 21/9/30
f 22/9/31 24/9/31 18/9/31
f 20/9/32 24/9/32 19/9/32
f 23/9/33 21/9/33 19/9/33
f 19/9/34 24/9/34 23/9/34
f 23/9/35 22/9/35 21/9/35
f 24/9/36 22/9/36 23/9/36
