# Bastion Base Structures — generated original low-poly asset
# Coordinates: meters, +Y up, +Z forward
mtllib Bastion_Structures.mtl
o Bastion_Refinery_UnloaderSpin
g Bastion_Refinery_UnloaderSpin
usemtl BastionPalette
s off
vt 0.04545455 0.50000000
vt 0.13636364 0.50000000
vt 0.22727273 0.50000000
vt 0.31818182 0.50000000
vt 0.40909091 0.50000000
vt 0.50000000 0.50000000
vt 0.59090909 0.50000000
vt 0.68181818 0.50000000
vt 0.77272727 0.50000000
vt 0.86363636 0.50000000
vt 0.95454545 0.50000000
# piece RefineryUnloader_Drum palette=Secondary
v -0.87500000 0.00000000 -0.00000000
v -0.87500000 0.00000000 -0.45000000
v 0.87500000 0.00000000 -0.45000000
v 0.87500000 0.00000000 0.00000000
v -0.87500000 0.22500000 -0.38971143
v 0.87500000 0.22500000 -0.38971143
v -0.87500000 0.38971143 -0.22500000
v 0.87500000 0.38971143 -0.22500000
v -0.87500000 0.45000000 -0.00000000
v 0.87500000 0.45000000 0.00000000
v -0.87500000 0.38971143 0.22500000
v 0.87500000 0.38971143 0.22500000
v -0.87500000 0.22500000 0.38971143
v 0.87500000 0.22500000 0.38971143
v -0.87500000 0.00000000 0.45000000
v 0.87500000 0.00000000 0.45000000
v -0.87500000 -0.22500000 0.38971143
v 0.87500000 -0.22500000 0.38971143
v -0.87500000 -0.38971143 0.22500000
v 0.87500000 -0.38971143 0.22500000
v -0.87500000 -0.45000000 0.00000000
v 0.87500000 -0.45000000 0.00000000
v -0.87500000 -0.38971143 -0.22500000
v 0.87500000 -0.38971143 -0.22500000
v -0.87500000 -0.22500000 -0.38971143
v 0.87500000 -0.22500000 -0.38971143
vn -1.00000000 0.00000000 0.00000000
vn 0.00000000 0.25881905 -0.96592583
vn 0.00000000 0.25881905 -0.96592583
vn 1.00000000 0.00000000 -0.00000000
vn -1.00000000 0.00000000 0.00000000
vn 0.00000000 0.70710678 -0.70710678
vn 0.00000000 0.70710678 -0.70710678
vn 1.00000000 0.00000000 -0.00000000
vn -1.00000000 0.00000000 0.00000000
vn 0.00000000 0.96592583 -0.25881905
vn 0.00000000 0.96592583 -0.25881905
vn 1.00000000 0.00000000 -0.00000000
vn -1.00000000 0.00000000 0.00000000
vn -0.00000000 0.96592583 0.25881905
vn -0.00000000 0.96592583 0.25881905
vn 1.00000000 0.00000000 0.00000000
vn -1.00000000 -0.00000000 0.00000000
vn -0.00000000 0.70710678 0.70710678
vn -0.00000000 0.70710678 0.70710678
vn 1.00000000 0.00000000 0.00000000
vn -1.00000000 -0.00000000 0.00000000
vn -0.00000000 0.25881905 0.96592583
vn -0.00000000 0.25881905 0.96592583
vn 1.00000000 0.00000000 0.00000000
vn -1.00000000 -0.00000000 0.00000000
vn -0.00000000 -0.25881905 0.96592583
vn -0.00000000 -0.25881905 0.96592583
vn 1.00000000 0.00000000 0.00000000
vn -1.00000000 -0.00000000 -0.00000000
vn -0.00000000 -0.70710678 0.70710678
vn -0.00000000 -0.70710678 0.70710678
vn 1.00000000 0.00000000 0.00000000
vn -1.00000000 -0.00000000 -0.00000000
vn -0.00000000 -0.96592583 0.25881905
vn -0.00000000 -0.96592583 0.25881905
vn 1.00000000 0.00000000 0.00000000
vn -1.00000000 0.00000000 -0.00000000
vn 0.00000000 -0.96592583 -0.25881905
vn 0.00000000 -0.96592583 -0.25881905
vn 1.00000000 -0.00000000 0.00000000
vn -1.00000000 0.00000000 -0.00000000
vn 0.00000000 -0.70710678 -0.70710678
vn 0.00000000 -0.70710678 -0.70710678
vn 1.00000000 -0.00000000 0.00000000
vn -1.00000000 0.00000000 0.00000000
vn 0.00000000 -0.25881905 -0.96592583
vn 0.00000000 -0.25881905 -0.96592583
vn 1.00000000 -0.00000000 0.00000000
# piece RefineryUnloader_Ribs palette=Hazard
v -0.77000000 0.00000000 -0.00000000
v -0.77000000 0.00000000 -0.49000000
v -0.67000000 0.00000000 -0.49000000
v -0.67000000 0.00000000 0.00000000
v -0.77000000 0.24500000 -0.42435245
v -0.67000000 0.24500000 -0.42435245
v -0.77000000 0.42435245 -0.24500000
v -0.67000000 0.42435245 -0.24500000
v -0.77000000 0.49000000 -0.00000000
v -0.67000000 0.49000000 -0.00000000
v -0.77000000 0.42435245 0.24500000
v -0.67000000 0.42435245 0.24500000
v -0.77000000 0.24500000 0.42435245
v -0.67000000 0.24500000 0.42435245
v -0.77000000 0.00000000 0.49000000
v -0.67000000 0.00000000 0.49000000
v -0.77000000 -0.24500000 0.42435245
v -0.67000000 -0.24500000 0.42435245
v -0.77000000 -0.42435245 0.24500000
v -0.67000000 -0.42435245 0.24500000
v -0.77000000 -0.49000000 0.00000000
v -0.67000000 -0.49000000 0.00000000
v -0.77000000 -0.42435245 -0.24500000
v -0.67000000 -0.42435245 -0.24500000
v -0.77000000 -0.24500000 -0.42435245
v -0.67000000 -0.24500000 -0.42435245
v -0.29000000 0.00000000 -0.00000000
v -0.29000000 0.00000000 -0.49000000
v -0.19000000 0.00000000 -0.49000000
v -0.19000000 0.00000000 0.00000000
v -0.29000000 0.24500000 -0.42435245
v -0.19000000 0.24500000 -0.42435245
v -0.29000000 0.42435245 -0.24500000
v -0.19000000 0.42435245 -0.24500000
v -0.29000000 0.49000000 -0.00000000
v -0.19000000 0.49000000 -0.00000000
v -0.29000000 0.42435245 0.24500000
v -0.19000000 0.42435245 0.24500000
v -0.29000000 0.24500000 0.42435245
v -0.19000000 0.24500000 0.42435245
v -0.29000000 0.00000000 0.49000000
v -0.19000000 0.00000000 0.49000000
v -0.29000000 -0.24500000 0.42435245
v -0.19000000 -0.24500000 0.42435245
v -0.29000000 -0.42435245 0.24500000
v -0.19000000 -0.42435245 0.24500000
v -0.29000000 -0.49000000 0.00000000
v -0.19000000 -0.49000000 0.00000000
v -0.29000000 -0.42435245 -0.24500000
v -0.19000000 -0.42435245 -0.24500000
v -0.29000000 -0.24500000 -0.42435245
v -0.19000000 -0.24500000 -0.42435245
v 0.19000000 0.00000000 -0.00000000
v 0.19000000 0.00000000 -0.49000000
v 0.29000000 0.00000000 -0.49000000
v 0.29000000 0.00000000 0.00000000
v 0.19000000 0.24500000 -0.42435245
v 0.29000000 0.24500000 -0.42435245
v 0.19000000 0.42435245 -0.24500000
v 0.29000000 0.42435245 -0.24500000
v 0.19000000 0.49000000 -0.00000000
v 0.29000000 0.49000000 -0.00000000
v 0.19000000 0.42435245 0.24500000
v 0.29000000 0.42435245 0.24500000
v 0.19000000 0.24500000 0.42435245
v 0.29000000 0.24500000 0.42435245
v 0.19000000 0.00000000 0.49000000
v 0.29000000 0.00000000 0.49000000
v 0.19000000 -0.24500000 0.42435245
v 0.29000000 -0.24500000 0.42435245
v 0.19000000 -0.42435245 0.24500000
v 0.29000000 -0.42435245 0.24500000
v 0.19000000 -0.49000000 0.00000000
v 0.29000000 -0.49000000 0.00000000
v 0.19000000 -0.42435245 -0.24500000
v 0.29000000 -0.42435245 -0.24500000
v 0.19000000 -0.24500000 -0.42435245
v 0.29000000 -0.24500000 -0.42435245
v 0.67000000 0.00000000 -0.00000000
v 0.67000000 0.00000000 -0.49000000
v 0.77000000 0.00000000 -0.49000000
v 0.77000000 0.00000000 0.00000000
v 0.67000000 0.24500000 -0.42435245
v 0.77000000 0.24500000 -0.42435245
v 0.67000000 0.42435245 -0.24500000
v 0.77000000 0.42435245 -0.24500000
v 0.67000000 0.49000000 -0.00000000
v 0.77000000 0.49000000 -0.00000000
v 0.67000000 0.42435245 0.24500000
v 0.77000000 0.42435245 0.24500000
v 0.67000000 0.24500000 0.42435245
v 0.77000000 0.24500000 0.42435245
v 0.67000000 0.00000000 0.49000000
v 0.77000000 0.00000000 0.49000000
v 0.67000000 -0.24500000 0.42435245
v 0.77000000 -0.24500000 0.42435245
v 0.67000000 -0.42435245 0.24500000
v 0.77000000 -0.42435245 0.24500000
v 0.67000000 -0.49000000 0.00000000
v 0.77000000 -0.49000000 0.00000000
v 0.67000000 -0.42435245 -0.24500000
v 0.77000000 -0.42435245 -0.24500000
v 0.67000000 -0.24500000 -0.42435245
v 0.77000000 -0.24500000 -0.42435245
vn -1.00000000 0.00000000 -0.00000000
vn 0.00000000 0.25881905 -0.96592583
vn 0.00000000 0.25881905 -0.96592583
vn 1.00000000 0.00000000 -0.00000000
vn -1.00000000 -0.00000000 -0.00000000
vn 0.00000000 0.70710678 -0.70710678
vn 0.00000000 0.70710678 -0.70710678
vn 1.00000000 0.00000000 -0.00000000
vn -1.00000000 0.00000000 0.00000000
vn 0.00000000 0.96592583 -0.25881905
vn 0.00000000 0.96592583 -0.25881905
vn 1.00000000 0.00000000 -0.00000000
vn -1.00000000 0.00000000 0.00000000
vn 0.00000000 0.96592583 0.25881905
vn -0.00000000 0.96592583 0.25881905
vn 1.00000000 0.00000000 0.00000000
vn -1.00000000 -0.00000000 0.00000000
vn 0.00000000 0.70710678 0.70710678
vn -0.00000000 0.70710678 0.70710678
vn 1.00000000 -0.00000000 0.00000000
vn -1.00000000 -0.00000000 0.00000000
vn 0.00000000 0.25881905 0.96592583
vn -0.00000000 0.25881905 0.96592583
vn 1.00000000 0.00000000 0.00000000
vn -1.00000000 -0.00000000 0.00000000
vn 0.00000000 -0.25881905 0.96592583
vn 0.00000000 -0.25881905 0.96592583
vn 1.00000000 -0.00000000 0.00000000
vn -1.00000000 -0.00000000 -0.00000000
vn 0.00000000 -0.70710678 0.70710678
vn 0.00000000 -0.70710678 0.70710678
vn 1.00000000 0.00000000 0.00000000
vn -1.00000000 -0.00000000 -0.00000000
vn 0.00000000 -0.96592583 0.25881905
vn -0.00000000 -0.96592583 0.25881905
vn 1.00000000 0.00000000 0.00000000
vn -1.00000000 0.00000000 -0.00000000
vn 0.00000000 -0.96592583 -0.25881905
vn 0.00000000 -0.96592583 -0.25881905
vn 1.00000000 -0.00000000 0.00000000
vn -1.00000000 0.00000000 -0.00000000
vn 0.00000000 -0.70710678 -0.70710678
vn 0.00000000 -0.70710678 -0.70710678
vn 1.00000000 -0.00000000 0.00000000
vn -1.00000000 -0.00000000 -0.00000000
vn 0.00000000 -0.25881905 -0.96592583
vn 0.00000000 -0.25881905 -0.96592583
vn 1.00000000 -0.00000000 0.00000000
vn -1.00000000 0.00000000 0.00000000
vn 0.00000000 0.25881905 -0.96592583
vn 0.00000000 0.25881905 -0.96592583
vn 1.00000000 -0.00000000 0.00000000
vn -1.00000000 0.00000000 0.00000000
vn 0.00000000 0.70710678 -0.70710678
vn 0.00000000 0.70710678 -0.70710678
vn 1.00000000 0.00000000 0.00000000
vn -1.00000000 0.00000000 0.00000000
vn 0.00000000 0.96592583 -0.25881905
vn 0.00000000 0.96592583 -0.25881905
vn 1.00000000 0.00000000 0.00000000
vn -1.00000000 -0.00000000 -0.00000000
vn 0.00000000 0.96592583 0.25881905
vn -0.00000000 0.96592583 0.25881905
vn 1.00000000 0.00000000 0.00000000
vn -1.00000000 -0.00000000 -0.00000000
vn 0.00000000 0.70710678 0.70710678
vn -0.00000000 0.70710678 0.70710678
vn 1.00000000 0.00000000 0.00000000
vn -1.00000000 -0.00000000 -0.00000000
vn 0.00000000 0.25881905 0.96592583
vn -0.00000000 0.25881905 0.96592583
vn 1.00000000 0.00000000 0.00000000
vn -1.00000000 0.00000000 -0.00000000
vn 0.00000000 -0.25881905 0.96592583
vn 0.00000000 -0.25881905 0.96592583
vn 1.00000000 0.00000000 0.00000000
vn -1.00000000 0.00000000 -0.00000000
vn 0.00000000 -0.70710678 0.70710678
vn 0.00000000 -0.70710678 0.70710678
vn 1.00000000 0.00000000 0.00000000
vn -1.00000000 -0.00000000 -0.00000000
vn 0.00000000 -0.96592583 0.25881905
vn -0.00000000 -0.96592583 0.25881905
vn 1.00000000 0.00000000 0.00000000
vn -1.00000000 0.00000000 -0.00000000
vn 0.00000000 -0.96592583 -0.25881905
vn 0.00000000 -0.96592583 -0.25881905
vn 1.00000000 0.00000000 0.00000000
vn -1.00000000 0.00000000 -0.00000000
vn 0.00000000 -0.70710678 -0.70710678
vn 0.00000000 -0.70710678 -0.70710678
vn 1.00000000 -0.00000000 0.00000000
vn -1.00000000 0.00000000 0.00000000
vn 0.00000000 -0.25881905 -0.96592583
vn 0.00000000 -0.25881905 -0.96592583
vn 1.00000000 0.00000000 0.00000000
vn -1.00000000 0.00000000 0.00000000
vn 0.00000000 0.25881905 -0.96592583
vn 0.00000000 0.25881905 -0.96592583
vn 1.00000000 -0.00000000 0.00000000
vn -1.00000000 0.00000000 0.00000000
vn 0.00000000 0.70710678 -0.70710678
vn 0.00000000 0.70710678 -0.70710678
vn 1.00000000 -0.00000000 0.00000000
vn -1.00000000 0.00000000 0.00000000
vn 0.00000000 0.96592583 -0.25881905
vn 0.00000000 0.96592583 -0.25881905
vn 1.00000000 0.00000000 0.00000000
vn -1.00000000 -0.00000000 -0.00000000
vn 0.00000000 0.96592583 0.25881905
vn -0.00000000 0.96592583 0.25881905
vn 1.00000000 0.00000000 0.00000000
vn -1.00000000 0.00000000 -0.00000000
vn 0.00000000 0.70710678 0.70710678
vn -0.00000000 0.70710678 0.70710678
vn 1.00000000 0.00000000 0.00000000
vn -1.00000000 -0.00000000 -0.00000000
vn 0.00000000 0.25881905 0.96592583
vn -0.00000000 0.25881905 0.96592583
vn 1.00000000 0.00000000 0.00000000
vn -1.00000000 0.00000000 -0.00000000
vn 0.00000000 -0.25881905 0.96592583
vn 0.00000000 -0.25881905 0.96592583
vn 1.00000000 0.00000000 0.00000000
vn -1.00000000 -0.00000000 -0.00000000
vn 0.00000000 -0.70710678 0.70710678
vn 0.00000000 -0.70710678 0.70710678
vn 1.00000000 0.00000000 0.00000000
vn -1.00000000 -0.00000000 -0.00000000
vn 0.00000000 -0.96592583 0.25881905
vn -0.00000000 -0.96592583 0.25881905
vn 1.00000000 0.00000000 0.00000000
vn -1.00000000 0.00000000 -0.00000000
vn 0.00000000 -0.96592583 -0.25881905
vn 0.00000000 -0.96592583 -0.25881905
vn 1.00000000 0.00000000 0.00000000
vn -1.00000000 0.00000000 -0.00000000
vn 0.00000000 -0.70710678 -0.70710678
vn 0.00000000 -0.70710678 -0.70710678
vn 1.00000000 0.00000000 0.00000000
vn -1.00000000 0.00000000 0.00000000
vn 0.00000000 -0.25881905 -0.96592583
vn 0.00000000 -0.25881905 -0.96592583
vn 1.00000000 0.00000000 0.00000000
vn -1.00000000 0.00000000 -0.00000000
vn 0.00000000 0.25881905 -0.96592583
vn 0.00000000 0.25881905 -0.96592583
vn 1.00000000 0.00000000 -0.00000000
vn -1.00000000 -0.00000000 -0.00000000
vn 0.00000000 0.70710678 -0.70710678
vn 0.00000000 0.70710678 -0.70710678
vn 1.00000000 0.00000000 -0.00000000
vn -1.00000000 0.00000000 0.00000000
vn 0.00000000 0.96592583 -0.25881905
vn 0.00000000 0.96592583 -0.25881905
vn 1.00000000 0.00000000 -0.00000000
vn -1.00000000 0.00000000 0.00000000
vn 0.00000000 0.96592583 0.25881905
vn -0.00000000 0.96592583 0.25881905
vn 1.00000000 0.00000000 0.00000000
vn -1.00000000 -0.00000000 0.00000000
vn 0.00000000 0.70710678 0.70710678
vn -0.00000000 0.70710678 0.70710678
vn 1.00000000 -0.00000000 0.00000000
vn -1.00000000 -0.00000000 0.00000000
vn 0.00000000 0.25881905 0.96592583
vn -0.00000000 0.25881905 0.96592583
vn 1.00000000 0.00000000 0.00000000
vn -1.00000000 -0.00000000 0.00000000
vn 0.00000000 -0.25881905 0.96592583
vn 0.00000000 -0.25881905 0.96592583
vn 1.00000000 -0.00000000 0.00000000
vn -1.00000000 -0.00000000 -0.00000000
vn 0.00000000 -0.70710678 0.70710678
vn 0.00000000 -0.70710678 0.70710678
vn 1.00000000 0.00000000 0.00000000
vn -1.00000000 -0.00000000 -0.00000000
vn 0.00000000 -0.96592583 0.25881905
vn -0.00000000 -0.96592583 0.25881905
vn 1.00000000 0.00000000 0.00000000
vn -1.00000000 0.00000000 -0.00000000
vn 0.00000000 -0.96592583 -0.25881905
vn 0.00000000 -0.96592583 -0.25881905
vn 1.00000000 -0.00000000 0.00000000
vn -1.00000000 0.00000000 -0.00000000
vn 0.00000000 -0.70710678 -0.70710678
vn 0.00000000 -0.70710678 -0.70710678
vn 1.00000000 -0.00000000 0.00000000
vn -1.00000000 -0.00000000 -0.00000000
vn 0.00000000 -0.25881905 -0.96592583
vn 0.00000000 -0.25881905 -0.96592583
vn 1.00000000 -0.00000000 0.00000000
f 2/2/1 1/2/1 5/2/1
f 2/2/2 5/2/2 3/2/2
f 3/2/3 5/2/3 6/2/3
f 3/2/4 6/2/4 4/2/4
f 5/2/5 1/2/5 7/2/5
f 5/2/6 7/2/6 6/2/6
f 6/2/7 7/2/7 8/2/7
f 6/2/8 8/2/8 4/2/8
f 7/2/9 1/2/9 9/2/9
f 7/2/10 9/2/10 8/2/10
f 8/2/11 9/2/11 10/2/11
f 8/2/12 10/2/12 4/2/12
f 9/2/13 1/2/13 11/2/13
f 9/2/14 11/2/14 10/2/14
f 10/2/15 11/2/15 12/2/15
f 10/2/16 12/2/16 4/2/16
f 11/2/17 1/2/17 13/2/17
f 11/2/18 13/2/18 12/2/18
f 12/2/19 13/2/19 14/2/19
f 12/2/20 14/2/20 4/2/20
f 13/2/21 1/2/21 15/2/21
f 13/2/22 15/2/22 14/2/22
f 14/2/23 15/2/23 16/2/23
f 14/2/24 16/2/24 4/2/24
f 15/2/25 1/2/25 17/2/25
f 15/2/26 17/2/26 16/2/26
f 16/2/27 17/2/27 18/2/27
f 16/2/28 18/2/28 4/2/28
f 17/2/29 1/2/29 19/2/29
f 17/2/30 19/2/30 18/2/30
f 18/2/31 19/2/31 20/2/31
f 18/2/32 20/2/32 4/2/32
f 19/2/33 1/2/33 21/2/33
f 19/2/34 21/2/34 20/2/34
f 20/2/35 21/2/35 22/2/35
f 20/2/36 22/2/36 4/2/36
f 21/2/37 1/2/37 23/2/37
f 21/2/38 23/2/38 22/2/38
f 22/2/39 23/2/39 24/2/39
f 22/2/40 24/2/40 4/2/40
f 23/2/41 1/2/41 25/2/41
f 23/2/42 25/2/42 24/2/42
f 24/2/43 25/2/43 26/2/43
f 24/2/44 26/2/44 4/2/44
f 25/2/45 1/2/45 2/2/45
f 25/2/46 2/2/46 26/2/46
f 26/2/47 2/2/47 3/2/47
f 26/2/48 3/2/48 4/2/48
f 28/8/49 27/8/49 31/8/49
f 28/8/50 31/8/50 29/8/50
f 29/8/51 31/8/51 32/8/51
f 29/8/52 32/8/52 30/8/52
f 31/8/53 27/8/53 33/8/53
f 31/8/54 33/8/54 32/8/54
f 32/8/55 33/8/55 34/8/55
f 32/8/56 34/8/56 30/8/56
f 33/8/57 27/8/57 35/8/57
f 33/8/58 35/8/58 34/8/58
f 34/8/59 35/8/59 36/8/59
f 34/8/60 36/8/60 30/8/60
f 35/8/61 27/8/61 37/8/61
f 35/8/62 37/8/62 36/8/62
f 36/8/63 37/8/63 38/8/63
f 36/8/64 38/8/64 30/8/64
f 37/8/65 27/8/65 39/8/65
f 37/8/66 39/8/66 38/8/66
f 38/8/67 39/8/67 40/8/67
f 38/8/68 40/8/68 30/8/68
f 39/8/69 27/8/69 41/8/69
f 39/8/70 41/8/70 40/8/70
f 40/8/71 41/8/71 42/8/71
f 40/8/72 42/8/72 30/8/72
f 41/8/73 27/8/73 43/8/73
f 41/8/74 43/8/74 42/8/74
f 42/8/75 43/8/75 44/8/75
f 42/8/76 44/8/76 30/8/76
f 43/8/77 27/8/77 45/8/77
f 43/8/78 45/8/78 44/8/78
f 44/8/79 45/8/79 46/8/79
f 44/8/80 46/8/80 30/8/80
f 45/8/81 27/8/81 47/8/81
f 45/8/82 47/8/82 46/8/82
f 46/8/83 47/8/83 48/8/83
f 46/8/84 48/8/84 30/8/84
f 47/8/85 27/8/85 49/8/85
f 47/8/86 49/8/86 48/8/86
f 48/8/87 49/8/87 50/8/87
f 48/8/88 50/8/88 30/8/88
f 49/8/89 27/8/89 51/8/89
f 49/8/90 51/8/90 50/8/90
f 50/8/91 51/8/91 52/8/91
f 50/8/92 52/8/92 30/8/92
f 51/8/93 27/8/93 28/8/93
f 51/8/94 28/8/94 52/8/94
f 52/8/95 28/8/95 29/8/95
f 52/8/96 29/8/96 30/8/96
f 54/8/97 53/8/97 57/8/97
f 54/8/98 57/8/98 55/8/98
f 55/8/99 57/8/99 58/8/99
f 55/8/100 58/8/100 56/8/100
f 57/8/101 53/8/101 59/8/101
f 57/8/102 59/8/102 58/8/102
f 58/8/103 59/8/103 60/8/103
f 58/8/104 60/8/104 56/8/104
f 59/8/105 53/8/105 61/8/105
f 59/8/106 61/8/106 60/8/106
f 60/8/107 61/8/107 62/8/107
f 60/8/108 62/8/108 56/8/108
f 61/8/109 53/8/109 63/8/109
f 61/8/110 63/8/110 62/8/110
f 62/8/111 63/8/111 64/8/111
f 62/8/112 64/8/112 56/8/112
f 63/8/113 53/8/113 65/8/113
f 63/8/114 65/8/114 64/8/114
f 64/8/115 65/8/115 66/8/115
f 64/8/116 66/8/116 56/8/116
f 65/8/117 53/8/117 67/8/117
f 65/8/118 67/8/118 66/8/118
f 66/8/119 67/8/119 68/8/119
f 66/8/120 68/8/120 56/8/120
f 67/8/121 53/8/121 69/8/121
f 67/8/122 69/8/122 68/8/122
f 68/8/123 69/8/123 70/8/123
f 68/8/124 70/8/124 56/8/124
f 69/8/125 53/8/125 71/8/125
f 69/8/126 71/8/126 70/8/126
f 70/8/127 71/8/127 72/8/127
f 70/8/128 72/8/128 56/8/128
f 71/8/129 53/8/129 73/8/129
f 71/8/130 73/8/130 72/8/130
f 72/8/131 73/8/131 74/8/131
f 72/8/132 74/8/132 56/8/132
f 73/8/133 53/8/133 75/8/133
f 73/8/134 75/8/134 74/8/134
f 74/8/135 75/8/135 76/8/135
f 74/8/136 76/8/136 56/8/136
f 75/8/137 53/8/137 77/8/137
f 75/8/138 77/8/138 76/8/138
f 76/8/139 77/8/139 78/8/139
f 76/8/140 78/8/140 56/8/140
f 77/8/141 53/8/141 54/8/141
f 77/8/142 54/8/142 78/8/142
f 78/8/143 54/8/143 55/8/143
f 78/8/144 55/8/144 56/8/144
f 80/8/145 79/8/145 83/8/145
f 80/8/146 83/8/146 81/8/146
f 81/8/147 83/8/147 84/8/147
f 81/8/148 84/8/148 82/8/148
f 83/8/149 79/8/149 85/8/149
f 83/8/150 85/8/150 84/8/150
f 84/8/151 85/8/151 86/8/151
f 84/8/152 86/8/152 82/8/152
f 85/8/153 79/8/153 87/8/153
f 85/8/154 87/8/154 86/8/154
f 86/8/155 87/8/155 88/8/155
f 86/8/156 88/8/156 82/8/156
f 87/8/157 79/8/157 89/8/157
f 87/8/158 89/8/158 88/8/158
f 88/8/159 89/8/159 90/8/159
f 88/8/160 90/8/160 82/8/160
f 89/8/161 79/8/161 91/8/161
f 89/8/162 91/8/162 90/8/162
f 90/8/163 91/8/163 92/8/163
f 90/8/164 92/8/164 82/8/164
f 91/8/165 79/8/165 93/8/165
f 91/8/166 93/8/166 92/8/166
f 92/8/167 93/8/167 94/8/167
f 92/8/168 94/8/168 82/8/168
f 93/8/169 79/8/169 95/8/169
f 93/8/170 95/8/170 94/8/170
f 94/8/171 95/8/171 96/8/171
f 94/8/172 96/8/172 82/8/172
f 95/8/173 79/8/173 97/8/173
f 95/8/174 97/8/174 96/8/174
f 96/8/175 97/8/175 98/8/175
f 96/8/176 98/8/176 82/8/176
f 97/8/177 79/8/177 99/8/177
f 97/8/178 99/8/178 98/8/178
f 98/8/179 99/8/179 100/8/179
f 98/8/180 100/8/180 82/8/180
f 99/8/181 79/8/181 101/8/181
f 99/8/182 101/8/182 100/8/182
f 100/8/183 101/8/183 102/8/183
f 100/8/184 102/8/184 82/8/184
f 101/8/185 79/8/185 103/8/185
f 101/8/186 103/8/186 102/8/186
f 102/8/187 103/8/187 104/8/187
f 102/8/188 104/8/188 82/8/188
f 103/8/189 79/8/189 80/8/189
f 103/8/190 80/8/190 104/8/190
f 104/8/191 80/8/191 81/8/191
f 104/8/192 81/8/192 82/8/192
f 106/8/193 105/8/193 109/8/193
f 106/8/194 109/8/194 107/8/194
f 107/8/195 109/8/195 110/8/195
f 107/8/196 110/8/196 108/8/196
f 109/8/197 105/8/197 111/8/197
f 109/8/198 111/8/198 110/8/198
f 110/8/199 111/8/199 112/8/199
f 110/8/200 112/8/200 108/8/200
f 111/8/201 105/8/201 113/8/201
f 111/8/202 113/8/202 112/8/202
f 112/8/203 113/8/203 114/8/203
f 112/8/204 114/8/204 108/8/204
f 113/8/205 105/8/205 115/8/205
f 113/8/206 115/8/206 114/8/206
f 114/8/207 115/8/207 116/8/207
f 114/8/208 116/8/208 108/8/208
f 115/8/209 105/8/209 117/8/209
f 115/8/210 117/8/210 116/8/210
f 116/8/211 117/8/211 118/8/211
f 116/8/212 118/8/212 108/8/212
f 117/8/213 105/8/213 119/8/213
f 117/8/214 119/8/214 118/8/214
f 118/8/215 119/8/215 120/8/215
f 118/8/216 120/8/216 108/8/216
f 119/8/217 105/8/217 121/8/217
f 119/8/218 121/8/218 120/8/218
f 120/8/219 121/8/219 122/8/219
f 120/8/220 122/8/220 108/8/220
f 121/8/221 105/8/221 123/8/221
f 121/8/222 123/8/222 122/8/222
f 122/8/223 123/8/223 124/8/223
f 122/8/224 124/8/224 108/8/224
f 123/8/225 105/8/225 125/8/225
f 123/8/226 125/8/226 124/8/226
f 124/8/227 125/8/227 126/8/227
f 124/8/228 126/8/228 108/8/228
f 125/8/229 105/8/229 127/8/229
f 125/8/230 127/8/230 126/8/230
f 126/8/231 127/8/231 128/8/231
f 126/8/232 128/8/232 108/8/232
f 127/8/233 105/8/233 129/8/233
f 127/8/234 129/8/234 128/8/234
f 128/8/235 129/8/235 130/8/235
f 128/8/236 130/8/236 108/8/236
f 129/8/237 105/8/237 106/8/237
f 129/8/238 106/8/238 130/8/238
f 130/8/239 106/8/239 107/8/239
f 130/8/240 107/8/240 108/8/240
