# Bastion Infantry Smooth Pack — original rounded low-poly asset
# Coordinates: meters, +Y up, +Z forward
mtllib Bastion_Infantry.mtl
o Bastion_Gunner_Gear
usemtl BastionInfantryPalette
vt 0.03571429 0.50000000
vt 0.10714286 0.50000000
vt 0.17857143 0.50000000
vt 0.25000000 0.50000000
vt 0.32142857 0.50000000
vt 0.39285714 0.50000000
vt 0.46428571 0.50000000
vt 0.53571429 0.50000000
vt 0.60714286 0.50000000
vt 0.67857143 0.50000000
vt 0.75000000 0.50000000
vt 0.82142857 0.50000000
vt 0.89285714 0.50000000
vt 0.96428571 0.50000000
g AmmoPack
s 1
v -0.12893692 0.20857765 -0.23000000
v 0.12893692 0.20857765 -0.23000000
v -0.12893692 -0.10857765 -0.23000000
v 0.12893692 -0.10857765 -0.23000000
v 0.00000000 -0.07893692 -0.15071117
v 0.00000000 0.17893692 -0.15071117
v 0.00000000 -0.07893692 -0.30928883
v 0.00000000 0.17893692 -0.30928883
v 0.15857765 0.05000000 -0.29446846
v 0.15857765 0.05000000 -0.16553154
v -0.15857765 0.05000000 -0.29446846
v -0.15857765 0.05000000 -0.16553154
v 0.00000000 0.22000000 -0.23000000
v 0.00000000 -0.12000000 -0.23000000
v -0.10259858 -0.10519249 -0.16690775
v 0.10259858 -0.10519249 -0.16690775
v -0.10259858 0.20519249 -0.16690775
v 0.10259858 0.20519249 -0.16690775
v 0.00000000 0.05000000 -0.14500000
v -0.10259858 -0.10519249 -0.29309225
v 0.10259858 -0.10519249 -0.29309225
v -0.10259858 0.20519249 -0.29309225
v 0.10259858 0.20519249 -0.29309225
v 0.00000000 0.05000000 -0.31500000
v 0.15519249 0.17618450 -0.28129929
v 0.15519249 -0.07618450 -0.28129929
v 0.12618450 -0.05259858 -0.30759625
v 0.12618450 0.15259858 -0.30759625
v 0.15519249 0.17618450 -0.17870071
v 0.15519249 -0.07618450 -0.17870071
v 0.12618450 -0.05259858 -0.15240375
v 0.12618450 0.15259858 -0.15240375
v 0.17000000 0.05000000 -0.23000000
v -0.15519249 0.17618450 -0.28129929
v -0.15519249 -0.07618450 -0.28129929
v -0.12618450 -0.05259858 -0.30759625
v -0.12618450 0.15259858 -0.30759625
v -0.15519249 0.17618450 -0.17870071
v -0.15519249 -0.07618450 -0.17870071
v -0.12618450 -0.05259858 -0.15240375
v -0.12618450 0.15259858 -0.15240375
v -0.17000000 0.05000000 -0.23000000
vn -0.45352852 0.89124177 -0.00000000
vn 0.45352852 0.89124177 -0.00000000
vn -0.45352852 -0.89124177 -0.00000000
vn 0.45352852 -0.89124177 0.00000000
vn 0.00000000 -0.28764047 0.95773846
vn 0.00000000 0.28764047 0.95773846
vn -0.00000000 -0.28764047 -0.95773846
vn 0.00000000 0.28764047 -0.95773846
vn 0.78537504 -0.00000000 -0.61902024
vn 0.78537504 -0.00000000 0.61902024
vn -0.78537504 -0.00000000 -0.61902024
vn -0.78537504 -0.00000000 0.61902024
vn 0.00000000 1.00000000 -0.00000000
vn -0.00000000 -1.00000000 -0.00000000
vn -0.22306676 -0.76188526 0.60808886
vn 0.22306676 -0.76188526 0.60808886
vn -0.22306676 0.76188526 0.60808886
vn 0.22306676 0.76188526 0.60808886
vn 0.00000000 0.00000000 1.00000000
vn -0.22306676 -0.76188526 -0.60808886
vn 0.22306676 -0.76188526 -0.60808886
vn -0.22306676 0.76188526 -0.60808886
vn 0.22306676 0.76188526 -0.60808886
vn 0.00000000 -0.00000000 -1.00000000
vn 0.79506684 0.42980078 -0.42794861
vn 0.79506684 -0.42980078 -0.42794861
vn 0.32555346 -0.17227995 -0.92969595
vn 0.32555346 0.17227995 -0.92969595
vn 0.79506684 0.42980078 0.42794861
vn 0.79506684 -0.42980078 0.42794861
vn 0.32555346 -0.17227995 0.92969595
vn 0.32555346 0.17227995 0.92969595
vn 1.00000000 -0.00000000 0.00000000
vn -0.79506684 0.42980078 -0.42794861
vn -0.79506684 -0.42980078 -0.42794861
vn -0.32555346 -0.17227995 -0.92969595
vn -0.32555346 0.17227995 -0.92969595
vn -0.79506684 0.42980078 0.42794861
vn -0.79506684 -0.42980078 0.42794861
vn -0.32555346 -0.17227995 0.92969595
vn -0.32555346 0.17227995 0.92969595
vn -1.00000000 -0.00000000 0.00000000
f 1/3/1 38/3/38 17/3/17
f 38/3/38 12/3/12 41/3/41
f 17/3/17 41/3/41 6/3/6
f 38/3/38 41/3/41 17/3/17
f 1/3/1 17/3/17 13/3/13
f 17/3/17 6/3/6 18/3/18
f 13/3/13 18/3/18 2/3/2
f 17/3/17 18/3/18 13/3/13
f 1/3/1 13/3/13 22/3/22
f 13/3/13 2/3/2 23/3/23
f 22/3/22 23/3/23 8/3/8
f 13/3/13 23/3/23 22/3/22
f 1/3/1 22/3/22 34/3/34
f 22/3/22 8/3/8 37/3/37
f 34/3/34 37/3/37 11/3/11
f 22/3/22 37/3/37 34/3/34
f 1/3/1 34/3/34 38/3/38
f 34/3/34 11/3/11 42/3/42
f 38/3/38 42/3/42 12/3/12
f 34/3/34 42/3/42 38/3/38
f 2/3/2 18/3/18 29/3/29
f 18/3/18 6/3/6 32/3/32
f 29/3/29 32/3/32 10/3/10
f 18/3/18 32/3/32 29/3/29
f 6/3/6 41/3/41 19/3/19
f 41/3/41 12/3/12 40/3/40
f 19/3/19 40/3/40 5/3/5
f 41/3/41 40/3/40 19/3/19
f 12/3/12 42/3/42 39/3/39
f 42/3/42 11/3/11 35/3/35
f 39/3/39 35/3/35 3/3/3
f 42/3/42 35/3/35 39/3/39
f 11/3/11 37/3/37 36/3/36
f 37/3/37 8/3/8 24/3/24
f 36/3/36 24/3/24 7/3/7
f 37/3/37 24/3/24 36/3/36
f 8/3/8 23/3/23 28/3/28
f 23/3/23 2/3/2 25/3/25
f 28/3/28 25/3/25 9/3/9
f 23/3/23 25/3/25 28/3/28
f 4/3/4 30/3/30 16/3/16
f 30/3/30 10/3/10 31/3/31
f 16/3/16 31/3/31 5/3/5
f 30/3/30 31/3/31 16/3/16
f 4/3/4 16/3/16 14/3/14
f 16/3/16 5/3/5 15/3/15
f 14/3/14 15/3/15 3/3/3
f 16/3/16 15/3/15 14/3/14
f 4/3/4 14/3/14 21/3/21
f 14/3/14 3/3/3 20/3/20
f 21/3/21 20/3/20 7/3/7
f 14/3/14 20/3/20 21/3/21
f 4/3/4 21/3/21 26/3/26
f 21/3/21 7/3/7 27/3/27
f 26/3/26 27/3/27 9/3/9
f 21/3/21 27/3/27 26/3/26
f 4/3/4 26/3/26 30/3/30
f 26/3/26 9/3/9 33/3/33
f 30/3/30 33/3/33 10/3/10
f 26/3/26 33/3/33 30/3/30
f 5/3/5 31/3/31 19/3/19
f 31/3/31 10/3/10 32/3/32
f 19/3/19 32/3/32 6/3/6
f 31/3/31 32/3/32 19/3/19
f 3/3/3 15/3/15 39/3/39
f 15/3/15 5/3/5 40/3/40
f 39/3/39 40/3/40 12/3/12
f 15/3/15 40/3/40 39/3/39
f 7/3/7 20/3/20 36/3/36
f 20/3/20 3/3/3 35/3/35
f 36/3/36 35/3/35 11/3/11
f 20/3/20 35/3/35 36/3/36
f 9/3/9 27/3/27 28/3/28
f 27/3/27 7/3/7 24/3/24
f 28/3/28 24/3/24 8/3/8
f 27/3/27 24/3/24 28/3/28
f 10/3/10 33/3/33 29/3/29
f 33/3/33 9/3/9 25/3/25
f 29/3/29 25/3/25 2/3/2
f 33/3/33 25/3/25 29/3/29
g AmmoPackPlate
s off
v -0.12000000 -0.03000000 -0.34750000
v -0.12000000 -0.03000000 -0.31250000
v -0.12000000 0.15000000 -0.34750000
v -0.12000000 0.15000000 -0.31250000
v 0.12000000 -0.03000000 -0.34750000
v 0.12000000 -0.03000000 -0.31250000
v 0.12000000 0.15000000 -0.34750000
v 0.12000000 0.15000000 -0.31250000
vn -1.00000000 0.00000000 -0.00000000
f 44/8/43 46/8/43 43/8/43
vn -0.00000000 -1.00000000 -0.00000000
f 47/8/44 44/8/44 43/8/44
vn -1.00000000 0.00000000 0.00000000
f 43/8/45 46/8/45 45/8/45
vn -0.00000000 -0.00000000 -1.00000000
f 45/8/46 47/8/46 43/8/46
vn 0.00000000 -0.00000000 1.00000000
f 44/8/47 50/8/47 46/8/47
vn -0.00000000 -1.00000000 -0.00000000
f 48/8/48 44/8/48 47/8/48
vn 0.00000000 -0.00000000 1.00000000
f 48/8/49 50/8/49 44/8/49
vn -0.00000000 1.00000000 0.00000000
f 46/8/50 50/8/50 45/8/50
vn -0.00000000 -0.00000000 -1.00000000
f 49/8/51 47/8/51 45/8/51
vn -0.00000000 1.00000000 0.00000000
f 45/8/52 50/8/52 49/8/52
vn 1.00000000 0.00000000 0.00000000
f 49/8/53 48/8/53 47/8/53
vn 1.00000000 0.00000000 0.00000000
f 50/8/54 48/8/54 49/8/54
g Radio
s 1
v 0.16690833 0.21193717 -0.22000000
v 0.27309167 0.21193717 -0.22000000
v 0.16690833 -0.01193717 -0.22000000
v 0.27309167 -0.01193717 -0.22000000
v 0.22000000 0.00898570 -0.17335951
v 0.22000000 0.19101430 -0.17335951
v 0.22000000 0.00898570 -0.26664049
v 0.22000000 0.19101430 -0.26664049
v 0.28529668 0.10000000 -0.25792262
v 0.28529668 0.10000000 -0.18207738
v 0.15470332 0.10000000 -0.25792262
v 0.15470332 0.10000000 -0.18207738
v 0.22000000 0.22000000 -0.22000000
v 0.22000000 -0.02000000 -0.22000000
v 0.17775353 -0.00954764 -0.18288691
v 0.26224647 -0.00954764 -0.18288691
v 0.17775353 0.20954764 -0.18288691
v 0.26224647 0.20954764 -0.18288691
v 0.22000000 0.10000000 -0.17000000
v 0.17775353 -0.00954764 -0.25711309
v 0.26224647 -0.00954764 -0.25711309
v 0.17775353 0.20954764 -0.25711309
v 0.26224647 0.20954764 -0.25711309
v 0.22000000 0.10000000 -0.27000000
v 0.28390279 0.18907141 -0.25017605
v 0.28390279 0.01092859 -0.25017605
v 0.27195832 0.02757747 -0.26564485
v 0.27195832 0.17242253 -0.26564485
v 0.28390279 0.18907141 -0.18982395
v 0.28390279 0.01092859 -0.18982395
v 0.27195832 0.02757747 -0.17435515
v 0.27195832 0.17242253 -0.17435515
v 0.29000000 0.10000000 -0.22000000
v 0.15609721 0.18907141 -0.25017605
v 0.15609721 0.01092859 -0.25017605
v 0.16804168 0.02757747 -0.26564485
v 0.16804168 0.17242253 -0.26564485
v 0.15609721 0.18907141 -0.18982395
v 0.15609721 0.01092859 -0.18982395
v 0.16804168 0.02757747 -0.17435515
v 0.16804168 0.17242253 -0.17435515
v 0.15000000 0.10000000 -0.22000000
vn -0.57917451 0.81520358 0.00000000
vn 0.57917451 0.81520358 -0.00000000
vn -0.57917451 -0.81520358 0.00000000
vn 0.57917451 -0.81520358 0.00000000
vn -0.00000000 -0.24458379 0.96962816
vn 0.00000000 0.24458379 0.96962816
vn 0.00000000 -0.24458379 -0.96962816
vn -0.00000000 0.24458379 -0.96962816
vn 0.83828462 -0.00000000 -0.54523288
vn 0.83828462 0.00000000 0.54523288
vn -0.83828462 -0.00000000 -0.54523288
vn -0.83828462 -0.00000000 0.54523288
vn 0.00000000 1.00000000 0.00000000
vn 0.00000000 -1.00000000 0.00000000
vn -0.32772479 -0.71836430 0.61363604
vn 0.32772479 -0.71836430 0.61363604
vn -0.32772479 0.71836430 0.61363604
vn 0.32772479 0.71836430 0.61363604
vn -0.00000000 0.00000000 1.00000000
vn -0.32772479 -0.71836430 -0.61363604
vn 0.32772479 -0.71836430 -0.61363604
vn -0.32772479 0.71836430 -0.61363604
vn 0.32772479 0.71836430 -0.61363604
vn 0.00000000 0.00000000 -1.00000000
vn 0.86268737 0.32318312 -0.38900280
vn 0.86268737 -0.32318312 -0.38900280
vn 0.41691596 -0.12785666 -0.89990764
vn 0.41691596 0.12785666 -0.89990764
vn 0.86268737 0.32318312 0.38900280
vn 0.86268737 -0.32318312 0.38900280
vn 0.41691596 -0.12785666 0.89990764
vn 0.41691596 0.12785666 0.89990764
vn 1.00000000 0.00000000 0.00000000
vn -0.86268737 0.32318312 -0.38900280
vn -0.86268737 -0.32318312 -0.38900280
vn -0.41691596 -0.12785666 -0.89990764
vn -0.41691596 0.12785666 -0.89990764
vn -0.86268737 0.32318312 0.38900280
vn -0.86268737 -0.32318312 0.38900280
vn -0.41691596 -0.12785666 0.89990764
vn -0.41691596 0.12785666 0.89990764
vn -1.00000000 -0.00000000 0.00000000
f 51/4/55 88/4/92 67/4/71
f 88/4/92 62/4/66 91/4/95
f 67/4/71 91/4/95 56/4/60
f 88/4/92 91/4/95 67/4/71
f 51/4/55 67/4/71 63/4/67
f 67/4/71 56/4/60 68/4/72
f 63/4/67 68/4/72 52/4/56
f 67/4/71 68/4/72 63/4/67
f 51/4/55 63/4/67 72/4/76
f 63/4/67 52/4/56 73/4/77
f 72/4/76 73/4/77 58/4/62
f 63/4/67 73/4/77 72/4/76
f 51/4/55 72/4/76 84/4/88
f 72/4/76 58/4/62 87/4/91
f 84/4/88 87/4/91 61/4/65
f 72/4/76 87/4/91 84/4/88
f 51/4/55 84/4/88 88/4/92
f 84/4/88 61/4/65 92/4/96
f 88/4/92 92/4/96 62/4/66
f 84/4/88 92/4/96 88/4/92
f 52/4/56 68/4/72 79/4/83
f 68/4/72 56/4/60 82/4/86
f 79/4/83 82/4/86 60/4/64
f 68/4/72 82/4/86 79/4/83
f 56/4/60 91/4/95 69/4/73
f 91/4/95 62/4/66 90/4/94
f 69/4/73 90/4/94 55/4/59
f 91/4/95 90/4/94 69/4/73
f 62/4/66 92/4/96 89/4/93
f 92/4/96 61/4/65 85/4/89
f 89/4/93 85/4/89 53/4/57
f 92/4/96 85/4/89 89/4/93
f 61/4/65 87/4/91 86/4/90
f 87/4/91 58/4/62 74/4/78
f 86/4/90 74/4/78 57/4/61
f 87/4/91 74/4/78 86/4/90
f 58/4/62 73/4/77 78/4/82
f 73/4/77 52/4/56 75/4/79
f 78/4/82 75/4/79 59/4/63
f 73/4/77 75/4/79 78/4/82
f 54/4/58 80/4/84 66/4/70
f 80/4/84 60/4/64 81/4/85
f 66/4/70 81/4/85 55/4/59
f 80/4/84 81/4/85 66/4/70
f 54/4/58 66/4/70 64/4/68
f 66/4/70 55/4/59 65/4/69
f 64/4/68 65/4/69 53/4/57
f 66/4/70 65/4/69 64/4/68
f 54/4/58 64/4/68 71/4/75
f 64/4/68 53/4/57 70/4/74
f 71/4/75 70/4/74 57/4/61
f 64/4/68 70/4/74 71/4/75
f 54/4/58 71/4/75 76/4/80
f 71/4/75 57/4/61 77/4/81
f 76/4/80 77/4/81 59/4/63
f 71/4/75 77/4/81 76/4/80
f 54/4/58 76/4/80 80/4/84
f 76/4/80 59/4/63 83/4/87
f 80/4/84 83/4/87 60/4/64
f 76/4/80 83/4/87 80/4/84
f 55/4/59 81/4/85 69/4/73
f 81/4/85 60/4/64 82/4/86
f 69/4/73 82/4/86 56/4/60
f 81/4/85 82/4/86 69/4/73
f 53/4/57 65/4/69 89/4/93
f 65/4/69 55/4/59 90/4/94
f 89/4/93 90/4/94 62/4/66
f 65/4/69 90/4/94 89/4/93
f 57/4/61 70/4/74 86/4/90
f 70/4/74 53/4/57 85/4/89
f 86/4/90 85/4/89 61/4/65
f 70/4/74 85/4/89 86/4/90
f 59/4/63 77/4/81 78/4/82
f 77/4/81 57/4/61 74/4/78
f 78/4/82 74/4/78 58/4/62
f 77/4/81 74/4/78 78/4/82
f 60/4/64 83/4/87 79/4/83
f 83/4/87 59/4/63 75/4/79
f 79/4/83 75/4/79 52/4/56
f 83/4/87 75/4/79 79/4/83
g Antenna
s 1
v 0.25000000 0.18000000 -0.23000000
v 0.26200000 0.18000000 -0.23000000
v 0.26200000 0.58000000 -0.23000000
v 0.25000000 0.58000000 -0.23000000
v 0.26039230 0.18000000 -0.23600000
v 0.26039230 0.58000000 -0.23600000
v 0.25600000 0.18000000 -0.24039230
v 0.25600000 0.58000000 -0.24039230
v 0.25000000 0.18000000 -0.24200000
v 0.25000000 0.58000000 -0.24200000
v 0.24400000 0.18000000 -0.24039230
v 0.24400000 0.58000000 -0.24039230
v 0.23960770 0.18000000 -0.23600000
v 0.23960770 0.58000000 -0.23600000
v 0.23800000 0.18000000 -0.23000000
v 0.23800000 0.58000000 -0.23000000
v 0.23960770 0.18000000 -0.22400000
v 0.23960770 0.58000000 -0.22400000
v 0.24400000 0.18000000 -0.21960770
v 0.24400000 0.58000000 -0.21960770
v 0.25000000 0.18000000 -0.21800000
v 0.25000000 0.58000000 -0.21800000
v 0.25600000 0.18000000 -0.21960770
v 0.25600000 0.58000000 -0.21960770
v 0.26039230 0.18000000 -0.22400000
v 0.26039230 0.58000000 -0.22400000
vn 0.00000000 -1.00000000 0.00000000
vn 0.75716233 -0.65322677 -0.00000000
vn 0.75716233 0.65322677 -0.00000000
vn 0.00000000 1.00000000 0.00000000
vn 0.65572181 -0.65322677 -0.37858116
vn 0.65572181 0.65322677 -0.37858116
vn 0.37858116 -0.65322677 -0.65572181
vn 0.37858116 0.65322677 -0.65572181
vn -0.00000000 -0.65322677 -0.75716233
vn 0.00000000 0.65322677 -0.75716233
vn -0.37858116 -0.65322677 -0.65572181
vn -0.37858116 0.65322677 -0.65572181
vn -0.65572181 -0.65322677 -0.37858116
vn -0.65572181 0.65322677 -0.37858116
vn -0.75716233 -0.65322677 0.00000000
vn -0.75716233 0.65322677 -0.00000000
vn -0.65572181 -0.65322677 0.37858116
vn -0.65572181 0.65322677 0.37858116
vn -0.37858116 -0.65322677 0.65572181
vn -0.37858116 0.65322677 0.65572181
vn 0.00000000 -0.65322677 0.75716233
vn -0.00000000 0.65322677 0.75716233
vn 0.37858116 -0.65322677 0.65572181
vn 0.37858116 0.65322677 0.65572181
vn 0.65572181 -0.65322677 0.37858116
vn 0.65572181 0.65322677 0.37858116
f 94/4/98 93/4/97 97/4/101
f 94/4/98 97/4/101 95/4/99
f 95/4/99 97/4/101 98/4/102
f 95/4/99 98/4/102 96/4/100
f 97/4/101 93/4/97 99/4/103
f 97/4/101 99/4/103 98/4/102
f 98/4/102 99/4/103 100/4/104
f 98/4/102 100/4/104 96/4/100
f 99/4/103 93/4/97 101/4/105
f 99/4/103 101/4/105 100/4/104
f 100/4/104 101/4/105 102/4/106
f 100/4/104 102/4/106 96/4/100
f 101/4/105 93/4/97 103/4/107
f 101/4/105 103/4/107 102/4/106
f 102/4/106 103/4/107 104/4/108
f 102/4/106 104/4/108 96/4/100
f 103/4/107 93/4/97 105/4/109
f 103/4/107 105/4/109 104/4/108
f 104/4/108 105/4/109 106/4/110
f 104/4/108 106/4/110 96/4/100
f 105/4/109 93/4/97 107/4/111
f 105/4/109 107/4/111 106/4/110
f 106/4/110 107/4/111 108/4/112
f 106/4/110 108/4/112 96/4/100
f 107/4/111 93/4/97 109/4/113
f 107/4/111 109/4/113 108/4/112
f 108/4/112 109/4/113 110/4/114
f 108/4/112 110/4/114 96/4/100
f 109/4/113 93/4/97 111/4/115
f 109/4/113 111/4/115 110/4/114
f 110/4/114 111/4/115 112/4/116
f 110/4/114 112/4/116 96/4/100
f 111/4/115 93/4/97 113/4/117
f 111/4/115 113/4/117 112/4/116
f 112/4/116 113/4/117 114/4/118
f 112/4/116 114/4/118 96/4/100
f 113/4/117 93/4/97 115/4/119
f 113/4/117 115/4/119 114/4/118
f 114/4/118 115/4/119 116/4/120
f 114/4/118 116/4/120 96/4/100
f 115/4/119 93/4/97 117/4/121
f 115/4/119 117/4/121 116/4/120
f 116/4/120 117/4/121 118/4/122
f 116/4/120 118/4/122 96/4/100
f 117/4/121 93/4/97 94/4/98
f 117/4/121 94/4/98 118/4/122
f 118/4/122 94/4/98 95/4/99
f 118/4/122 95/4/99 96/4/100
